<?xml version="1.0" encoding="utf-8"?>
<!-- Generator: Adobe Illustrator 16.0.4, SVG Export Plug-In . SVG Version: 6.00 Build 0)  -->
<!DOCTYPE svg PUBLIC "-//W3C//DTD SVG 1.1//EN" "http://www.w3.org/Graphics/SVG/1.1/DTD/svg11.dtd">
<svg version="1.1" id="Layer_2" xmlns="http://www.w3.org/2000/svg" xmlns:xlink="http://www.w3.org/1999/xlink" x="0px" y="0px"
	 width="198.43px" height="113.39px" viewBox="0 0 198.43 113.39" style="enable-background:new 0 0 198.43 113.39;"
	 xml:space="preserve">
<g>
	<defs>
		<rect id="SVGID_1_" width="198.425" height="113.386"/>
	</defs>
	<clipPath id="SVGID_2_">
		<use xlink:href="#SVGID_1_"  style="overflow:visible;"/>
	</clipPath>
	
		<rect x="-1.415" y="-1.416" style="clip-path:url(#SVGID_2_);fill:#EBEBEB;stroke:#FFFFFF;stroke-width:0.8504;stroke-miterlimit:10;" width="201.26" height="116.22"/>
	<g style="clip-path:url(#SVGID_2_);">
		<g>
			<path style="fill:none;stroke:#ED1B23;stroke-width:4.252;stroke-miterlimit:10;" d="M-3,82.499
				c21.104-7.721,49.584-25.456,94.167-9.167c43.333,15.833,50,20.833,65.333,20.833c18.167,0,27.167-7,45-15.333"/>
			<path style="fill:none;stroke:#FFF200;stroke-width:0.8504;stroke-miterlimit:10;" d="M-3,82.499
				c21.104-7.721,49.584-25.456,94.167-9.167c43.333,15.833,50,20.833,65.333,20.833c18.167,0,27.167-7,45-15.333"/>
		</g>
		<circle style="fill:#FFF200;stroke:#ED1B23;stroke-width:0.8504;stroke-miterlimit:10;" cx="135.833" cy="90.165" r="2.126"/>
	</g>
	<g style="clip-path:url(#SVGID_2_);">
		<g>
			<path style="fill:none;stroke:#221E1F;stroke-width:8.5039;stroke-miterlimit:10;" d="M-3,38.674
				c21.104-7.721,49.584-25.456,94.167-9.167c43.333,15.833,50,20.833,65.333,20.833c18.167,0,27.167-7,45-15.333"/>
			<path style="fill:none;stroke:#000000;stroke-width:3.4016;stroke-miterlimit:10;" d="M128.5,45.417
				c10,3.833,5.084,16.583,18.084,19.25"/>
			<path d="M146.753,63.804c-6.349-1.36-9.38-5.982-8.644-9.666c0.599-2.991,3.76-5.533,9.451-4.477l-0.621,3.345
				c-3.007-0.561-5.164,0.148-5.495,1.799c-0.339,1.695,1.328,4.739,6.009,5.742L146.753,63.804z"/>
		</g>
		<g>
			<path style="fill:#FFEE11;" d="M156.5,53.175c-11.438,0-18.375-2.691-36.912-9.883c-7.535-2.924-16.914-6.562-29.394-11.122
				C53.16,18.639,28.027,29.045,7.833,37.406c-3.456,1.431-6.72,2.782-9.859,3.931l-1.947-5.324
				c3.027-1.107,6.238-2.437,9.638-3.844c19.99-8.277,47.369-19.611,86.475-5.323c12.533,4.579,21.94,8.229,29.5,11.162
				c18.314,7.105,24.484,9.5,34.861,9.5c13.646,0,21.938-4.182,33.414-9.97c3.23-1.629,6.571-3.314,10.386-5.097l2.4,5.136
				c-3.737,1.747-7.04,3.412-10.233,5.023C180.75,48.507,171.495,53.175,156.5,53.175z"/>
			<path style="fill:#FFEE11;" d="M146.932,62.972c-5.836-1.25-8.645-5.388-7.988-8.667c0.478-2.393,2.98-4.825,8.462-3.807
				l-0.311,1.672c-3.505-0.651-6.054,0.316-6.483,2.469c-0.494,2.47,1.868,5.641,6.676,6.671L146.932,62.972z"/>
			<path style="fill:#FFEE11;" d="M146.413,65.5c-7.505-1.54-9.47-6.424-11.203-10.734c-1.435-3.567-2.789-6.936-7.015-8.556
				l0.609-1.588c4.917,1.885,6.477,5.761,7.983,9.509c1.727,4.292,3.357,8.346,9.967,9.703L146.413,65.5z"/>
		</g>
		<g>
			<path style="fill:none;stroke:#221E1F;stroke-width:5.9528;stroke-miterlimit:10;" d="M139.812,59.219
				c1.297,1.823,3.568,3.506,7.136,4.272c4.188,0.899,7.614-0.054,10.489-1.179"/>
			<path style="fill:none;stroke:#FFEE11;stroke-width:4.252;stroke-miterlimit:10;" d="M139.812,59.219
				c1.297,1.823,3.568,3.506,7.136,4.272c4.188,0.899,7.614-0.054,10.489-1.179"/>
			<path style="fill:none;stroke:#221E1F;stroke-width:0.8504;stroke-miterlimit:10;" d="M139.812,59.219
				c1.297,1.823,3.568,3.506,7.136,4.272c4.188,0.899,7.614-0.054,10.489-1.179"/>
		</g>
		<path style="fill:none;stroke:#221E1F;stroke-width:0.8504;stroke-miterlimit:10;" d="M-3,38.674
			c21.104-7.721,49.584-25.456,94.167-9.167c43.333,15.833,50,20.833,65.333,20.833c18.167,0,27.167-7,45-15.333"/>
	</g>
</g>
</svg>
