<?xml version="1.0" encoding="utf-8"?>
<!-- Generator: Adobe Illustrator 16.0.4, SVG Export Plug-In . SVG Version: 6.00 Build 0)  -->
<!DOCTYPE svg PUBLIC "-//W3C//DTD SVG 1.1//EN" "http://www.w3.org/Graphics/SVG/1.1/DTD/svg11.dtd">
<svg version="1.1" id="Layer_1" xmlns="http://www.w3.org/2000/svg" xmlns:xlink="http://www.w3.org/1999/xlink" x="0px" y="0px"
	 width="294.803px" height="133.229px" viewBox="0 0 294.803 133.229" style="enable-background:new 0 0 294.803 133.229;"
	 xml:space="preserve">
<g>
	<g>
		
			<line style="fill:none;stroke:#0088FF;stroke-width:0.8504;stroke-miterlimit:10;" x1="162.214" y1="74.739" x2="270.815" y2="74.739"/>
		<g>
			<polygon style="fill:#0088FF;" points="268.702,77.348 268.266,76.881 270.57,74.74 268.266,72.599 268.702,72.132 
				271.506,74.74 			"/>
		</g>
	</g>
</g>
<g>
	<g>
		
			<line style="fill:none;stroke:#009900;stroke-width:0.8504;stroke-miterlimit:10;" x1="15.838" y1="39.658" x2="19.872" y2="39.658"/>
		<g>
			<polygon style="fill:#009900;" points="17.759,42.267 17.324,41.799 19.627,39.659 17.324,37.518 17.759,37.05 20.564,39.659 			
				"/>
		</g>
	</g>
</g>
<g>
	<g>
		
			<line style="fill:none;stroke:#009900;stroke-width:0.8504;stroke-miterlimit:10;" x1="11.963" y1="53.239" x2="17.401" y2="53.239"/>
		<g>
			<polygon style="fill:#009900;" points="15.288,55.848 14.853,55.38 17.156,53.24 14.853,51.099 15.288,50.631 18.093,53.24 			
				"/>
		</g>
	</g>
</g>
<g>
	<g>
		
			<line style="fill:none;stroke:#009900;stroke-width:0.8504;stroke-miterlimit:10;" x1="12.838" y1="62.438" x2="19.896" y2="62.438"/>
		<g>
			<polygon style="fill:#009900;" points="17.783,65.046 17.348,64.579 19.651,62.438 17.348,60.297 17.783,59.83 20.588,62.438 			
				"/>
		</g>
	</g>
</g>
<g>
	<g>
		
			<line style="fill:none;stroke:#009900;stroke-width:0.8504;stroke-miterlimit:10;" x1="11.963" y1="75.864" x2="19.021" y2="75.864"/>
		<g>
			<polygon style="fill:#009900;" points="16.908,78.473 16.473,78.006 18.776,75.865 16.473,73.724 16.908,73.257 19.713,75.865 
							"/>
		</g>
	</g>
</g>
<g>
	
		<rect x="11.963" y="90.814" style="fill:none;stroke:#009900;stroke-width:0.8787;stroke-miterlimit:10;" width="6.592" height="0.85"/>
	<g>
		<polygon style="fill:none;stroke:#009900;stroke-width:0.8787;stroke-miterlimit:10;" points="16.908,93.848 16.473,93.381 
			18.776,91.24 16.473,89.099 16.908,88.632 19.713,91.24 		"/>
	</g>
</g>
<g>
	
		<rect x="11.963" y="46.832" style="fill:none;stroke:#009900;stroke-width:0.8787;stroke-miterlimit:10;" width="6.592" height="0.85"/>
	<g>
		<polygon style="fill:none;stroke:#009900;stroke-width:0.8787;stroke-miterlimit:10;" points="16.908,49.865 16.473,49.398 
			18.776,47.257 16.473,45.116 16.908,44.649 19.713,47.257 		"/>
	</g>
</g>
<g>
	<g>
		
			<line style="fill:none;stroke:#009900;stroke-width:0.8504;stroke-miterlimit:10;" x1="12.838" y1="98.739" x2="19.896" y2="98.739"/>
		<g>
			<polygon style="fill:#009900;" points="17.783,101.348 17.348,100.881 19.651,98.74 17.348,96.599 17.783,96.132 20.588,98.74 
							"/>
		</g>
	</g>
</g>
<g>
	<g>
		
			<line style="fill:none;stroke:#009900;stroke-width:0.8504;stroke-miterlimit:10;" x1="13.713" y1="106.739" x2="19.021" y2="106.739"/>
		<g>
			<polygon style="fill:#009900;" points="16.908,109.348 16.473,108.881 18.776,106.74 16.473,104.599 16.908,104.132 
				19.713,106.74 			"/>
		</g>
	</g>
</g>
<g>
	<g>
		<polyline style="fill:none;stroke:#0088FF;stroke-width:0.8504;stroke-miterlimit:10;" points="172.089,74.739 182.214,100.927 
			192.69,100.927 		"/>
		<g>
			<polygon style="fill:#0088FF;" points="190.577,103.535 190.141,103.068 192.445,100.928 190.141,98.786 190.577,98.319 
				193.381,100.928 			"/>
		</g>
	</g>
</g>
<polyline style="fill:none;stroke:#0088FF;stroke-width:0.8504;stroke-miterlimit:10;" points="264.382,74.739 254.257,100.927 
	245.798,100.927 "/>
<rect x="62.982" y="36.408" style="fill:none;" width="46" height="10"/>
<text transform="matrix(1 0 0 1 68.8579 42.1587)" style="fill:#DD0000; font-family:'Helvetica'; font-size:8;">planet file</text>
<rect x="62.982" y="56.869" style="fill:none;" width="46" height="10"/>
<text transform="matrix(1 0 0 1 71.0845 62.6304)" style="fill:#DD0000; font-family:'Helvetica-Oblique'; font-size:8;">einmalig</text>
<g>
	
		<line style="fill:none;stroke:#DD0000;stroke-width:1.4173;stroke-miterlimit:10;" x1="58.95" y1="54.241" x2="58.95" y2="45.737"/>
	<g>
		<polygon style="fill:none;stroke:#DD0000;stroke-width:1.4173;stroke-miterlimit:10;" points="111.122,54.24 111.122,60.32 
			121.45,49.989 111.122,39.658 111.122,45.737 59.004,45.737 59.004,54.241 		"/>
	</g>
</g>
<rect x="61.55" y="84.022" style="fill:none;" width="62.5" height="10"/>
<text transform="matrix(1 0 0 1 66.3433 89.7744)" style="fill:#DD0000; font-family:'Helvetica'; font-size:8;">replication files</text>
<rect x="61.267" y="123.905" style="fill:none;" width="62.5" height="8.428"/>
<text transform="matrix(1 0 0 1 71.4019 129.6572)" style="fill:#DD0000; font-family:'Helvetica-Bold'; font-size:8;">osm2pgsql</text>
<rect x="2.646" y="123.905" style="fill:none;" width="28.167" height="8.428"/>
<text transform="matrix(1 0 0 1 5.1743 129.6572)" style="fill:#009900; font-family:'Helvetica-Bold'; font-size:8;">Editor</text>
<rect x="1.963" y="38.156" style="fill:none;" width="10" height="73.167"/>
<text transform="matrix(0 -1 1 0 7.7153 106.5225)" style="font-family:'Helvetica'; font-size:8;">OSM-Mitwirkende</text>
<rect x="169.11" y="123.905" style="fill:none;" width="95.5" height="8.428"/>
<text transform="matrix(1 0 0 1 178.8511 129.6572)" style="fill:#0088FF; font-family:'Helvetica-Bold'; font-size:8;">Mapnik / slippy map</text>
<rect x="68.05" y="103.364" style="fill:none;" width="46" height="10"/>
<text transform="matrix(1 0 0 1 70.3682 109.124)" style="fill:#DD0000; font-family:'Helvetica-Oblique'; font-size:8;">jede Minute</text>
<g>
	<rect x="23.138" y="30.915" style="fill:#FFFFFF;" width="37.649" height="87.65"/>
	<path d="M60.362,31.34v86.799H23.563V31.34H60.362 M61.213,30.489h-38.5v88.5h38.5V30.489L61.213,30.489z"/>
</g>
<g>
	<rect x="124.138" y="30.915" style="fill:#FFFFFF;" width="37.651" height="87.65"/>
	<path d="M161.364,31.34v86.799h-36.8V31.34H161.364 M162.214,30.489h-38.501v88.5h38.501V30.489L162.214,30.489z"/>
</g>
<g>
	<rect x="193.806" y="83.289" style="fill:#FFFFFF;" width="51.567" height="35.275"/>
	<path d="M244.948,83.715v34.424h-50.716V83.715H244.948 M245.798,82.864h-52.417v36.125h52.417V82.864L245.798,82.864z"/>
</g>
<rect x="22.713" y="59.989" style="fill:none;" width="38.5" height="50"/>
<text transform="matrix(1 0 0 1 31.52 65.7412)"><tspan x="0" y="0" style="font-family:'Helvetica'; font-size:8;">OSM-</tspan><tspan x="4.887" y="19.2" style="font-family:'Helvetica'; font-size:8;">DB</tspan></text>
<rect x="123.713" y="55.989" style="fill:none;" width="38.501" height="58"/>
<text transform="matrix(1 0 0 1 128.5142 61.7412)"><tspan x="0" y="0" style="font-family:'Helvetica'; font-size:8;">Geo-DB</tspan><tspan x="8" y="9.6" style="font-family:'Helvetica'; font-size:8;">des</tspan><tspan x="4.893" y="19.2" style="font-family:'Helvetica'; font-size:8;">Web-</tspan><tspan x="0.668" y="28.8" style="font-family:'Helvetica'; font-size:8;">Servers</tspan></text>
<rect x="8.349" y="4.438" style="fill:none;" width="123.936" height="18.885"/>
<text transform="matrix(1 0 0 1 14.8789 10.1973)"><tspan x="0" y="0" style="fill:#DD0000; font-family:'Helvetica-Oblique'; font-size:8;">lokale Kopie von OpenStreetMap </tspan><tspan x="24.895" y="9.6" style="fill:#DD0000; font-family:'Helvetica-Oblique'; font-size:8;">herstellen und nachführen</tspan></text>
<rect x="153.117" y="4.438" style="fill:none;" width="123.936" height="18.885"/>
<text transform="matrix(1 0 0 1 153.1167 10.1973)" style="fill:#0088FF; font-family:'Helvetica-Oblique'; font-size:8;">Geodaten visualisieren</text>
<rect x="194.714" y="93.114" style="fill:none;" width="49.75" height="17.375"/>
<text transform="matrix(1 0 0 1 203.1382 98.8662)"><tspan x="0" y="0" style="font-family:'Helvetica'; font-size:8;">mod_tile-</tspan><tspan x="4.889" y="9.6" style="font-family:'Helvetica'; font-size:8;">Cache</tspan></text>
<rect x="271.27" y="67.932" style="fill:none;" width="23.25" height="17.374"/>
<text transform="matrix(1 0 0 1 274.4468 73.6826)"><tspan x="0" y="0" style="font-family:'Helvetica'; font-size:8;">User</tspan><tspan x="-2.008" y="9.601" style="font-family:'Helvetica'; font-size:8;">Agent</tspan></text>
<g>
	<g>
		
			<line style="fill:none;stroke:#DD0000;stroke-width:0.8504;stroke-miterlimit:10;" x1="63.548" y1="93.739" x2="112.871" y2="93.739"/>
		<g>
			<polygon style="fill:#DD0000;" points="109.101,95.768 108.882,95.168 112.809,93.739 108.882,92.311 109.101,91.711 
				114.673,93.739 			"/>
		</g>
	</g>
</g>
<g>
	<g>
		
			<line style="fill:none;stroke:#DD0000;stroke-width:0.8504;stroke-miterlimit:10;" x1="66.934" y1="97.056" x2="116.256" y2="97.056"/>
		<g>
			<polygon style="fill:#DD0000;" points="112.486,99.084 112.268,98.484 116.194,97.056 112.268,95.627 112.486,95.027 
				118.059,97.056 			"/>
		</g>
	</g>
</g>
<g>
	<g>
		
			<line style="fill:none;stroke:#DD0000;stroke-width:0.8504;stroke-miterlimit:10;" x1="70.318" y1="100.373" x2="119.641" y2="100.373"/>
		<g>
			<polygon style="fill:#DD0000;" points="115.871,102.401 115.653,101.802 119.579,100.373 115.653,98.944 115.871,98.345 
				121.443,100.373 			"/>
		</g>
	</g>
</g>
<line style="fill:none;stroke:#000000;stroke-width:0.8504;stroke-miterlimit:10;stroke-dasharray:2.8347;" x1="142.963" y1="27.174" x2="142.963" y2="1.309"/>
</svg>
