<?xml version="1.0" encoding="utf-8"?>
<!-- Generator: Adobe Illustrator 16.0.4, SVG Export Plug-In . SVG Version: 6.00 Build 0)  -->
<!DOCTYPE svg PUBLIC "-//W3C//DTD SVG 1.1//EN" "http://www.w3.org/Graphics/SVG/1.1/DTD/svg11.dtd">
<svg version="1.1" id="Layer_1" xmlns="http://www.w3.org/2000/svg" xmlns:xlink="http://www.w3.org/1999/xlink" x="0px" y="0px"
	 width="289.134px" height="62.362px" viewBox="0 0 289.134 62.362" style="enable-background:new 0 0 289.134 62.362;"
	 xml:space="preserve">
<rect x="143.32" y="47.567" style="fill:none;" width="145.814" height="14.332"/>
<text transform="matrix(1 0 0 1 150.1938 51.8818)"><tspan x="0" y="0" style="font-family:'Helvetica'; font-size:6;">Maßstabsverkleinerung führt zu Platzmangel, den </tspan><tspan x="-6.848" y="7.199" style="font-family:'Helvetica'; font-size:6;">Generalisierung durch Verdrängung lösen helfen kann.</tspan></text>
<rect x="221.366" y="30.315" style="fill:none;" width="64.092" height="13.336"/>
<text transform="matrix(1 0 0 1 239.9995 34.6289)"><tspan x="0" y="0" style="font-family:'Helvetica'; font-size:6;">1:</tspan><tspan x="6.204" y="0" style="font-family:'Helvetica'; font-size:6;">10</tspan><tspan x="12.878" y="0" style="font-family:'Helvetica'; font-size:6;">0</tspan><tspan x="16.814" y="0" style="font-family:'Helvetica'; font-size:6;">000</tspan><tspan x="-2.929" y="7.2" style="font-family:'Helvetica'; font-size:6;">generalisiert</tspan></text>
<g id="_x31_00_gen">
	<g>
		<defs>
			<rect id="SVGID_1_" x="221.204" y="1.417" width="64.416" height="24.333"/>
		</defs>
		<clipPath id="SVGID_2_">
			<use xlink:href="#SVGID_1_"  style="overflow:visible;"/>
		</clipPath>
		<g style="clip-path:url(#SVGID_2_);">
			<path style="fill:#BEF36C;" d="M262.153,11.093c-2.236,0-4.358-0.2-5.908-0.346c-0.646-0.061-1.187-0.112-1.584-0.134
				c-2.003-0.11-6.996-0.559-8.037-0.653c-0.221-0.726-1.084-3.378-2.542-5.638c-1.331-2.062-4.052-4.317-5.306-5.299l47.591-0.735
				c0.225,0.444,0.841,1.806,0.522,2.797c-0.128,0.399-0.391,0.685-0.805,0.876c-0.974,0.45-1.959,0.944-3.047,1.49
				c-1.323,0.664-2.821,1.416-4.632,2.251c-2.269,1.047-3.527,1.646-5.551,2.607l-3.201,1.519
				C267.88,10.667,265.356,11.093,262.153,11.093L262.153,11.093z"/>
			<path style="fill:#09A05A;" d="M286.193-1.426c0.283,0.6,0.666,1.681,0.427,2.425c-0.104,0.323-0.312,0.546-0.653,0.704
				c-0.98,0.452-1.988,0.958-3.056,1.494c-1.321,0.663-2.817,1.414-4.623,2.248c-2.271,1.047-3.506,1.635-5.553,2.608
				c-0.876,0.417-1.896,0.901-3.202,1.52c-1.735,0.821-4.219,1.238-7.38,1.238c-2.224,0-4.338-0.2-5.882-0.345
				c-0.65-0.061-1.194-0.112-1.595-0.134c-1.896-0.105-6.486-0.514-7.838-0.636c-0.294-0.93-1.146-3.399-2.519-5.527
				c-1.161-1.799-3.353-3.734-4.751-4.874L286.193-1.426 M286.537-1.999l-48.583,0.75c0,0,4.172,3.062,5.89,5.724
				c1.667,2.583,2.563,5.75,2.563,5.75s5.977,0.546,8.238,0.671c1.341,0.074,4.319,0.48,7.508,0.48c2.674,0,5.495-0.286,7.622-1.292
				c4.322-2.046,5.5-2.625,8.75-4.125c3.288-1.518,5.512-2.741,7.679-3.741S286.537-1.999,286.537-1.999L286.537-1.999z"/>
		</g>
		<path style="clip-path:url(#SVGID_2_);fill:none;stroke:#00AEEF;stroke-width:2.2677;stroke-miterlimit:10;" d="M218.4,17.084
			c1.896-0.667,2.786-1.854,4.533-2.779c1.812-0.959,3.621-1.039,5.548-1.027c2.201,0.013,4.169,0.681,6.74-0.062
			c3.477-1.005,7.206-1.327,10.801-1.071c5.526,0.394,10.804,0.938,16.378,1.064c5.5,0.125,9.334-1.832,13.752-4.246
			c3.764-2.057,5.959-1.592,10.229-1.899"/>
		<path style="clip-path:url(#SVGID_2_);fill:none;stroke:#000000;stroke-width:1.7008;stroke-miterlimit:10;" d="M257.518,15.53
			c-10.797-0.676-17.088-0.57-25.244,2.015c-7.487,2.373-11.487,3.789-11.487,3.789"/>
		<g style="clip-path:url(#SVGID_2_);">
			<path style="fill:none;stroke:#000000;stroke-width:6.8031;stroke-miterlimit:10;" d="M219.246,7.587
				c1.584-0.167,3.375-0.837,7.041-1.27c3.076-0.363,5.667-0.734,8.451-0.397c2.525,0.306,5.312,1.869,6.742,4.117
				c1.682,2.642,2.465,6.783,5.807,8.64c6.374,3.541,15.491,2.754,24.364,1.417c5.874-0.886,9.773-1.841,16.005-2.833"/>
			<path style="fill:none;stroke:#FFF200;stroke-width:4.5354;stroke-miterlimit:10;" d="M219.246,7.587
				c1.584-0.167,3.375-0.837,7.041-1.27c3.076-0.363,5.667-0.734,8.451-0.397c2.525,0.306,5.312,1.869,6.742,4.117
				c1.682,2.642,2.465,6.783,5.807,8.64c6.374,3.541,15.491,2.754,24.364,1.417c5.874-0.886,9.773-1.841,16.005-2.833"/>
		</g>
		<g style="clip-path:url(#SVGID_2_);">
			<path style="fill:#09A05A;" d="M225.5,14.912c-0.92,0-1.665,0.746-1.665,1.666s0.745,1.666,1.665,1.666s1.665-0.746,1.665-1.666
				S226.42,14.912,225.5,14.912L225.5,14.912z"/>
		</g>
		<g style="clip-path:url(#SVGID_2_);">
			<path style="fill:#09A05A;" d="M279.697,9.044c-0.92,0-1.665,0.746-1.665,1.666s0.745,1.666,1.665,1.666s1.665-0.746,1.665-1.666
				S280.617,9.044,279.697,9.044L279.697,9.044z"/>
		</g>
		
			<path style="clip-path:url(#SVGID_2_);fill:none;stroke:#000000;stroke-width:1.7008;stroke-linecap:round;stroke-miterlimit:10;" d="
			M286.9,12.243c-10.907,1.983-19.076,3.933-29.382,3.287"/>
	</g>
	
		<rect x="221.204" y="1.417" style="fill:none;stroke:#000000;stroke-width:0.2835;stroke-miterlimit:10;" width="64.416" height="24.333"/>
</g>
<rect x="146.827" y="30.315" style="fill:none;" width="64.426" height="13.67"/>
<text transform="matrix(1 0 0 1 165.6274 34.6289)"><tspan x="0" y="0" style="font-family:'Helvetica'; font-size:6;">1:</tspan><tspan x="6.203" y="0" style="font-family:'Helvetica'; font-size:6;">10</tspan><tspan x="12.877" y="0" style="font-family:'Helvetica'; font-size:6;">0</tspan><tspan x="16.814" y="0" style="font-family:'Helvetica'; font-size:6;">000</tspan><tspan x="-5.596" y="7.2" style="font-family:'Helvetica'; font-size:6;">nur verkleinert</tspan></text>
<g id="_x31_00_skal">
	<g>
		<defs>
			<rect id="SVGID_3_" x="146.83" y="1.417" width="64.416" height="24.333"/>
		</defs>
		<clipPath id="SVGID_4_">
			<use xlink:href="#SVGID_3_"  style="overflow:visible;"/>
		</clipPath>
		<path style="clip-path:url(#SVGID_4_);fill:#BEF36C;stroke:#09A05A;stroke-width:0.5669;stroke-miterlimit:10;" d="M163.58,0.451
			c0,0,2.948,2.921,4.666,5.583c1.667,2.583,2.167,4.25,2.167,4.25s10.583,1.75,13,2.25s6.166,2,10.583-0.667
			c4.417-2.666,5.616-3.173,8.917-4.333c3.417-1.2,6.75-2.617,8.917-3.617s0.333-4.216,0.333-4.216L163.58,0.451z"/>
		<path style="clip-path:url(#SVGID_4_);fill:none;stroke:#00AEEF;stroke-width:2.2677;stroke-miterlimit:10;" d="M144.58,16.167
			c0.964,0.008,1.505,1.111,2.687,1c0.752-0.071,1.473-0.223,2.15-0.606c1.014-0.572,1.736-1.34,2.932-1.564
			c1.794-0.337,3.628,0.099,5.397-0.345c1.693-0.425,3.226-1.315,4.899-1.796c2.874-0.825,6.018-0.922,9.003-0.71
			c5.526,0.394,11.104,1.883,16.652,2.439c5.218,0.523,7.368-2.539,11.698-4.587c3.877-1.835,8.068-1.545,12.009-2.933"/>
		<g style="clip-path:url(#SVGID_4_);">
			<path style="fill:#09A05A;" d="M152.829,15.252c-0.92,0-1.665,0.746-1.665,1.666s0.745,1.666,1.665,1.666
				s1.665-0.746,1.665-1.666S153.749,15.252,152.829,15.252L152.829,15.252z"/>
		</g>
		<g style="clip-path:url(#SVGID_4_);">
			<path style="fill:#09A05A;" d="M150.804,16.377c-0.92,0-1.665,0.746-1.665,1.666s0.745,1.666,1.665,1.666
				s1.665-0.746,1.665-1.666S151.724,16.377,150.804,16.377L150.804,16.377z"/>
		</g>
		<g style="clip-path:url(#SVGID_4_);">
			<path style="fill:#09A05A;" d="M201.582,9.752c-0.918,0-1.663,0.746-1.663,1.666s0.745,1.666,1.663,1.666
				c0.922,0,1.667-0.746,1.667-1.666S202.503,9.752,201.582,9.752L201.582,9.752z"/>
		</g>
		<g style="clip-path:url(#SVGID_4_);">
			<path style="fill:#09A05A;" d="M204.038,9.064c-0.92,0-1.665,0.746-1.665,1.666s0.745,1.666,1.665,1.666s1.665-0.746,1.665-1.666
				S204.958,9.064,204.038,9.064L204.038,9.064z"/>
		</g>
		<g style="clip-path:url(#SVGID_4_);">
			<path style="fill:#09A05A;" d="M200.413,12.064c-0.92,0-1.665,0.746-1.665,1.666s0.745,1.666,1.665,1.666
				s1.665-0.746,1.665-1.666S201.333,12.064,200.413,12.064L200.413,12.064z"/>
		</g>
		<path style="clip-path:url(#SVGID_4_);fill:none;stroke:#000000;stroke-width:1.7008;stroke-miterlimit:10;" d="M183.144,15.813
			c-10.797-0.676-17.088-0.854-25.244,1.731c-7.487,2.373-11.487,3.789-11.487,3.789"/>
		<g style="clip-path:url(#SVGID_4_);">
			<path style="fill:none;stroke:#000000;stroke-width:6.8031;stroke-miterlimit:10;" d="M144.872,7.587
				c1.584-0.167,3.375-0.837,7.041-1.27c3.076-0.363,5.667-0.734,8.451-0.397c2.525,0.306,5.312,1.869,6.742,4.117
				c1.682,2.642,2.465,6.783,5.807,8.64c6.374,3.541,15.582,2.974,24.364,1.133c5.818-1.22,9.773-2.125,16.005-3.116"/>
			<path style="fill:none;stroke:#FFF200;stroke-width:4.5354;stroke-miterlimit:10;" d="M144.872,7.587
				c1.584-0.167,3.375-0.837,7.041-1.27c3.076-0.363,5.667-0.734,8.451-0.397c2.525,0.306,5.312,1.869,6.742,4.117
				c1.682,2.642,2.465,6.783,5.807,8.64c6.374,3.541,15.582,2.974,24.364,1.133c5.818-1.22,9.773-2.125,16.005-3.116"/>
		</g>
		
			<path style="clip-path:url(#SVGID_4_);fill:none;stroke:#000000;stroke-width:1.7008;stroke-linecap:round;stroke-miterlimit:10;" d="
			M212.575,14.146c-10.907,1.983-19.125,2.313-29.431,1.667"/>
	</g>
	
		<rect x="146.83" y="1.417" style="fill:none;stroke:#000000;stroke-width:0.2835;stroke-miterlimit:10;" width="64.416" height="24.333"/>
</g>
<rect x="1.626" y="54.71" style="fill:none;" width="128.665" height="10.668"/>
<text transform="matrix(1 0 0 1 54.2144 59.0244)"><tspan x="0" y="0" style="font-family:'Helvetica'; font-size:6;">1:</tspan><tspan x="6.204" y="0" style="font-family:'Helvetica'; font-size:6;">5</tspan><tspan x="9.541" y="0" style="font-family:'Helvetica'; font-size:6;">0</tspan><tspan x="13.478" y="0" style="font-family:'Helvetica'; font-size:6;">000</tspan></text>
<g id="_x35_0">
	<g>
		<defs>
			<rect id="SVGID_5_" x="1.542" y="1.418" width="128.833" height="48.666"/>
		</defs>
		<clipPath id="SVGID_6_">
			<use xlink:href="#SVGID_5_"  style="overflow:visible;"/>
		</clipPath>
		<path style="clip-path:url(#SVGID_6_);fill:#BEF36C;stroke:#09A05A;stroke-width:0.5669;stroke-miterlimit:10;" d="M35.042-0.514
			c0,0,5.898,5.843,9.333,11.167c3.333,5.167,4.333,8.5,4.333,8.5s21.167,3.499,26,4.499s12.333,4,21.167-1.333
			c8.833-5.332,11.232-6.347,17.833-8.666c6.834-2.4,13.499-5.234,17.833-7.234c4.333-2,0.666-8.433,0.666-8.433L35.042-0.514z"/>
		<path style="clip-path:url(#SVGID_6_);fill:none;stroke:#00AEEF;stroke-width:2.2677;stroke-miterlimit:10;" d="M-2.958,30.918
			c1.928,0.017,3.009,2.222,5.374,1.999c1.503-0.142,2.944-0.445,4.302-1.213c2.025-1.145,3.472-2.68,5.862-3.129
			c3.587-0.674,7.256,0.197,10.795-0.69c3.387-0.85,6.45-2.631,9.798-3.592c5.75-1.65,12.036-1.845,18.006-1.42
			c11.053,0.787,22.21,3.766,33.305,4.878c10.437,1.047,14.738-5.077,23.397-9.175c7.755-3.67,16.137-3.091,24.017-5.867"/>
		<path style="clip-path:url(#SVGID_6_);fill:none;stroke:#000000;stroke-width:1.7008;stroke-miterlimit:10;" d="M133.031,26.875
			c-21.812,3.966-38.249,4.626-58.86,3.335c-21.593-1.353-34.175-1.707-50.488,3.463C8.709,38.418,0.709,41.251,0.709,41.251"/>
		<g style="clip-path:url(#SVGID_6_);">
			<path style="fill:none;stroke:#000000;stroke-width:6.8031;stroke-miterlimit:10;" d="M-2.373,13.758
				c3.167-0.333,6.749-1.674,14.082-2.539c6.151-0.726,11.333-1.468,16.901-0.793c5.05,0.612,10.625,3.738,13.486,8.233
				c3.362,5.284,4.928,13.567,11.612,17.281c12.748,7.082,31.164,5.948,48.729,2.266c11.638-2.44,19.547-4.249,32.009-6.232"/>
			<path style="fill:none;stroke:#FFF200;stroke-width:4.5354;stroke-miterlimit:10;" d="M-2.373,13.758
				c3.167-0.333,6.749-1.674,14.082-2.539c6.151-0.726,11.333-1.468,16.901-0.793c5.05,0.612,10.625,3.738,13.486,8.233
				c3.362,5.284,4.928,13.567,11.612,17.281c12.748,7.082,31.164,5.948,48.729,2.266c11.638-2.44,19.547-4.249,32.009-6.232"/>
		</g>
		<g style="clip-path:url(#SVGID_6_);">
			<path style="fill:#09A05A;" d="M13.541,30.752c-0.92,0-1.666,0.746-1.666,1.666s0.746,1.666,1.666,1.666
				c0.92,0,1.667-0.746,1.667-1.666S14.461,30.752,13.541,30.752L13.541,30.752z"/>
		</g>
		<g style="clip-path:url(#SVGID_6_);">
			<path style="fill:#09A05A;" d="M9.492,33.002c-0.92,0-1.666,0.746-1.666,1.666s0.746,1.666,1.666,1.666
				c0.92,0,1.667-0.746,1.667-1.666S10.413,33.002,9.492,33.002L9.492,33.002z"/>
		</g>
		<g style="clip-path:url(#SVGID_6_);">
			<path style="fill:#09A05A;" d="M111.05,19.752c-0.92,0-1.666,0.746-1.666,1.666s0.746,1.666,1.666,1.666
				c0.921,0,1.667-0.746,1.667-1.666S111.971,19.752,111.05,19.752L111.05,19.752z"/>
		</g>
		<g style="clip-path:url(#SVGID_6_);">
			<path style="fill:#09A05A;" d="M115.958,18.377c-0.92,0-1.666,0.746-1.666,1.666c0,0.919,0.746,1.665,1.666,1.665
				c0.919,0,1.665-0.746,1.665-1.665C117.624,19.123,116.878,18.377,115.958,18.377L115.958,18.377z"/>
		</g>
		<g style="clip-path:url(#SVGID_6_);">
			<path style="fill:#09A05A;" d="M108.709,24.377c-0.92,0-1.666,0.746-1.666,1.666s0.746,1.666,1.666,1.666
				c0.921,0,1.667-0.746,1.667-1.666S109.63,24.377,108.709,24.377L108.709,24.377z"/>
		</g>
	</g>
	
		<rect x="1.542" y="1.418" style="fill:none;stroke:#000000;stroke-width:0.2835;stroke-miterlimit:10;" width="128.833" height="48.666"/>
</g>
</svg>
