<?xml version="1.0" encoding="utf-8"?>
<!-- Generator: Adobe Illustrator 16.0.4, SVG Export Plug-In . SVG Version: 6.00 Build 0)  -->
<!DOCTYPE svg PUBLIC "-//W3C//DTD SVG 1.1//EN" "http://www.w3.org/Graphics/SVG/1.1/DTD/svg11.dtd">
<svg version="1.1" id="Layer_2" xmlns="http://www.w3.org/2000/svg" xmlns:xlink="http://www.w3.org/1999/xlink" x="0px" y="0px"
	 width="198.43px" height="113.39px" viewBox="0 0 198.43 113.39" style="enable-background:new 0 0 198.43 113.39;"
	 xml:space="preserve">
<g>
	<defs>
		<rect id="SVGID_1_" width="198.425" height="113.386"/>
	</defs>
	<clipPath id="SVGID_2_">
		<use xlink:href="#SVGID_1_"  style="overflow:visible;"/>
	</clipPath>
	
		<rect x="-1.415" y="-1.416" style="clip-path:url(#SVGID_2_);fill:#F7F7F7;stroke:#FFFFFF;stroke-width:0.8504;stroke-miterlimit:10;" width="201.26" height="116.22"/>
</g>
<line style="fill:none;stroke:#FF0000;stroke-width:0.5669;stroke-miterlimit:10;" x1="83.725" y1="96.152" x2="66.832" y2="42.403"/>
<polyline style="fill:none;stroke:#FF0000;stroke-width:0.5669;stroke-miterlimit:10;" points="67.942,45.92 71.448,44.818 
	70.347,41.314 "/>
<circle cx="83.725" cy="96.153" r="0.85"/>
<circle cx="138.691" cy="19.825" r="0.851"/>
<circle cx="51.191" cy="47.326" r="0.851"/>
<line style="fill:none;stroke:#000000;stroke-width:0.5669;stroke-miterlimit:10;" x1="51.191" y1="47.326" x2="138.692" y2="19.825"/>
<circle style="fill:#FF0000;" cx="66.832" cy="42.404" r="0.851"/>
<text transform="matrix(1 0 0 1 64.0557 40.4155)" style="fill:#FF0000; font-family:'Helvetica'; font-size:10;">f</text>
<text transform="matrix(1 0 0 1 131.291 63.416)" style="fill:#0000FF; font-family:'Helvetica'; font-size:10;">≥! µ</text>
<text transform="matrix(1 0 0 1 140.9941 18.2905)" style="font-family:'Helvetica'; font-size:10;">E</text>
<text transform="matrix(0.7 0 0 0.7 147.6641 18.2905)" style="font-family:'Helvetica'; font-size:10;">nde</text>
<text transform="matrix(1 0 0 1 162.4434 18.2905)" style="font-family:'Helvetica'; font-size:10;">(t)</text>
<text transform="matrix(1 0 0 1 14.3193 48.2905)" style="font-family:'Helvetica'; font-size:10;">S</text>
<text transform="matrix(0.7 0 0 0.7 20.9893 48.2905)" style="font-family:'Helvetica'; font-size:10;">tart</text>
<text transform="matrix(1 0 0 1 39.2651 48.2905)" style="font-family:'Helvetica'; font-size:10;">(t)</text>
<text transform="matrix(1 0 0 1 85.0391 102.166)" style="font-family:'Helvetica'; font-size:10;">n</text>
<text transform="matrix(0.9541 -0.2996 0.2996 0.9541 89.5146 33.7095)" style="font-family:'Helvetica'; font-size:10;">t</text>
<polyline style="fill:none;stroke:#0000FF;stroke-width:0.2835;stroke-miterlimit:10;" points="67.661,48.045 68.009,49.155 
	53.231,53.79 52.883,52.681 "/>
<polyline style="fill:none;stroke:#0000FF;stroke-width:0.2835;stroke-miterlimit:10;" points="140.375,25.242 140.724,26.352 
	69.731,48.615 69.384,47.506 "/>
<line style="fill:none;stroke:#0000FF;stroke-width:0.2835;stroke-miterlimit:10;" x1="60.569" y1="51.509" x2="128.71" y2="59.915"/>
<line style="fill:none;stroke:#0000FF;stroke-width:0.2835;stroke-miterlimit:10;" x1="104.726" y1="37.65" x2="128.71" y2="59.915"/>
</svg>
