<?xml version="1.0" encoding="utf-8"?>
<!-- Generator: Adobe Illustrator 16.0.4, SVG Export Plug-In . SVG Version: 6.00 Build 0)  -->
<!DOCTYPE svg PUBLIC "-//W3C//DTD SVG 1.1//EN" "http://www.w3.org/Graphics/SVG/1.1/DTD/svg11.dtd">
<svg version="1.1" xmlns="http://www.w3.org/2000/svg" xmlns:xlink="http://www.w3.org/1999/xlink" x="0px" y="0px"
	 width="198.43px" height="113.39px" viewBox="0 0 198.43 113.39" style="enable-background:new 0 0 198.43 113.39;"
	 xml:space="preserve">
<symbol  id="Node" viewBox="-2.553 -2.551 5.105 5.103">
	<g>
		<path style="fill:#FFFFFF;" d="M1.985,0c0-1.095-0.889-1.984-1.985-1.984S-1.985-1.095-1.985,0S-1.097,1.984,0,1.984
			S1.985,1.095,1.985,0z"/>
		<path d="M0,1.984c1.097,0,1.985-0.89,1.985-1.984S1.097-1.984,0-1.984S-1.985-1.095-1.985,0S-1.097,1.984,0,1.984 M0,2.551
			c-1.407,0-2.553-1.145-2.553-2.551S-1.407-2.551,0-2.551S2.553-1.407,2.553,0S1.407,2.551,0,2.551L0,2.551z"/>
	</g>
	<g>
		<path d="M0.992,0c0-0.548-0.444-0.992-0.992-0.992S-0.992-0.548-0.992,0S-0.548,0.992,0,0.992S0.992,0.548,0.992,0z"/>
	</g>
</symbol>
<symbol  id="Punkt" viewBox="-2.268 -2.269 4.536 4.537">
	<g>
		<path style="fill:#FFFFFF;" d="M1.701,0c0-0.938-0.762-1.701-1.701-1.701S-1.701-0.938-1.701,0c0,0.939,0.762,1.701,1.701,1.701
			S1.701,0.939,1.701,0z"/>
		<path d="M0,1.701c0.939,0,1.701-0.762,1.701-1.701c0-0.938-0.762-1.701-1.701-1.701S-1.701-0.938-1.701,0
			C-1.701,0.939-0.939,1.701,0,1.701 M0,2.269c-1.25,0-2.268-1.018-2.268-2.269S-1.25-2.269,0-2.269S2.268-1.251,2.268,0
			S1.25,2.269,0,2.269L0,2.269z"/>
	</g>
</symbol>
<g id="Canvas">
	<rect style="fill:#EBEBEB;stroke:#FFFFFF;stroke-width:0.8504;stroke-miterlimit:10;" width="198.425" height="113.386"/>
</g>
<g id="Layer_1">
	<g>
		<g>
			
				<line style="fill:none;stroke:#2277CC;stroke-width:1.1339;stroke-linejoin:round;" x1="168.465" y1="51.129" x2="180.805" y2="47.304"/>
			<g>
				<path style="fill:#2277CC;" d="M184.073,46.292c-1.361,1.047-2.967,2.612-3.83,4.01l0.133-2.864l-1.729-2.286
					C180.149,45.816,182.358,46.198,184.073,46.292z"/>
			</g>
		</g>
	</g>
	<g>
		<g>
			
				<line style="fill:none;stroke:#2277CC;stroke-width:1.1339;stroke-linejoin:round;" x1="150.848" y1="56.589" x2="163.042" y2="52.809"/>
			<g>
				<path style="fill:#2277CC;" d="M166.311,51.796c-1.361,1.047-2.967,2.612-3.83,4.01l0.133-2.864l-1.729-2.286
					C162.387,51.321,164.596,51.703,166.311,51.796z"/>
			</g>
		</g>
	</g>
	<g>
		<g>
			
				<line style="fill:none;stroke:#2277CC;stroke-width:1.1339;stroke-linejoin:round;" x1="119.503" y1="66.304" x2="145.189" y2="58.343"/>
			<g>
				<path style="fill:#2277CC;" d="M148.458,57.33c-1.361,1.047-2.968,2.612-3.83,4.01l0.133-2.864l-1.729-2.286
					C144.534,56.854,146.743,57.237,148.458,57.33z"/>
			</g>
		</g>
	</g>
	<g>
		<g>
			
				<line style="fill:none;stroke:#2277CC;stroke-width:1.1339;stroke-linejoin:round;" x1="85.515" y1="76.837" x2="113.813" y2="68.066"/>
			<g>
				<path style="fill:#2277CC;" d="M117.082,67.054c-1.361,1.047-2.967,2.612-3.83,4.01l0.133-2.864l-1.729-2.286
					C113.158,66.578,115.367,66.96,117.082,67.054z"/>
			</g>
		</g>
	</g>
	<g>
		<g>
			
				<line style="fill:none;stroke:#2277CC;stroke-width:1.1339;stroke-linejoin:round;" x1="38.756" y1="91.329" x2="79.855" y2="78.591"/>
			<g>
				<path style="fill:#2277CC;" d="M83.123,77.578c-1.361,1.047-2.967,2.612-3.831,4.01l0.133-2.864l-1.729-2.286
					C79.199,77.103,81.409,77.484,83.123,77.578z"/>
			</g>
		</g>
	</g>
	<g>
		<g>
			
				<line style="fill:none;stroke:#2277CC;stroke-width:1.1339;stroke-linejoin:round;" x1="13.324" y1="99.211" x2="33.355" y2="93.002"/>
			<g>
				<path style="fill:#2277CC;" d="M36.623,91.989c-1.361,1.047-2.967,2.612-3.83,4.01l0.133-2.864l-1.73-2.286
					C32.699,91.514,34.909,91.896,36.623,91.989z"/>
			</g>
		</g>
	</g>
	<g>
		<g>
			
				<line style="fill:none;stroke:#2277CC;stroke-width:1.1339;stroke-linejoin:round;" x1="157.888" y1="17.009" x2="145.702" y2="20.832"/>
			<g>
				<path style="fill:#2277CC;" d="M142.438,21.856c1.357-1.052,2.958-2.623,3.816-4.023l-0.123,2.864l1.737,2.28
					C146.363,22.318,144.152,21.943,142.438,21.856z"/>
			</g>
		</g>
	</g>
	<g>
		<g>
			
				<line style="fill:none;stroke:#2277CC;stroke-width:1.1339;stroke-linejoin:round;" x1="140.288" y1="22.529" x2="114.389" y2="30.654"/>
			<g>
				<path style="fill:#2277CC;" d="M111.124,31.679c1.357-1.052,2.958-2.623,3.816-4.023l-0.123,2.864l1.737,2.28
					C115.05,32.141,112.839,31.766,111.124,31.679z"/>
			</g>
		</g>
	</g>
	<g>
		<g>
			
				<line style="fill:none;stroke:#2277CC;stroke-width:1.1339;stroke-linejoin:round;" x1="109.138" y1="32.302" x2="80.431" y2="41.308"/>
			<g>
				<path style="fill:#2277CC;" d="M77.167,42.333c1.357-1.052,2.958-2.623,3.816-4.023l-0.124,2.865l1.738,2.28
					C81.092,42.794,78.881,42.42,77.167,42.333z"/>
			</g>
		</g>
	</g>
	<g>
		<g>
			
				<line style="fill:none;stroke:#2277CC;stroke-width:1.1339;stroke-linejoin:round;" x1="75.192" y1="42.952" x2="33.994" y2="55.877"/>
			<g>
				<path style="fill:#2277CC;" d="M30.729,56.901c1.357-1.052,2.958-2.623,3.816-4.023l-0.124,2.864l1.738,2.28
					C34.655,57.363,32.444,56.989,30.729,56.901z"/>
			</g>
		</g>
	</g>
	<g>
		<g>
			
				<line style="fill:none;stroke:#2277CC;stroke-width:1.1339;stroke-linejoin:round;" x1="28.319" y1="57.658" x2="19.015" y2="60.577"/>
			<g>
				<path style="fill:#2277CC;" d="M15.75,61.602c1.357-1.052,2.958-2.623,3.816-4.023l-0.124,2.864l1.738,2.28
					C19.676,62.063,17.465,61.689,15.75,61.602z"/>
			</g>
		</g>
	</g>
	<g>
		<g>
			
				<line style="fill:none;stroke:#000000;stroke-width:0.5669;stroke-linejoin:round;stroke-dasharray:2.0976,2.0976;" x1="14.581" y1="66.417" x2="22.705" y2="92.629"/>
			<g>
				<path d="M23.414,94.917c-0.733-0.953-1.829-2.077-2.807-2.682l2.005,0.094l1.601-1.211
					C23.747,92.17,23.479,93.717,23.414,94.917z"/>
			</g>
		</g>
	</g>
	
		<use xlink:href="#Node"  width="5.105" height="5.103" x="-2.553" y="-2.551" transform="matrix(1 0 0 -1 13.3242 99.2129)" style="overflow:visible;"/>
	
		<use xlink:href="#Node"  width="5.105" height="5.103" x="-2.553" y="-2.551" transform="matrix(1 0 0 -1 186.498 45.54)" style="overflow:visible;"/>
	
		<use xlink:href="#Node"  width="5.105" height="5.103" x="-2.553" y="-2.551" transform="matrix(1 0 0 -1 13.3242 62.3623)" style="overflow:visible;"/>
	
		<use xlink:href="#Node"  width="5.105" height="5.103" id="XMLID_1_" x="-2.553" y="-2.551" transform="matrix(1 0 0 -1 157.8896 17.0078)" style="overflow:visible;"/>
	
		<use xlink:href="#Node"  width="5.105" height="5.103" x="-2.553" y="-2.551" transform="matrix(1 0 0 -1 150.8496 56.5889)" style="overflow:visible;"/>
	
		<use xlink:href="#Node"  width="5.105" height="5.103" x="-2.553" y="-2.551" transform="matrix(1 0 0 -1 85.5151 76.8389)" style="overflow:visible;"/>
	
		<use xlink:href="#Node"  width="5.105" height="5.103" x="-2.553" y="-2.551" transform="matrix(1 0 0 -1 119.5029 66.3047)" style="overflow:visible;"/>
	
		<use xlink:href="#Node"  width="5.105" height="5.103" x="-2.553" y="-2.551" transform="matrix(1 0 0 -1 28.3193 57.6577)" style="overflow:visible;"/>
	
		<use xlink:href="#Punkt"  width="4.536" height="4.537" x="-2.268" y="-2.269" transform="matrix(1 0 0 -1 140.293 22.5283)" style="overflow:visible;"/>
	
		<use xlink:href="#Punkt"  width="4.536" height="4.537" x="-2.268" y="-2.269" transform="matrix(1 0 0 -1 108.9805 32.3521)" style="overflow:visible;"/>
	
		<use xlink:href="#Punkt"  width="4.536" height="4.537" x="-2.268" y="-2.269" transform="matrix(1 0 0 -1 75.0288 43.0039)" style="overflow:visible;"/>
	
		<use xlink:href="#Punkt"  width="4.536" height="4.537" x="-2.268" y="-2.269" transform="matrix(1 0 0 -1 38.7559 91.3301)" style="overflow:visible;"/>
	
		<use xlink:href="#Punkt"  width="4.536" height="4.537" x="-2.268" y="-2.269" transform="matrix(1 0 0 -1 168.4648 51.1289)" style="overflow:visible;"/>
	<g id="Legende">
		
			<use xlink:href="#Node"  width="5.105" height="5.103" x="-2.553" y="-2.551" transform="matrix(1 0 0 -1 135.9824 95.6006)" style="overflow:visible;"/>
		
			<use xlink:href="#Punkt"  width="4.536" height="4.537" x="-2.268" y="-2.269" transform="matrix(1 0 0 -1 135.9824 105.4209)" style="overflow:visible;"/>
		<text transform="matrix(1 0 0 1 143.4629 98.1328)"><tspan x="0" y="0" style="font-family:'CisalpinLTStd-Regular'; font-size:8;">OSM-</tspan><tspan x="20.863" y="0" style="font-family:'CisalpinLTStd-Italic'; font-size:8;">node</tspan><tspan x="0" y="9.6" style="font-family:'CisalpinLTStd-Regular'; font-size:8;">S</tspan><tspan x="4.137" y="9.6" style="font-family:'CisalpinLTStd-Bold'; font-size:5.6;">PLITTEN</tspan><tspan x="25.83" y="9.6" style="font-family:'CisalpinLTStd-Regular'; font-size:8;">-Punkt</tspan></text>
	</g>
	
		<text transform="matrix(0.2451 0.8046 -0.9566 0.2915 16.4854 101.9922)" style="font-family:'CisalpinLTStd-Regular'; font-size:11;">}</text>
	<g>
		<text transform="matrix(1 0 0 1 24.3262 107.7246)"><tspan x="0" y="0" style="fill:none;stroke:#FFFFFF;stroke-width:0.5669;stroke-linecap:round;stroke-linejoin:round; font-family:'CisalpinLTStd-Regular'; font-size:8;">&lt; </tspan><tspan x="5.952" y="0" style="fill:none;stroke:#FFFFFF;stroke-width:0.5669;stroke-linecap:round;stroke-linejoin:round; font-family:'CisalpinLTStd-BoldItalic'; font-size:8;">µ</tspan><tspan x="10.688" y="0" style="fill:none;stroke:#FFFFFF;stroke-width:0.5669;stroke-linecap:round;stroke-linejoin:round; font-family:'CisalpinLTStd-Regular'; font-size:8;">  </tspan><tspan x="14.655" y="0" style="fill:none;stroke:#FFFFFF;stroke-width:0.5669;stroke-linecap:round;stroke-linejoin:round; font-family:'CisalpinLTStd-Regular'; font-size:8; letter-spacing:-2;">=</tspan><tspan x="16.304" y="0" style="fill:none;stroke:#FFFFFF;stroke-width:0.5669;stroke-linecap:round;stroke-linejoin:round; font-family:'CisalpinLTStd-Regular'; font-size:8;">&gt;  kein Fußpunkt</tspan></text>
		<text transform="matrix(1 0 0 1 24.3262 107.7246)"><tspan x="0" y="0" style="font-family:'CisalpinLTStd-Regular'; font-size:8;">&lt; </tspan><tspan x="5.952" y="0" style="font-family:'CisalpinLTStd-BoldItalic'; font-size:8;">µ</tspan><tspan x="10.688" y="0" style="font-family:'CisalpinLTStd-Regular'; font-size:8;">  </tspan><tspan x="14.655" y="0" style="font-family:'CisalpinLTStd-Regular'; font-size:8; letter-spacing:-2;">=</tspan><tspan x="16.304" y="0" style="font-family:'CisalpinLTStd-Regular'; font-size:8;">&gt;  kein Fußpunkt</tspan></text>
	</g>
	<g>
		
			<text transform="matrix(0.9554 -0.2954 0.2954 0.9554 26.374 92.5625)" style="fill:none;stroke:#FFFFFF;stroke-width:0.5669;stroke-linecap:round;stroke-linejoin:round; font-family:'CisalpinLTStd-BoldItalic'; font-size:8;">t</text>
		
			<text transform="matrix(0.9554 -0.2954 0.2954 0.9554 26.374 92.5625)" style="fill:#2277CC; font-family:'CisalpinLTStd-BoldItalic'; font-size:8;">t</text>
	</g>
	<g>
		
			<text transform="matrix(1 0 0 1 5.7061 59.2676)" style="fill:none;stroke:#FFFFFF;stroke-width:0.5669;stroke-linecap:round;stroke-linejoin:round; font-family:'CisalpinLTStd-BoldItalic'; font-size:8;">n</text>
		<text transform="matrix(1 0 0 1 5.7061 59.2676)" style="font-family:'CisalpinLTStd-BoldItalic'; font-size:8;">n</text>
	</g>
</g>
</svg>
