<?xml version="1.0" encoding="utf-8"?>
<!-- Generator: Adobe Illustrator 16.0.4, SVG Export Plug-In . SVG Version: 6.00 Build 0)  -->
<!DOCTYPE svg PUBLIC "-//W3C//DTD SVG 1.1//EN" "http://www.w3.org/Graphics/SVG/1.1/DTD/svg11.dtd">
<svg version="1.1" xmlns="http://www.w3.org/2000/svg" xmlns:xlink="http://www.w3.org/1999/xlink" x="0px" y="0px"
	 width="198.43px" height="113.39px" viewBox="0 0 198.43 113.39" style="enable-background:new 0 0 198.43 113.39;"
	 xml:space="preserve">
<symbol  id="Node" viewBox="-2.553 -2.551 5.105 5.103">
	<g>
		<path style="fill:#FFFFFF;" d="M1.985,0c0-1.095-0.889-1.984-1.985-1.984S-1.985-1.095-1.985,0S-1.097,1.984,0,1.984
			S1.985,1.095,1.985,0z"/>
		<path d="M0,1.984c1.097,0,1.985-0.89,1.985-1.984S1.097-1.984,0-1.984S-1.985-1.095-1.985,0S-1.097,1.984,0,1.984 M0,2.551
			c-1.407,0-2.553-1.145-2.553-2.551S-1.407-2.551,0-2.551S2.553-1.407,2.553,0S1.407,2.551,0,2.551L0,2.551z"/>
	</g>
	<g>
		<path d="M0.992,0c0-0.548-0.444-0.992-0.992-0.992S-0.992-0.548-0.992,0S-0.548,0.992,0,0.992S0.992,0.548,0.992,0z"/>
	</g>
</symbol>
<g id="Canvas">
	<rect style="fill:#EBEBEB;stroke:#FFFFFF;stroke-width:0.8504;stroke-miterlimit:10;" width="198.425" height="113.386"/>
</g>
<g id="Layer_1">
	<g>
		<g>
			
				<line style="fill:none;stroke:#2277CC;stroke-width:1.1339;stroke-linejoin:round;" x1="150.85" y1="56.583" x2="180.857" y2="47.283"/>
			<g>
				<path style="fill:#2277CC;" d="M184.126,46.27c-1.361,1.047-2.967,2.612-3.83,4.01l0.133-2.864l-1.729-2.286
					C180.202,45.794,182.411,46.176,184.126,46.27z"/>
			</g>
		</g>
	</g>
	<g>
		<g>
			
				<line style="fill:none;stroke:#2277CC;stroke-width:1.1339;stroke-linejoin:round;" x1="119.503" y1="66.3" x2="145.271" y2="58.312"/>
			<g>
				<path style="fill:#2277CC;" d="M148.539,57.3c-1.361,1.047-2.967,2.612-3.83,4.01l0.133-2.864l-1.729-2.286
					C144.615,56.824,146.824,57.207,148.539,57.3z"/>
			</g>
		</g>
	</g>
	<g>
		<g>
			
				<line style="fill:none;stroke:#2277CC;stroke-width:1.1339;stroke-linejoin:round;" x1="85.502" y1="76.839" x2="113.855" y2="68.05"/>
			<g>
				<path style="fill:#2277CC;" d="M117.124,67.037c-1.361,1.047-2.967,2.612-3.83,4.01l0.133-2.864l-1.729-2.286
					C113.2,66.562,115.409,66.943,117.124,67.037z"/>
			</g>
		</g>
	</g>
	<g>
		<g>
			
				<line style="fill:none;stroke:#2277CC;stroke-width:1.1339;stroke-linejoin:round;" x1="13.324" y1="99.211" x2="79.814" y2="78.602"/>
			<g>
				<path style="fill:#2277CC;" d="M83.083,77.589c-1.361,1.047-2.967,2.612-3.83,4.01l0.133-2.864l-1.73-2.286
					C79.158,77.113,81.368,77.495,83.083,77.589z"/>
			</g>
		</g>
	</g>
	<g>
		<g>
			
				<line style="fill:none;stroke:#2277CC;stroke-width:1.1339;stroke-linejoin:round;" x1="28.318" y1="57.655" x2="19.012" y2="60.574"/>
			<g>
				<path style="fill:#2277CC;" d="M15.748,61.599c1.357-1.052,2.958-2.622,3.816-4.023L19.44,60.44l1.738,2.279
					C19.673,62.061,17.462,61.687,15.748,61.599z"/>
			</g>
		</g>
	</g>
	<g>
		<g>
			
				<line style="fill:none;stroke:#2277CC;stroke-width:1.1339;stroke-linejoin:round;" x1="157.896" y1="17.001" x2="33.995" y2="55.873"/>
			<g>
				<path style="fill:#2277CC;" d="M30.73,56.897c1.357-1.052,2.958-2.623,3.816-4.023l-0.124,2.864l1.738,2.28
					C34.656,57.359,32.445,56.985,30.73,56.897z"/>
			</g>
		</g>
	</g>
	<g>
		<g>
			
				<line style="fill:none;stroke:#000000;stroke-width:0.5669;stroke-linejoin:round;stroke-dasharray:2.0976,2.0976;" x1="159.225" y1="21.312" x2="167.349" y2="47.524"/>
			<g>
				<path d="M168.058,49.812c-0.733-0.953-1.828-2.077-2.807-2.681l2.005,0.093l1.6-1.211
					C168.391,47.065,168.123,48.612,168.058,49.812z"/>
			</g>
		</g>
	</g>
	<g>
		<g>
			
				<line style="fill:none;stroke:#000000;stroke-width:0.5669;stroke-linejoin:round;stroke-dasharray:2.0976,2.0976;" x1="149.524" y1="52.314" x2="141.401" y2="26.103"/>
			<g>
				<path d="M140.692,23.815c0.733,0.953,1.828,2.077,2.807,2.681l-2.005-0.093l-1.6,1.21
					C140.359,26.562,140.627,25.015,140.692,23.815z"/>
			</g>
		</g>
	</g>
	<g>
		<g>
			
				<line style="fill:none;stroke:#000000;stroke-width:0.5669;stroke-linejoin:round;stroke-dasharray:2.0976,2.0976;" x1="118.195" y1="62.084" x2="110.071" y2="35.872"/>
			<g>
				<path d="M109.362,33.584c0.733,0.953,1.828,2.077,2.807,2.681l-2.005-0.093l-1.6,1.211
					C109.029,36.332,109.297,34.785,109.362,33.584z"/>
			</g>
		</g>
	</g>
	<g>
		<g>
			
				<line style="fill:none;stroke:#000000;stroke-width:0.5669;stroke-linejoin:round;stroke-dasharray:2.0976,2.0976;" x1="84.226" y1="72.678" x2="76.102" y2="46.466"/>
			<g>
				<path d="M75.393,44.178c0.733,0.953,1.829,2.077,2.807,2.681l-2.005-0.093l-1.601,1.211
					C75.06,46.925,75.327,45.378,75.393,44.178z"/>
			</g>
		</g>
	</g>
	<g>
		<g>
			
				<line style="fill:none;stroke:#000000;stroke-width:0.5669;stroke-linejoin:round;stroke-dasharray:2.0976,2.0976;" x1="29.584" y1="61.738" x2="37.708" y2="87.95"/>
			<g>
				<path d="M38.417,90.238c-0.733-0.953-1.829-2.077-2.807-2.682l2.005,0.094l1.601-1.211
					C38.75,87.491,38.483,89.038,38.417,90.238z"/>
			</g>
		</g>
	</g>
	<g>
		<g>
			
				<line style="fill:none;stroke:#000000;stroke-width:0.5669;stroke-linejoin:round;stroke-dasharray:2.0976,2.0976;" x1="14.581" y1="66.417" x2="22.705" y2="92.629"/>
			<g>
				<path d="M23.414,94.917c-0.733-0.953-1.829-2.077-2.807-2.682l2.005,0.094l1.601-1.211
					C23.747,92.17,23.479,93.717,23.414,94.917z"/>
			</g>
		</g>
	</g>
	
		<use xlink:href="#Node"  width="5.105" height="5.103" x="-2.553" y="-2.551" transform="matrix(1 0 0 -1 13.3242 99.2129)" style="overflow:visible;"/>
	
		<use xlink:href="#Node"  width="5.105" height="5.103" x="-2.553" y="-2.551" transform="matrix(1 0 0 -1 186.498 45.54)" style="overflow:visible;"/>
	
		<use xlink:href="#Node"  width="5.105" height="5.103" x="-2.553" y="-2.551" transform="matrix(1 0 0 -1 13.3242 62.3623)" style="overflow:visible;"/>
	
		<use xlink:href="#Node"  width="5.105" height="5.103" id="XMLID_1_" x="-2.553" y="-2.551" transform="matrix(1 0 0 -1 157.8896 17.0078)" style="overflow:visible;"/>
	
		<use xlink:href="#Node"  width="5.105" height="5.103" x="-2.553" y="-2.551" transform="matrix(1 0 0 -1 150.8496 56.5889)" style="overflow:visible;"/>
	
		<use xlink:href="#Node"  width="5.105" height="5.103" x="-2.553" y="-2.551" transform="matrix(1 0 0 -1 85.5151 76.8389)" style="overflow:visible;"/>
	
		<use xlink:href="#Node"  width="5.105" height="5.103" x="-2.553" y="-2.551" transform="matrix(1 0 0 -1 119.5029 66.3047)" style="overflow:visible;"/>
	
		<use xlink:href="#Node"  width="5.105" height="5.103" x="-2.553" y="-2.551" transform="matrix(1 0 0 -1 28.3193 57.6577)" style="overflow:visible;"/>
	<g id="Legende">
		
			<use xlink:href="#Node"  width="5.105" height="5.103" x="-2.553" y="-2.551" transform="matrix(1 0 0 -1 146.7383 105.1934)" style="overflow:visible;"/>
		<g>
			<g>
				
					<line style="fill:none;stroke:#000000;stroke-width:0.5669;stroke-linejoin:round;stroke-dasharray:1.7008,1.7008;" x1="143.085" y1="95.746" x2="148.484" y2="95.746"/>
				<g>
					<path d="M150.88,95.746c-1.127,0.418-2.525,1.132-3.392,1.888l0.683-1.888l-0.683-1.887
						C148.354,94.615,149.753,95.328,150.88,95.746z"/>
				</g>
			</g>
		</g>
		<text transform="matrix(1 0 0 1 154.2188 98.1328)"><tspan x="0" y="0" style="font-family:'CisalpinLTStd-Regular'; font-size:8;">Lotfällung</tspan><tspan x="0" y="9.6" style="font-family:'CisalpinLTStd-Regular'; font-size:8;">OSM-</tspan><tspan x="20.863" y="9.6" style="font-family:'CisalpinLTStd-Italic'; font-size:8;">node</tspan></text>
	</g>
</g>
</svg>
