<?xml version="1.0" encoding="utf-8"?>
<!-- Generator: Adobe Illustrator 16.0.4, SVG Export Plug-In . SVG Version: 6.00 Build 0)  -->
<!DOCTYPE svg PUBLIC "-//W3C//DTD SVG 1.1//EN" "http://www.w3.org/Graphics/SVG/1.1/DTD/svg11.dtd">
<svg version="1.1" id="Layer_2" xmlns="http://www.w3.org/2000/svg" xmlns:xlink="http://www.w3.org/1999/xlink" x="0px" y="0px"
	 width="198.43px" height="113.39px" viewBox="0 0 198.43 113.39" style="enable-background:new 0 0 198.43 113.39;"
	 xml:space="preserve">
<g>
	<defs>
		<rect id="SVGID_1_" width="198.425" height="113.386"/>
	</defs>
	<clipPath id="SVGID_2_">
		<use xlink:href="#SVGID_1_"  style="overflow:visible;"/>
	</clipPath>
	
		<rect x="-1.415" y="-1.416" style="clip-path:url(#SVGID_2_);fill:#F7F7F7;stroke:#FFFFFF;stroke-width:0.8504;stroke-miterlimit:10;" width="201.26" height="116.22"/>
</g>
<g>
	<circle cx="125.882" cy="51.049" r="0.851"/>
	<circle cx="109.189" cy="55.083" r="0.851"/>
	<circle cx="88.603" cy="57.031" r="0.851"/>
	<circle cx="42.42" cy="60.185" r="0.851"/>
	<circle cx="3.75" cy="82.904" r="0.851"/>
	<circle cx="189.312" cy="18.917" r="0.851"/>
	<polyline style="fill:none;stroke:#000000;stroke-width:0.5669;stroke-miterlimit:10;" points="3.75,82.904 42.42,60.185 
		88.603,57.031 109.189,55.083 125.882,51.049 189.312,18.917 	"/>
</g>
<polyline style="fill:none;stroke:#FF0000;stroke-width:0.5669;stroke-linejoin:round;stroke-miterlimit:10;" points="
	109.533,67.014 100.093,68.058 71.994,69.17 53.725,70.262 41.123,75.088 10.674,93.08 "/>
<polyline style="fill:none;stroke:#FF0000;stroke-width:0.5669;stroke-linejoin:round;stroke-miterlimit:10;" points="
	147.912,53.479 129.942,62.666 111.229,66.723 "/>
<polyline style="fill:none;stroke:#FF0000;stroke-width:0.5669;stroke-linejoin:round;stroke-miterlimit:10;" points="
	194.605,29.427 173.74,40.277 149.328,52.755 "/>
<path style="fill:none;stroke:#FF0000;stroke-width:0.5669;stroke-miterlimit:10;" d="M171.792,36.498"/>
<g>
	<circle cx="40.195" cy="73.167" r="0.851"/>
	<circle cx="53.271" cy="68.159" r="0.851"/>
	<circle cx="9.592" cy="91.25" r="0.851"/>
	<circle cx="100.009" cy="65.934" r="0.851"/>
	<circle cx="110.024" cy="64.82" r="0.851"/>
	<circle cx="129.221" cy="60.647" r="0.851"/>
	<circle cx="147.721" cy="51.188" r="0.851"/>
	<circle cx="172.76" cy="38.391" r="0.851"/>
	<circle cx="193.625" cy="27.541" r="0.851"/>
	<circle cx="71.91" cy="67.046" r="0.851"/>
	<polyline style="fill:none;stroke:#000000;stroke-width:0.5669;stroke-miterlimit:10;" points="9.592,91.25 40.195,73.167 
		53.271,68.159 71.91,67.046 100.009,65.934 110.024,64.82 129.221,60.647 147.721,51.188 172.76,38.391 193.625,27.541 	"/>
</g>
<text transform="matrix(1 0 0 1 42.583 88.416)"><tspan x="0" y="0" style="fill:#FF0000; font-family:'Helvetica-Oblique'; font-size:6;">way</tspan><tspan x="0" y="7.2" style="fill:#FF0000; font-family:'Helvetica'; font-size:6;">3 Fahrstreifen</tspan><tspan x="0" y="14.4" style="fill:#FF0000; font-family:'Helvetica'; font-size:6;">Beton</tspan></text>
<text transform="matrix(1 0 0 1 111 80.501)"><tspan x="0" y="0" style="fill:#FF0000; font-family:'Helvetica-Oblique'; font-size:6;">way</tspan><tspan x="0" y="7.2" style="fill:#FF0000; font-family:'Helvetica'; font-size:6;">3 Fahrstreifen</tspan><tspan x="0" y="14.4" style="fill:#FF0000; font-family:'Helvetica'; font-size:6;">Asphalt</tspan></text>
<text transform="matrix(1 0 0 1 154.334 66.582)"><tspan x="0" y="0" style="fill:#FF0000; font-family:'Helvetica-Oblique'; font-size:6;">way</tspan><tspan x="0" y="7.2" style="fill:#FF0000; font-family:'Helvetica'; font-size:6;">2 Fahrstreifen</tspan><tspan x="0" y="14.4" style="fill:#FF0000; font-family:'Helvetica'; font-size:6;">Asphalt</tspan></text>
<text transform="matrix(1 0 0 1 17.9175 38.916)"><tspan x="0" y="0" style="fill:#0000FF; font-family:'Helvetica-Oblique'; font-size:6;">way</tspan><tspan x="0" y="7.2" style="fill:#0000FF; font-family:'Helvetica'; font-size:6;">2 Fahrstreifen</tspan><tspan x="0" y="14.4" style="fill:#0000FF; font-family:'Helvetica'; font-size:6;">Beton</tspan></text>
<text transform="matrix(1 0 0 1 83 27.2495)"><tspan x="0" y="0" style="fill:#0000FF; font-family:'Helvetica-Oblique'; font-size:6;">way</tspan><tspan x="0" y="7.2" style="fill:#0000FF; font-family:'Helvetica'; font-size:6;">3 Fahrstreifen</tspan><tspan x="0" y="14.4" style="fill:#0000FF; font-family:'Helvetica'; font-size:6;">Beton</tspan></text>
<text transform="matrix(1 0 0 1 127.332 11)"><tspan x="0" y="0" style="fill:#0000FF; font-family:'Helvetica-Oblique'; font-size:6;">way</tspan><tspan x="0" y="7.2" style="fill:#0000FF; font-family:'Helvetica'; font-size:6;">3 Fahrstreifen</tspan><tspan x="0" y="14.4" style="fill:#0000FF; font-family:'Helvetica'; font-size:6;">Asphalt</tspan></text>
<polyline style="fill:none;stroke:#0000FF;stroke-width:0.5669;stroke-linejoin:round;stroke-miterlimit:10;" points="
	109.531,52.814 125.142,49.041 188.352,17.02 "/>
<line style="fill:none;stroke:#0000FF;stroke-width:0.5669;stroke-linejoin:round;stroke-miterlimit:10;" x1="89.156" y1="54.844" x2="108.026" y2="53.059"/>
<polyline style="fill:none;stroke:#0000FF;stroke-width:0.5669;stroke-linejoin:round;stroke-miterlimit:10;" points="2.673,81.071 
	41.775,58.098 87.562,54.971 "/>
<line style="fill:none;stroke:#0000FF;stroke-width:0.5669;stroke-miterlimit:10;" x1="40.598" y1="58.723" x2="37.06" y2="48.891"/>
<line style="fill:none;stroke:#0000FF;stroke-width:0.5669;stroke-miterlimit:10;" x1="98.293" y1="53.916" x2="94.593" y2="43.273"/>
<line style="fill:none;stroke:#0000FF;stroke-width:0.5669;stroke-miterlimit:10;" x1="150.729" y1="36.021" x2="147.542" y2="27.062"/>
<line style="fill:none;stroke:#FF0000;stroke-width:0.5669;stroke-linejoin:round;stroke-miterlimit:10;" x1="171.126" y1="41.542" x2="165.043" y2="60.708"/>
<line style="fill:none;stroke:#FF0000;stroke-width:0.5669;stroke-linejoin:round;stroke-miterlimit:10;" x1="128.543" y1="62.958" x2="122.751" y2="75.249"/>
<line style="fill:none;stroke:#FF0000;stroke-width:0.5669;stroke-linejoin:round;stroke-miterlimit:10;" x1="51.458" y1="71.083" x2="49.083" y2="83.292"/>
</svg>
