<?xml version="1.0" encoding="utf-8"?>
<!-- Generator: Adobe Illustrator 16.0.4, SVG Export Plug-In . SVG Version: 6.00 Build 0)  -->
<!DOCTYPE svg PUBLIC "-//W3C//DTD SVG 1.1//EN" "http://www.w3.org/Graphics/SVG/1.1/DTD/svg11.dtd">
<svg version="1.1" xmlns="http://www.w3.org/2000/svg" xmlns:xlink="http://www.w3.org/1999/xlink" x="0px" y="0px"
	 width="198.43px" height="113.39px" viewBox="0 0 198.43 113.39" style="enable-background:new 0 0 198.43 113.39;"
	 xml:space="preserve">
<symbol  id="Node" viewBox="-2.553 -2.551 5.105 5.103">
	<g>
		<path style="fill:#FFFFFF;" d="M1.985,0c0-1.095-0.889-1.984-1.985-1.984S-1.985-1.095-1.985,0S-1.097,1.984,0,1.984
			S1.985,1.095,1.985,0z"/>
		<path d="M0,1.984c1.097,0,1.985-0.89,1.985-1.984S1.097-1.984,0-1.984S-1.985-1.095-1.985,0S-1.097,1.984,0,1.984 M0,2.551
			c-1.407,0-2.553-1.145-2.553-2.551S-1.407-2.551,0-2.551S2.553-1.407,2.553,0S1.407,2.551,0,2.551L0,2.551z"/>
	</g>
	<g>
		<path d="M0.992,0c0-0.548-0.444-0.992-0.992-0.992S-0.992-0.548-0.992,0S-0.548,0.992,0,0.992S0.992,0.548,0.992,0z"/>
	</g>
</symbol>
<g id="Canvas">
	<rect style="fill:#EBEBEB;stroke:#FFFFFF;stroke-width:0.8504;stroke-miterlimit:10;" width="198.425" height="113.386"/>
</g>
<g id="Layer_1">
	
		<line style="fill:none;stroke:#2277CC;stroke-width:1.1339;stroke-linejoin:round;" x1="14.173" y1="62.362" x2="158.74" y2="17.008"/>
	
		<line style="fill:none;stroke:#2277CC;stroke-width:1.1339;stroke-linejoin:round;" x1="14.173" y1="99.213" x2="184.252" y2="46.5"/>
	
		<use xlink:href="#Node"  width="5.105" height="5.103" x="-2.553" y="-2.551" transform="matrix(1 0 0 -1 14.1733 99.2129)" style="overflow:visible;"/>
	
		<use xlink:href="#Node"  width="5.105" height="5.103" x="-2.553" y="-2.551" transform="matrix(1 0 0 -1 184.252 46.5)" style="overflow:visible;"/>
	
		<use xlink:href="#Node"  width="5.105" height="5.103" x="-2.553" y="-2.551" transform="matrix(1 0 0 -1 14.1733 62.3623)" style="overflow:visible;"/>
	
		<use xlink:href="#Node"  width="5.105" height="5.103" id="XMLID_1_" x="-2.553" y="-2.551" transform="matrix(1 0 0 -1 158.7402 17.0078)" style="overflow:visible;"/>
	
		<use xlink:href="#Node"  width="5.105" height="5.103" x="-2.553" y="-2.551" transform="matrix(1 0 0 -1 151.7002 56.5889)" style="overflow:visible;"/>
	
		<use xlink:href="#Node"  width="5.105" height="5.103" x="-2.553" y="-2.551" transform="matrix(1 0 0 -1 86.3643 76.8389)" style="overflow:visible;"/>
	
		<use xlink:href="#Node"  width="5.105" height="5.103" x="-2.553" y="-2.551" transform="matrix(1 0 0 -1 120.3535 66.3047)" style="overflow:visible;"/>
	<g>
		<g>
			
				<line style="fill:none;stroke:#000000;stroke-width:0.5669;stroke-linejoin:round;" x1="81.827" y1="75.929" x2="20.692" y2="63.669"/>
			<g>
				<path d="M18.344,63.198c1.187-0.188,2.698-0.613,3.697-1.184L21,63.73l0.298,1.984C20.597,64.804,19.367,63.829,18.344,63.198z"
					/>
			</g>
		</g>
	</g>
	<g>
		<g>
			
				<line style="fill:none;stroke:#000000;stroke-width:0.5669;stroke-linejoin:round;" x1="123.066" y1="62.82" x2="154.645" y2="22.267"/>
			<g>
				<path d="M156.116,20.377c-0.362,1.146-0.658,2.688-0.595,3.836l-1.07-1.698l-1.908-0.621
					C153.672,21.675,155.094,21.01,156.116,20.377z"/>
			</g>
		</g>
	</g>
	
		<line style="display:none;fill:none;stroke:#000000;stroke-width:0.5669;stroke-linejoin:round;" x1="152.458" y1="52.326" x2="158.74" y2="17.008"/>
	<g>
		<g>
			
				<line style="fill:none;stroke:#000000;stroke-width:0.5669;stroke-linejoin:round;" x1="151.503" y1="49.705" x2="155.715" y2="26.027"/>
			<g>
				<path d="M151.084,52.063c0.609-1.036,1.557-2.288,2.452-3.009l-1.978,0.342l-1.738-1.002
					C150.412,49.378,150.87,50.88,151.084,52.063z"/>
			</g>
		</g>
	</g>
	<g>
		<g>
			
				<line style="fill:none;stroke:#000000;stroke-width:0.5669;stroke-linejoin:round;" x1="153.863" y1="52.575" x2="159.094" y2="23.173"/>
			<g>
				<path d="M159.513,20.815c0.214,1.183,0.672,2.685,1.265,3.67l-1.739-1.002l-1.978,0.342
					C157.957,23.103,158.904,21.852,159.513,20.815z"/>
			</g>
		</g>
	</g>
	
		<line style="display:none;fill:none;stroke:#000000;stroke-width:0.5669;stroke-linejoin:round;" x1="14.173" y1="95" x2="14.173" y2="66.666"/>
	<g>
		<g>
			<line style="fill:none;stroke:#000000;stroke-width:0.5669;stroke-linejoin:round;" x1="15.59" y1="95" x2="15.59" y2="69.062"/>
			<g>
				<path d="M15.59,66.666c0.418,1.127,1.132,2.525,1.887,3.392l-1.887-0.683l-1.887,0.683
					C14.459,69.191,15.172,67.793,15.59,66.666z"/>
			</g>
		</g>
	</g>
	<g>
		<g>
			
				<line style="fill:none;stroke:#000000;stroke-width:0.5669;stroke-linejoin:round;" x1="12.756" y1="92.604" x2="12.756" y2="66.666"/>
			<g>
				<path d="M12.756,95c0.418-1.127,1.132-2.525,1.887-3.392l-1.887,0.683l-1.887-0.683C11.625,92.475,12.338,93.873,12.756,95z"/>
			</g>
		</g>
	</g>
	<g>
		<g>
			
				<line style="fill:none;stroke:#000000;stroke-width:0.5669;stroke-linejoin:round;" x1="181.276" y1="43.06" x2="162.975" y2="21.903"/>
			<g>
				<path d="M161.408,20.091c1.054,0.579,2.508,1.169,3.646,1.331l-1.874,0.719l-0.98,1.75
					C162.205,22.741,161.829,21.217,161.408,20.091z"/>
			</g>
		</g>
	</g>
	<path style="fill:none;stroke:#000000;stroke-width:0.5669;stroke-linejoin:round;" d="M158.74,17.008"/>
</g>
<g id="Layer_2" style="display:none;">
</g>
</svg>
