<?xml version="1.0" encoding="utf-8"?>
<!-- Generator: Adobe Illustrator 16.0.4, SVG Export Plug-In . SVG Version: 6.00 Build 0)  -->
<!DOCTYPE svg PUBLIC "-//W3C//DTD SVG 1.1//EN" "http://www.w3.org/Graphics/SVG/1.1/DTD/svg11.dtd">
<svg version="1.1" xmlns="http://www.w3.org/2000/svg" xmlns:xlink="http://www.w3.org/1999/xlink" x="0px" y="0px"
	 width="198.43px" height="113.39px" viewBox="0 0 198.43 113.39" style="enable-background:new 0 0 198.43 113.39;"
	 xml:space="preserve">
<symbol  id="Node" viewBox="-2.553 -2.551 5.105 5.103">
	<g>
		<path style="fill:#FFFFFF;" d="M1.985,0c0-1.095-0.889-1.984-1.985-1.984S-1.985-1.095-1.985,0S-1.097,1.984,0,1.984
			S1.985,1.095,1.985,0z"/>
		<path d="M0,1.984c1.097,0,1.985-0.89,1.985-1.984S1.097-1.984,0-1.984S-1.985-1.095-1.985,0S-1.097,1.984,0,1.984 M0,2.551
			c-1.407,0-2.553-1.145-2.553-2.551S-1.407-2.551,0-2.551S2.553-1.407,2.553,0S1.407,2.551,0,2.551L0,2.551z"/>
	</g>
	<g>
		<path d="M0.992,0c0-0.548-0.444-0.992-0.992-0.992S-0.992-0.548-0.992,0S-0.548,0.992,0,0.992S0.992,0.548,0.992,0z"/>
	</g>
</symbol>
<g id="Canvas">
	<rect style="fill:#EBEBEB;stroke:#FFFFFF;stroke-width:0.8504;stroke-miterlimit:10;" width="198.425" height="113.386"/>
</g>
<g id="Layer_1">
	
		<line style="fill:none;stroke:#2277CC;stroke-width:1.1339;stroke-linejoin:round;" x1="13.324" y1="62.362" x2="157.89" y2="17.008"/>
	
		<line style="fill:none;stroke:#2277CC;stroke-width:1.1339;stroke-linejoin:round;" x1="13.324" y1="99.213" x2="186.498" y2="45.54"/>
	
		<use xlink:href="#Node"  width="5.105" height="5.103" x="-2.553" y="-2.551" transform="matrix(1 0 0 -1 13.3242 99.2129)" style="overflow:visible;"/>
	
		<use xlink:href="#Node"  width="5.105" height="5.103" x="-2.553" y="-2.551" transform="matrix(1 0 0 -1 186.498 45.54)" style="overflow:visible;"/>
	
		<use xlink:href="#Node"  width="5.105" height="5.103" x="-2.553" y="-2.551" transform="matrix(1 0 0 -1 13.3242 62.3623)" style="overflow:visible;"/>
	
		<use xlink:href="#Node"  width="5.105" height="5.103" id="XMLID_1_" x="-2.553" y="-2.551" transform="matrix(1 0 0 -1 157.8896 17.0078)" style="overflow:visible;"/>
	
		<use xlink:href="#Node"  width="5.105" height="5.103" x="-2.553" y="-2.551" transform="matrix(1 0 0 -1 150.8496 56.5889)" style="overflow:visible;"/>
	
		<use xlink:href="#Node"  width="5.105" height="5.103" x="-2.553" y="-2.551" transform="matrix(1 0 0 -1 85.5151 76.8389)" style="overflow:visible;"/>
	
		<use xlink:href="#Node"  width="5.105" height="5.103" x="-2.553" y="-2.551" transform="matrix(1 0 0 -1 119.5029 66.3047)" style="overflow:visible;"/>
	
		<use xlink:href="#Node"  width="5.105" height="5.103" x="-2.553" y="-2.551" transform="matrix(1 0 0 -1 28.3193 57.6577)" style="overflow:visible;"/>
	<g>
		<g>
			
				<line style="fill:none;stroke:#000000;stroke-width:0.5669;stroke-linejoin:round;" x1="81.569" y1="75.52" x2="34.605" y2="59.811"/>
			<g>
				<path d="M32.334,59.051c1.202-0.039,2.754-0.272,3.815-0.714l-1.246,1.573l0.049,2.006C34.37,60.925,33.27,59.805,32.334,59.051
					z"/>
			</g>
		</g>
	</g>
	<g>
		<g>
			
				<line style="fill:none;stroke:#000000;stroke-width:0.5669;stroke-linejoin:round;" x1="122.216" y1="62.82" x2="153.794" y2="22.267"/>
			<g>
				<path d="M155.266,20.377c-0.362,1.146-0.658,2.688-0.595,3.836l-1.07-1.698l-1.908-0.621
					C152.821,21.675,154.243,21.01,155.266,20.377z"/>
			</g>
		</g>
	</g>
	<g>
		<g>
			
				<line style="fill:none;stroke:#000000;stroke-width:0.5669;stroke-linejoin:round;" x1="150.652" y1="49.705" x2="154.864" y2="26.027"/>
			<g>
				<path d="M150.233,52.063c0.609-1.036,1.557-2.288,2.452-3.009l-1.978,0.342l-1.738-1.002
					C149.562,49.378,150.02,50.88,150.233,52.063z"/>
			</g>
		</g>
	</g>
	<g>
		<g>
			
				<line style="fill:none;stroke:#000000;stroke-width:0.5669;stroke-linejoin:round;" x1="153.013" y1="52.575" x2="158.242" y2="23.173"/>
			<g>
				<path d="M158.662,20.815c0.214,1.183,0.672,2.685,1.264,3.67l-1.738-1.002l-1.978,0.342
					C157.106,23.103,158.054,21.852,158.662,20.815z"/>
			</g>
		</g>
	</g>
	<g>
		<g>
			
				<line style="fill:none;stroke:#000000;stroke-width:0.5669;stroke-linejoin:round;" x1="14.741" y1="88.25" x2="14.741" y2="69.062"/>
			<g>
				<path d="M14.741,66.666c0.418,1.127,1.132,2.525,1.887,3.392l-1.887-0.683l-1.887,0.683
					C13.61,69.191,14.323,67.793,14.741,66.666z"/>
			</g>
		</g>
	</g>
	<g>
		<g>
			
				<line style="fill:none;stroke:#000000;stroke-width:0.5669;stroke-linejoin:round;" x1="11.907" y1="92.604" x2="11.907" y2="66.666"/>
			<g>
				<path d="M11.907,95c0.418-1.127,1.132-2.525,1.887-3.392l-1.887,0.683l-1.887-0.683C10.775,92.475,11.489,93.873,11.907,95z"/>
			</g>
		</g>
	</g>
	<g>
		<g>
			
				<line style="fill:none;stroke:#000000;stroke-width:0.5669;stroke-linejoin:round;" x1="183.656" y1="42.751" x2="162.268" y2="21.769"/>
			<g>
				<path d="M160.558,20.091c1.098,0.491,2.595,0.96,3.743,1.028l-1.81,0.869l-0.834,1.825
					C161.568,22.667,161.069,21.179,160.558,20.091z"/>
			</g>
		</g>
	</g>
	<g>
		<g>
			
				<line style="fill:none;stroke:#000000;stroke-width:0.5669;stroke-linejoin:round;" x1="15.973" y1="91.872" x2="26.873" y2="61.667"/>
			<g>
				<path d="M15.16,94.125c0.776-0.918,1.921-1.991,2.927-2.55l-2.007,0.001l-1.543-1.282C14.953,91.365,15.15,92.923,15.16,94.125z
					"/>
			</g>
		</g>
	</g>
</g>
</svg>
