<?xml version="1.0" encoding="UTF-8" standalone="no"?>
<svg width="69.9347mm" height="39.9627mm"
 viewBox="0 0 826 472"
 xmlns="http://www.w3.org/2000/svg" xmlns:xlink="http://www.w3.org/1999/xlink"  version="1.2" baseProfile="tiny">
<desc>Generated with Qt</desc>
<defs>
</defs>
<g fill="none" stroke="black" stroke-width="1" fill-rule="evenodd" stroke-linecap="square" stroke-linejoin="bevel" >

<g fill="#000000" fill-opacity="0" stroke="none" transform="matrix(0.999067,0,0,0.999067,0,0)"
font-family=".SF NS Text" font-size="54.1667" font-weight="400" font-style="normal" 
>
<path vector-effect="non-scaling-stroke" fill-rule="evenodd" d="M0,0 L827,0 L827,472 L0,472 L0,0"/>
</g>

<g fill="none" stroke="#000000" stroke-opacity="1" stroke-width="14.8819" stroke-linecap="butt" stroke-linejoin="bevel" transform="matrix(0.999067,0,0,0.999067,0,0)"
font-family=".SF NS Text" font-size="54.1667" font-weight="400" font-style="normal" 
>
<path vector-effect="none" fill-rule="evenodd" d="M203.483,227.624 L239.294,240.701 L265.108,249.786 L287.197,258.48"/>
</g>

<g fill="none" stroke="#ff9500" stroke-opacity="1" stroke-width="11.811" stroke-linecap="butt" stroke-linejoin="bevel" transform="matrix(0.999067,0,0,0.999067,0,0)"
font-family=".SF NS Text" font-size="54.1667" font-weight="400" font-style="normal" 
>
<path vector-effect="none" fill-rule="evenodd" d="M203.483,227.624 L239.294,240.701 L265.108,249.786 L287.197,258.48"/>
</g>

<g fill="none" stroke="#000000" stroke-opacity="1" stroke-width="29.0551" stroke-linecap="butt" stroke-linejoin="bevel" transform="matrix(0.999067,0,0,0.999067,0,0)"
font-family=".SF NS Text" font-size="54.1667" font-weight="400" font-style="normal" 
>
<path vector-effect="none" fill-rule="evenodd" d="M324.263,536.344 L325.112,533.72 L337.249,502.632 L347.022,480.695 L357.489,460.05 L361.634,452.261 L373.937,430.765 L383.2,416.242 L396.076,397.026 L411.095,376.253 L436.719,341.619 L446.907,327.923 L455.142,316.804 L466.282,301.742 L549.23,189.742 L562.035,172.269 L567.677,164.731 L593.2,130.102 L610.973,106.283 L633.923,75.2032 L656.468,45.1829 L685.499,7.65526 L701.879,-12.2951 L716.737,-29.2715 L736.326,-51.1911 L755.981,-71.8549"/>
</g>

<g fill="none" stroke="#ff9500" stroke-opacity="1" stroke-width="23.622" stroke-linecap="butt" stroke-linejoin="bevel" transform="matrix(0.999067,0,0,0.999067,0,0)"
font-family=".SF NS Text" font-size="54.1667" font-weight="400" font-style="normal" 
>
<path vector-effect="none" fill-rule="evenodd" d="M324.263,536.344 L325.112,533.72 L337.249,502.632 L347.022,480.695 L357.489,460.05 L361.634,452.261 L373.937,430.765 L383.2,416.242 L396.076,397.026 L411.095,376.253 L436.719,341.619 L446.907,327.923 L455.142,316.804 L466.282,301.742 L549.23,189.742 L562.035,172.269 L567.677,164.731 L593.2,130.102 L610.973,106.283 L633.923,75.2032 L656.468,45.1829 L685.499,7.65526 L701.879,-12.2951 L716.737,-29.2715 L736.326,-51.1911 L755.981,-71.8549"/>
</g>

<g fill="none" stroke="#000000" stroke-opacity="1" stroke-width="1.53543" stroke-linecap="butt" stroke-linejoin="bevel" transform="matrix(0.999067,0,0,0.999067,0,0)"
font-family=".SF NS Text" font-size="54.1667" font-weight="400" font-style="normal" 
>
<path vector-effect="none" fill-rule="evenodd" d="M324.263,536.344 L325.112,533.72 L337.249,502.632 L347.022,480.695 L357.489,460.05 L361.634,452.261 L373.937,430.765 L383.2,416.242 L396.076,397.026 L411.095,376.253 L436.719,341.619 L446.907,327.923 L455.142,316.804 L466.282,301.742 L549.23,189.742 L562.035,172.269 L567.677,164.731 L593.2,130.102 L610.973,106.283 L633.923,75.2032 L656.468,45.1829 L685.499,7.65526 L701.879,-12.2951 L716.737,-29.2715 L736.326,-51.1911 L755.981,-71.8549"/>
</g>

<g fill="none" stroke="#000000" stroke-opacity="1" stroke-width="29.0551" stroke-linecap="butt" stroke-linejoin="bevel" transform="matrix(0.999067,0,0,0.999067,0,0)"
font-family=".SF NS Text" font-size="54.1667" font-weight="400" font-style="normal" 
>
<path vector-effect="none" fill-rule="evenodd" d="M-92.6056,182.379 L-21.3608,189.967 L105.823,206.756 L143.91,213.514 L177.539,220.969 L192.093,224.484 L203.483,227.624"/>
</g>

<g fill="none" stroke="#ff9500" stroke-opacity="1" stroke-width="23.622" stroke-linecap="butt" stroke-linejoin="bevel" transform="matrix(0.999067,0,0,0.999067,0,0)"
font-family=".SF NS Text" font-size="54.1667" font-weight="400" font-style="normal" 
>
<path vector-effect="none" fill-rule="evenodd" d="M-92.6056,182.379 L-21.3608,189.967 L105.823,206.756 L143.91,213.514 L177.539,220.969 L192.093,224.484 L203.483,227.624"/>
</g>

<g fill="none" stroke="#000000" stroke-opacity="1" stroke-width="1.53543" stroke-linecap="butt" stroke-linejoin="bevel" transform="matrix(0.999067,0,0,0.999067,0,0)"
font-family=".SF NS Text" font-size="54.1667" font-weight="400" font-style="normal" 
>
<path vector-effect="none" fill-rule="evenodd" d="M-92.6056,182.379 L-21.3608,189.967 L105.823,206.756 L143.91,213.514 L177.539,220.969 L192.093,224.484 L203.483,227.624"/>
</g>

<g fill="none" stroke="#000000" stroke-opacity="1" stroke-width="29.0551" stroke-linecap="butt" stroke-linejoin="bevel" transform="matrix(0.999067,0,0,0.999067,0,0)"
font-family=".SF NS Text" font-size="54.1667" font-weight="400" font-style="normal" 
>
<path vector-effect="none" fill-rule="evenodd" d="M156.346,-54.2553 L256.642,4.86173 L273.944,15.0779 L290.975,25.0015 L306.29,34.2203 L372.377,74.2756 L390.053,84.855 L453.76,121.982 L469.938,131.583 L486.304,141.228 L575.669,194.274 L619.413,221.279 L629.776,228.269 L647.776,241.483 L674.037,262.39 L683.987,270.93 L713.194,297.86 L735.229,319.639 L742.263,327.014 L771.008,359.928 L804.65,401.219 L820.481,420.759 L842.072,447.228 L883.045,499.385 L899.457,519.511"/>
</g>

<g fill="none" stroke="#ff9500" stroke-opacity="1" stroke-width="23.622" stroke-linecap="butt" stroke-linejoin="bevel" transform="matrix(0.999067,0,0,0.999067,0,0)"
font-family=".SF NS Text" font-size="54.1667" font-weight="400" font-style="normal" 
>
<path vector-effect="none" fill-rule="evenodd" d="M156.346,-54.2553 L256.642,4.86173 L273.944,15.0779 L290.975,25.0015 L306.29,34.2203 L372.377,74.2756 L390.053,84.855 L453.76,121.982 L469.938,131.583 L486.304,141.228 L575.669,194.274 L619.413,221.279 L629.776,228.269 L647.776,241.483 L674.037,262.39 L683.987,270.93 L713.194,297.86 L735.229,319.639 L742.263,327.014 L771.008,359.928 L804.65,401.219 L820.481,420.759 L842.072,447.228 L883.045,499.385 L899.457,519.511"/>
</g>

<g fill="none" stroke="#000000" stroke-opacity="1" stroke-width="1.53543" stroke-linecap="butt" stroke-linejoin="bevel" transform="matrix(0.999067,0,0,0.999067,0,0)"
font-family=".SF NS Text" font-size="54.1667" font-weight="400" font-style="normal" 
>
<path vector-effect="none" fill-rule="evenodd" d="M156.346,-54.2553 L256.642,4.86173 L273.944,15.0779 L290.975,25.0015 L306.29,34.2203 L372.377,74.2756 L390.053,84.855 L453.76,121.982 L469.938,131.583 L486.304,141.228 L575.669,194.274 L619.413,221.279 L629.776,228.269 L647.776,241.483 L674.037,262.39 L683.987,270.93 L713.194,297.86 L735.229,319.639 L742.263,327.014 L771.008,359.928 L804.65,401.219 L820.481,420.759 L842.072,447.228 L883.045,499.385 L899.457,519.511"/>
</g>

</g>
</svg>
