<?xml version="1.0" encoding="UTF-8" standalone="no"?>
<svg width="69.9347mm" height="39.9627mm"
 viewBox="0 0 826 472"
 xmlns="http://www.w3.org/2000/svg" xmlns:xlink="http://www.w3.org/1999/xlink"  version="1.2" baseProfile="tiny">
<desc>Generated with Qt</desc>
<defs>
</defs>
<g fill="none" stroke="black" stroke-width="1" fill-rule="evenodd" stroke-linecap="square" stroke-linejoin="bevel" >

<g fill="#ffffff" fill-opacity="1" stroke="none" transform="matrix(0.999067,0,0,0.999067,0,0)"
font-family=".SF NS Text" font-size="54.1667" font-weight="400" font-style="normal" 
>
<path vector-effect="none" fill-rule="evenodd" d="M-1,-1 L827.772,-1 L827.772,473.441 L-1,473.441 L-1,-1"/>
</g>

<g fill="#ffffff" fill-opacity="1" stroke="none" transform="matrix(11.8,0,0,11.8,0,0)"
font-family=".SF NS Text" font-size="54.1667" font-weight="400" font-style="normal" 
>
<path vector-effect="non-scaling-stroke" fill-rule="evenodd" d="M0,0 L70,0 L70,40 L0,40 L0,0"/>
</g>

<g fill="#000000" fill-opacity="0" stroke="none" transform="matrix(0.999067,0,0,0.999067,0,0)"
font-family=".SF NS Text" font-size="54.1667" font-weight="400" font-style="normal" 
>
<path vector-effect="non-scaling-stroke" fill-rule="evenodd" d="M0,0 L827,0 L827,472 L0,472 L0,0"/>
</g>

<g fill="none" stroke="#bbbbbb" stroke-opacity="1" stroke-width="3.54331" stroke-linecap="round" stroke-linejoin="round" transform="matrix(0.999067,0,0,0.999067,0,0)"
font-family=".SF NS Text" font-size="54.1667" font-weight="400" font-style="normal" 
>
<path vector-effect="none" fill-rule="evenodd" d="M736.189,378.437 L620.642,297.978"/>
<path vector-effect="none" fill-rule="evenodd" d="M620.642,297.978 L449.52,200.236"/>
<path vector-effect="none" fill-rule="evenodd" d="M218.953,139.029 L254.18,107.269"/>
<path vector-effect="none" fill-rule="evenodd" d="M-92.8384,147.543 L52.5115,133.344"/>
<path vector-effect="none" fill-rule="evenodd" d="M52.5115,133.344 L218.953,139.029"/>
<path vector-effect="none" fill-rule="evenodd" d="M218.953,139.029 L446.439,244.654"/>
<path vector-effect="none" fill-rule="evenodd" d="M446.439,244.654 L598.383,325.909"/>
<path vector-effect="none" fill-rule="evenodd" d="M598.383,325.909 L736.189,378.437"/>
<path vector-effect="none" fill-rule="evenodd" d="M880.323,454.917 L786.081,405.383"/>
<path vector-effect="none" fill-rule="evenodd" d="M786.081,405.383 L736.189,378.437"/>
<path vector-effect="none" fill-rule="evenodd" d="M254.18,107.269 L171.903,84.8324"/>
<path vector-effect="none" fill-rule="evenodd" d="M171.903,84.8324 L53.1563,81.8762"/>
<path vector-effect="none" fill-rule="evenodd" d="M53.1563,81.8762 L-61.4586,90.252"/>
<path vector-effect="none" fill-rule="evenodd" d="M449.52,200.236 L254.18,107.269"/>
<path vector-effect="none" fill-rule="evenodd" d="M254.18,107.269 L268.343,98.1351"/>
<path vector-effect="none" fill-rule="evenodd" d="M268.343,98.1351 L284.918,87.6748"/>
<path vector-effect="none" fill-rule="evenodd" d="M284.918,87.6748 L291.175,84.0744"/>
<path vector-effect="none" fill-rule="evenodd" d="M291.175,84.0744 L354.036,47.7287"/>
<path vector-effect="none" fill-rule="evenodd" d="M354.036,47.7287 L656.133,-64.0754"/>
</g>

<g fill="none" stroke="#ffffff" stroke-opacity="1" stroke-dasharray="0.011811,9.44882" stroke-dashoffset="0" stroke-width="2.95276" stroke-linecap="round" stroke-linejoin="round" transform="matrix(0.999067,0,0,0.999067,0,0)"
font-family=".SF NS Text" font-size="54.1667" font-weight="400" font-style="normal" 
>
<path vector-effect="none" fill-rule="evenodd" d="M52.5115,133.344 L53.1563,81.8762"/>
</g>

<g fill="none" stroke="#ff7f00" stroke-opacity="1" stroke-width="5.90551" stroke-linecap="square" stroke-linejoin="bevel" transform="matrix(0.999067,0,0,0.999067,0,0)"
font-family=".SF NS Text" font-size="54.1667" font-weight="400" font-style="normal" 
>
<path vector-effect="none" fill-rule="evenodd" d="M52.5115,133.344 L53.1563,81.8762"/>
</g>

<g fill="none" stroke="#ffffff" stroke-opacity="1" stroke-dasharray="0.011811,9.44882" stroke-dashoffset="0" stroke-width="2.95276" stroke-linecap="round" stroke-linejoin="round" transform="matrix(0.999067,0,0,0.999067,0,0)"
font-family=".SF NS Text" font-size="54.1667" font-weight="400" font-style="normal" 
>
<path vector-effect="none" fill-rule="evenodd" d="M171.903,84.8324 L218.953,139.029"/>
</g>

<g fill="none" stroke="#ff7f00" stroke-opacity="1" stroke-width="5.90551" stroke-linecap="square" stroke-linejoin="bevel" transform="matrix(0.999067,0,0,0.999067,0,0)"
font-family=".SF NS Text" font-size="54.1667" font-weight="400" font-style="normal" 
>
<path vector-effect="none" fill-rule="evenodd" d="M171.903,84.8324 L218.953,139.029"/>
</g>

<g fill="none" stroke="#ffffff" stroke-opacity="1" stroke-dasharray="0.011811,9.44882" stroke-dashoffset="0" stroke-width="2.95276" stroke-linecap="round" stroke-linejoin="round" transform="matrix(0.999067,0,0,0.999067,0,0)"
font-family=".SF NS Text" font-size="54.1667" font-weight="400" font-style="normal" 
>
<path vector-effect="none" fill-rule="evenodd" d="M218.953,139.029 L254.18,107.269"/>
</g>

<g fill="none" stroke="#ff7f00" stroke-opacity="1" stroke-width="5.90551" stroke-linecap="square" stroke-linejoin="bevel" transform="matrix(0.999067,0,0,0.999067,0,0)"
font-family=".SF NS Text" font-size="54.1667" font-weight="400" font-style="normal" 
>
<path vector-effect="none" fill-rule="evenodd" d="M218.953,139.029 L254.18,107.269"/>
</g>

<g fill="none" stroke="#ffffff" stroke-opacity="1" stroke-dasharray="0.011811,9.44882" stroke-dashoffset="0" stroke-width="2.95276" stroke-linecap="round" stroke-linejoin="round" transform="matrix(0.999067,0,0,0.999067,0,0)"
font-family=".SF NS Text" font-size="54.1667" font-weight="400" font-style="normal" 
>
<path vector-effect="none" fill-rule="evenodd" d="M449.52,200.236 L446.439,244.654"/>
</g>

<g fill="none" stroke="#ff7f00" stroke-opacity="1" stroke-width="5.90551" stroke-linecap="square" stroke-linejoin="bevel" transform="matrix(0.999067,0,0,0.999067,0,0)"
font-family=".SF NS Text" font-size="54.1667" font-weight="400" font-style="normal" 
>
<path vector-effect="none" fill-rule="evenodd" d="M449.52,200.236 L446.439,244.654"/>
</g>

<g fill="none" stroke="#ffffff" stroke-opacity="1" stroke-dasharray="0.011811,9.44882" stroke-dashoffset="0" stroke-width="2.95276" stroke-linecap="round" stroke-linejoin="round" transform="matrix(0.999067,0,0,0.999067,0,0)"
font-family=".SF NS Text" font-size="54.1667" font-weight="400" font-style="normal" 
>
<path vector-effect="none" fill-rule="evenodd" d="M620.642,297.978 L598.383,325.909"/>
</g>

<g fill="none" stroke="#ff7f00" stroke-opacity="1" stroke-width="5.90551" stroke-linecap="square" stroke-linejoin="bevel" transform="matrix(0.999067,0,0,0.999067,0,0)"
font-family=".SF NS Text" font-size="54.1667" font-weight="400" font-style="normal" 
>
<path vector-effect="none" fill-rule="evenodd" d="M620.642,297.978 L598.383,325.909"/>
</g>

<g fill="#ffffff" fill-opacity="1" stroke="#bbbbbb" stroke-opacity="1" stroke-width="2.3622" stroke-linecap="square" stroke-linejoin="bevel" transform="matrix(0.999067,0,0,0.999067,0,0)"
font-family=".SF NS Text" font-size="54.1667" font-weight="400" font-style="normal" 
>
<path vector-effect="none" fill-rule="evenodd" d="M793.167,405.383 C793.167,409.297 789.994,412.47 786.081,412.47 C782.167,412.47 778.994,409.297 778.994,405.383 C778.994,401.47 782.167,398.297 786.081,398.297 C789.994,398.297 793.167,401.47 793.167,405.383 "/>
</g>

<g fill="#bbbbbb" fill-opacity="1" stroke="none" transform="matrix(0.999067,0,0,0.999067,0,0)"
font-family=".SF NS Text" font-size="54.1667" font-weight="400" font-style="normal" 
>
<path vector-effect="non-scaling-stroke" fill-rule="evenodd" d="M789.033,405.383 C789.033,407.014 787.711,408.336 786.081,408.336 C784.45,408.336 783.128,407.014 783.128,405.383 C783.128,403.753 784.45,402.431 786.081,402.431 C787.711,402.431 789.033,403.753 789.033,405.383 "/>
</g>

<g fill="#ffffff" fill-opacity="1" stroke="#bbbbbb" stroke-opacity="1" stroke-width="2.3622" stroke-linecap="square" stroke-linejoin="bevel" transform="matrix(0.999067,0,0,0.999067,0,0)"
font-family=".SF NS Text" font-size="54.1667" font-weight="400" font-style="normal" 
>
<path vector-effect="none" fill-rule="evenodd" d="M743.275,378.437 C743.275,382.351 740.103,385.524 736.189,385.524 C732.275,385.524 729.102,382.351 729.102,378.437 C729.102,374.524 732.275,371.351 736.189,371.351 C740.103,371.351 743.275,374.524 743.275,378.437 "/>
</g>

<g fill="#bbbbbb" fill-opacity="1" stroke="none" transform="matrix(0.999067,0,0,0.999067,0,0)"
font-family=".SF NS Text" font-size="54.1667" font-weight="400" font-style="normal" 
>
<path vector-effect="non-scaling-stroke" fill-rule="evenodd" d="M739.142,378.437 C739.142,380.068 737.82,381.39 736.189,381.39 C734.558,381.39 733.236,380.068 733.236,378.437 C733.236,376.807 734.558,375.485 736.189,375.485 C737.82,375.485 739.142,376.807 739.142,378.437 "/>
</g>

<g fill="#ffffff" fill-opacity="1" stroke="#bbbbbb" stroke-opacity="1" stroke-width="2.3622" stroke-linecap="square" stroke-linejoin="bevel" transform="matrix(0.999067,0,0,0.999067,0,0)"
font-family=".SF NS Text" font-size="54.1667" font-weight="400" font-style="normal" 
>
<path vector-effect="none" fill-rule="evenodd" d="M627.729,297.978 C627.729,301.892 624.556,305.065 620.642,305.065 C616.729,305.065 613.556,301.892 613.556,297.978 C613.556,294.064 616.729,290.891 620.642,290.891 C624.556,290.891 627.729,294.064 627.729,297.978 "/>
</g>

<g fill="#bbbbbb" fill-opacity="1" stroke="none" transform="matrix(0.999067,0,0,0.999067,0,0)"
font-family=".SF NS Text" font-size="54.1667" font-weight="400" font-style="normal" 
>
<path vector-effect="non-scaling-stroke" fill-rule="evenodd" d="M623.595,297.978 C623.595,299.609 622.273,300.931 620.642,300.931 C619.012,300.931 617.69,299.609 617.69,297.978 C617.69,296.347 619.012,295.025 620.642,295.025 C622.273,295.025 623.595,296.347 623.595,297.978 "/>
</g>

<g fill="#ffffff" fill-opacity="1" stroke="#bbbbbb" stroke-opacity="1" stroke-width="2.3622" stroke-linecap="square" stroke-linejoin="bevel" transform="matrix(0.999067,0,0,0.999067,0,0)"
font-family=".SF NS Text" font-size="54.1667" font-weight="400" font-style="normal" 
>
<path vector-effect="none" fill-rule="evenodd" d="M605.47,325.909 C605.47,329.823 602.297,332.996 598.383,332.996 C594.47,332.996 591.297,329.823 591.297,325.909 C591.297,321.996 594.47,318.823 598.383,318.823 C602.297,318.823 605.47,321.996 605.47,325.909 "/>
</g>

<g fill="#bbbbbb" fill-opacity="1" stroke="none" transform="matrix(0.999067,0,0,0.999067,0,0)"
font-family=".SF NS Text" font-size="54.1667" font-weight="400" font-style="normal" 
>
<path vector-effect="non-scaling-stroke" fill-rule="evenodd" d="M601.336,325.909 C601.336,327.54 600.014,328.862 598.383,328.862 C596.753,328.862 595.431,327.54 595.431,325.909 C595.431,324.279 596.753,322.957 598.383,322.957 C600.014,322.957 601.336,324.279 601.336,325.909 "/>
</g>

<g fill="#ffffff" fill-opacity="1" stroke="#bbbbbb" stroke-opacity="1" stroke-width="2.3622" stroke-linecap="square" stroke-linejoin="bevel" transform="matrix(0.999067,0,0,0.999067,0,0)"
font-family=".SF NS Text" font-size="54.1667" font-weight="400" font-style="normal" 
>
<path vector-effect="none" fill-rule="evenodd" d="M471.562,209.79 C471.562,212.725 469.182,215.105 466.247,215.105 C463.311,215.105 460.932,212.725 460.932,209.79 C460.932,206.854 463.311,204.475 466.247,204.475 C469.182,204.475 471.562,206.854 471.562,209.79 "/>
</g>

<g fill="#ffffff" fill-opacity="1" stroke="#bbbbbb" stroke-opacity="1" stroke-width="2.3622" stroke-linecap="square" stroke-linejoin="bevel" transform="matrix(0.999067,0,0,0.999067,0,0)"
font-family=".SF NS Text" font-size="54.1667" font-weight="400" font-style="normal" 
>
<path vector-effect="none" fill-rule="evenodd" d="M456.607,200.236 C456.607,204.15 453.434,207.323 449.52,207.323 C445.606,207.323 442.433,204.15 442.433,200.236 C442.433,196.322 445.606,193.149 449.52,193.149 C453.434,193.149 456.607,196.322 456.607,200.236 "/>
</g>

<g fill="#bbbbbb" fill-opacity="1" stroke="none" transform="matrix(0.999067,0,0,0.999067,0,0)"
font-family=".SF NS Text" font-size="54.1667" font-weight="400" font-style="normal" 
>
<path vector-effect="non-scaling-stroke" fill-rule="evenodd" d="M452.473,200.236 C452.473,201.867 451.151,203.189 449.52,203.189 C447.889,203.189 446.567,201.867 446.567,200.236 C446.567,198.605 447.889,197.283 449.52,197.283 C451.151,197.283 452.473,198.605 452.473,200.236 "/>
</g>

<g fill="#ffffff" fill-opacity="1" stroke="#bbbbbb" stroke-opacity="1" stroke-width="2.3622" stroke-linecap="square" stroke-linejoin="bevel" transform="matrix(0.999067,0,0,0.999067,0,0)"
font-family=".SF NS Text" font-size="54.1667" font-weight="400" font-style="normal" 
>
<path vector-effect="none" fill-rule="evenodd" d="M453.526,244.654 C453.526,248.568 450.353,251.74 446.439,251.74 C442.525,251.74 439.353,248.568 439.353,244.654 C439.353,240.74 442.525,237.567 446.439,237.567 C450.353,237.567 453.526,240.74 453.526,244.654 "/>
</g>

<g fill="#bbbbbb" fill-opacity="1" stroke="none" transform="matrix(0.999067,0,0,0.999067,0,0)"
font-family=".SF NS Text" font-size="54.1667" font-weight="400" font-style="normal" 
>
<path vector-effect="non-scaling-stroke" fill-rule="evenodd" d="M449.392,244.654 C449.392,246.285 448.07,247.607 446.439,247.607 C444.808,247.607 443.486,246.285 443.486,244.654 C443.486,243.023 444.808,241.701 446.439,241.701 C448.07,241.701 449.392,243.023 449.392,244.654 "/>
</g>

<g fill="#ffffff" fill-opacity="1" stroke="#bbbbbb" stroke-opacity="1" stroke-width="2.3622" stroke-linecap="square" stroke-linejoin="bevel" transform="matrix(0.999067,0,0,0.999067,0,0)"
font-family=".SF NS Text" font-size="54.1667" font-weight="400" font-style="normal" 
>
<path vector-effect="none" fill-rule="evenodd" d="M437.399,237.989 C437.399,240.924 435.02,243.304 432.084,243.304 C429.149,243.304 426.769,240.924 426.769,237.989 C426.769,235.053 429.149,232.674 432.084,232.674 C435.02,232.674 437.399,235.053 437.399,237.989 "/>
</g>

<g fill="#ffffff" fill-opacity="1" stroke="#bbbbbb" stroke-opacity="1" stroke-width="2.3622" stroke-linecap="square" stroke-linejoin="bevel" transform="matrix(0.999067,0,0,0.999067,0,0)"
font-family=".SF NS Text" font-size="54.1667" font-weight="400" font-style="normal" 
>
<path vector-effect="none" fill-rule="evenodd" d="M361.122,47.7287 C361.122,51.6425 357.949,54.8153 354.036,54.8153 C350.122,54.8153 346.949,51.6425 346.949,47.7287 C346.949,43.8149 350.122,40.6421 354.036,40.6421 C357.949,40.6421 361.122,43.8149 361.122,47.7287 "/>
</g>

<g fill="#bbbbbb" fill-opacity="1" stroke="none" transform="matrix(0.999067,0,0,0.999067,0,0)"
font-family=".SF NS Text" font-size="54.1667" font-weight="400" font-style="normal" 
>
<path vector-effect="non-scaling-stroke" fill-rule="evenodd" d="M356.988,47.7287 C356.988,49.3595 355.666,50.6815 354.036,50.6815 C352.405,50.6815 351.083,49.3595 351.083,47.7287 C351.083,46.098 352.405,44.776 354.036,44.776 C355.666,44.776 356.988,46.098 356.988,47.7287 "/>
</g>

<g fill="#ffffff" fill-opacity="1" stroke="#bbbbbb" stroke-opacity="1" stroke-width="2.3622" stroke-linecap="square" stroke-linejoin="bevel" transform="matrix(0.999067,0,0,0.999067,0,0)"
font-family=".SF NS Text" font-size="54.1667" font-weight="400" font-style="normal" 
>
<path vector-effect="none" fill-rule="evenodd" d="M298.262,84.0744 C298.262,87.9882 295.089,91.161 291.175,91.161 C287.261,91.161 284.089,87.9882 284.089,84.0744 C284.089,80.1606 287.261,76.9878 291.175,76.9878 C295.089,76.9878 298.262,80.1606 298.262,84.0744 "/>
</g>

<g fill="#bbbbbb" fill-opacity="1" stroke="none" transform="matrix(0.999067,0,0,0.999067,0,0)"
font-family=".SF NS Text" font-size="54.1667" font-weight="400" font-style="normal" 
>
<path vector-effect="non-scaling-stroke" fill-rule="evenodd" d="M294.128,84.0744 C294.128,85.7051 292.806,87.0271 291.175,87.0271 C289.544,87.0271 288.222,85.7051 288.222,84.0744 C288.222,82.4436 289.544,81.1216 291.175,81.1216 C292.806,81.1216 294.128,82.4436 294.128,84.0744 "/>
</g>

<g fill="#ffffff" fill-opacity="1" stroke="#bbbbbb" stroke-opacity="1" stroke-width="2.3622" stroke-linecap="square" stroke-linejoin="bevel" transform="matrix(0.999067,0,0,0.999067,0,0)"
font-family=".SF NS Text" font-size="54.1667" font-weight="400" font-style="normal" 
>
<path vector-effect="none" fill-rule="evenodd" d="M292.004,87.6748 C292.004,91.5887 288.832,94.7615 284.918,94.7615 C281.004,94.7615 277.831,91.5887 277.831,87.6748 C277.831,83.761 281.004,80.5882 284.918,80.5882 C288.832,80.5882 292.004,83.761 292.004,87.6748 "/>
</g>

<g fill="#bbbbbb" fill-opacity="1" stroke="none" transform="matrix(0.999067,0,0,0.999067,0,0)"
font-family=".SF NS Text" font-size="54.1667" font-weight="400" font-style="normal" 
>
<path vector-effect="non-scaling-stroke" fill-rule="evenodd" d="M287.871,87.6748 C287.871,89.3056 286.549,90.6276 284.918,90.6276 C283.287,90.6276 281.965,89.3056 281.965,87.6748 C281.965,86.0441 283.287,84.7221 284.918,84.7221 C286.549,84.7221 287.871,86.0441 287.871,87.6748 "/>
</g>

<g fill="#ffffff" fill-opacity="1" stroke="#bbbbbb" stroke-opacity="1" stroke-width="2.3622" stroke-linecap="square" stroke-linejoin="bevel" transform="matrix(0.999067,0,0,0.999067,0,0)"
font-family=".SF NS Text" font-size="54.1667" font-weight="400" font-style="normal" 
>
<path vector-effect="none" fill-rule="evenodd" d="M275.43,98.1351 C275.43,102.049 272.257,105.222 268.343,105.222 C264.429,105.222 261.256,102.049 261.256,98.1351 C261.256,94.2213 264.429,91.0485 268.343,91.0485 C272.257,91.0485 275.43,94.2213 275.43,98.1351 "/>
</g>

<g fill="#bbbbbb" fill-opacity="1" stroke="none" transform="matrix(0.999067,0,0,0.999067,0,0)"
font-family=".SF NS Text" font-size="54.1667" font-weight="400" font-style="normal" 
>
<path vector-effect="non-scaling-stroke" fill-rule="evenodd" d="M271.296,98.1351 C271.296,99.7659 269.974,101.088 268.343,101.088 C266.712,101.088 265.39,99.7659 265.39,98.1351 C265.39,96.5043 266.712,95.1823 268.343,95.1823 C269.974,95.1823 271.296,96.5043 271.296,98.1351 "/>
</g>

<g fill="#ffffff" fill-opacity="1" stroke="#bbbbbb" stroke-opacity="1" stroke-width="2.3622" stroke-linecap="square" stroke-linejoin="bevel" transform="matrix(0.999067,0,0,0.999067,0,0)"
font-family=".SF NS Text" font-size="54.1667" font-weight="400" font-style="normal" 
>
<path vector-effect="none" fill-rule="evenodd" d="M261.267,107.269 C261.267,111.183 258.094,114.355 254.18,114.355 C250.266,114.355 247.094,111.183 247.094,107.269 C247.094,103.355 250.266,100.182 254.18,100.182 C258.094,100.182 261.267,103.355 261.267,107.269 "/>
</g>

<g fill="#bbbbbb" fill-opacity="1" stroke="none" transform="matrix(0.999067,0,0,0.999067,0,0)"
font-family=".SF NS Text" font-size="54.1667" font-weight="400" font-style="normal" 
>
<path vector-effect="non-scaling-stroke" fill-rule="evenodd" d="M257.133,107.269 C257.133,108.9 255.811,110.222 254.18,110.222 C252.55,110.222 251.228,108.9 251.228,107.269 C251.228,105.638 252.55,104.316 254.18,104.316 C255.811,104.316 257.133,105.638 257.133,107.269 "/>
</g>

<g fill="#ffffff" fill-opacity="1" stroke="#bbbbbb" stroke-opacity="1" stroke-width="2.3622" stroke-linecap="square" stroke-linejoin="bevel" transform="matrix(0.999067,0,0,0.999067,0,0)"
font-family=".SF NS Text" font-size="54.1667" font-weight="400" font-style="normal" 
>
<path vector-effect="none" fill-rule="evenodd" d="M241.197,146.889 C241.197,149.824 238.818,152.204 235.882,152.204 C232.947,152.204 230.567,149.824 230.567,146.889 C230.567,143.954 232.947,141.574 235.882,141.574 C238.818,141.574 241.197,143.954 241.197,146.889 "/>
<path vector-effect="none" fill-rule="evenodd" d="M234.715,100.511 C234.715,103.447 232.336,105.826 229.4,105.826 C226.465,105.826 224.085,103.447 224.085,100.511 C224.085,97.5761 226.465,95.1965 229.4,95.1965 C232.336,95.1965 234.715,97.5761 234.715,100.511 "/>
</g>

<g fill="#ffffff" fill-opacity="1" stroke="#bbbbbb" stroke-opacity="1" stroke-width="2.3622" stroke-linecap="square" stroke-linejoin="bevel" transform="matrix(0.999067,0,0,0.999067,0,0)"
font-family=".SF NS Text" font-size="54.1667" font-weight="400" font-style="normal" 
>
<path vector-effect="none" fill-rule="evenodd" d="M226.039,139.029 C226.039,142.942 222.867,146.115 218.953,146.115 C215.039,146.115 211.866,142.942 211.866,139.029 C211.866,135.115 215.039,131.942 218.953,131.942 C222.867,131.942 226.039,135.115 226.039,139.029 "/>
</g>

<g fill="#bbbbbb" fill-opacity="1" stroke="none" transform="matrix(0.999067,0,0,0.999067,0,0)"
font-family=".SF NS Text" font-size="54.1667" font-weight="400" font-style="normal" 
>
<path vector-effect="non-scaling-stroke" fill-rule="evenodd" d="M221.906,139.029 C221.906,140.659 220.584,141.981 218.953,141.981 C217.322,141.981 216,140.659 216,139.029 C216,137.398 217.322,136.076 218.953,136.076 C220.584,136.076 221.906,137.398 221.906,139.029 "/>
</g>

<g fill="#ffffff" fill-opacity="1" stroke="#bbbbbb" stroke-opacity="1" stroke-width="2.3622" stroke-linecap="square" stroke-linejoin="bevel" transform="matrix(0.999067,0,0,0.999067,0,0)"
font-family=".SF NS Text" font-size="54.1667" font-weight="400" font-style="normal" 
>
<path vector-effect="none" fill-rule="evenodd" d="M178.99,84.8324 C178.99,88.7462 175.817,91.919 171.903,91.919 C167.989,91.919 164.816,88.7462 164.816,84.8324 C164.816,80.9185 167.989,77.7458 171.903,77.7458 C175.817,77.7458 178.99,80.9185 178.99,84.8324 "/>
</g>

<g fill="#bbbbbb" fill-opacity="1" stroke="none" transform="matrix(0.999067,0,0,0.999067,0,0)"
font-family=".SF NS Text" font-size="54.1667" font-weight="400" font-style="normal" 
>
<path vector-effect="non-scaling-stroke" fill-rule="evenodd" d="M174.856,84.8324 C174.856,86.4631 173.534,87.7851 171.903,87.7851 C170.272,87.7851 168.95,86.4631 168.95,84.8324 C168.95,83.2016 170.272,81.8796 171.903,81.8796 C173.534,81.8796 174.856,83.2016 174.856,84.8324 "/>
</g>

<g fill="#ffffff" fill-opacity="1" stroke="#bbbbbb" stroke-opacity="1" stroke-width="2.3622" stroke-linecap="square" stroke-linejoin="bevel" transform="matrix(0.999067,0,0,0.999067,0,0)"
font-family=".SF NS Text" font-size="54.1667" font-weight="400" font-style="normal" 
>
<path vector-effect="none" fill-rule="evenodd" d="M175.433,137.36 C175.433,140.296 173.054,142.675 170.118,142.675 C167.183,142.675 164.803,140.296 164.803,137.36 C164.803,134.425 167.183,132.045 170.118,132.045 C173.054,132.045 175.433,134.425 175.433,137.36 "/>
</g>

<g fill="#ffffff" fill-opacity="1" stroke="#bbbbbb" stroke-opacity="1" stroke-width="2.3622" stroke-linecap="square" stroke-linejoin="bevel" transform="matrix(0.999067,0,0,0.999067,0,0)"
font-family=".SF NS Text" font-size="54.1667" font-weight="400" font-style="normal" 
>
<path vector-effect="none" fill-rule="evenodd" d="M60.2429,81.8762 C60.2429,85.79 57.0702,88.9628 53.1563,88.9628 C49.2425,88.9628 46.0697,85.79 46.0697,81.8762 C46.0697,77.9624 49.2425,74.7896 53.1563,74.7896 C57.0702,74.7896 60.2429,77.9624 60.2429,81.8762 "/>
</g>

<g fill="#bbbbbb" fill-opacity="1" stroke="none" transform="matrix(0.999067,0,0,0.999067,0,0)"
font-family=".SF NS Text" font-size="54.1667" font-weight="400" font-style="normal" 
>
<path vector-effect="non-scaling-stroke" fill-rule="evenodd" d="M56.1091,81.8762 C56.1091,83.507 54.7871,84.829 53.1563,84.829 C51.5256,84.829 50.2036,83.507 50.2036,81.8762 C50.2036,80.2455 51.5256,78.9235 53.1563,78.9235 C54.7871,78.9235 56.1091,80.2455 56.1091,81.8762 "/>
</g>

<g fill="#ffffff" fill-opacity="1" stroke="#bbbbbb" stroke-opacity="1" stroke-width="2.3622" stroke-linecap="square" stroke-linejoin="bevel" transform="matrix(0.999067,0,0,0.999067,0,0)"
font-family=".SF NS Text" font-size="54.1667" font-weight="400" font-style="normal" 
>
<path vector-effect="none" fill-rule="evenodd" d="M59.5981,133.344 C59.5981,137.258 56.4253,140.43 52.5115,140.43 C48.5977,140.43 45.4249,137.258 45.4249,133.344 C45.4249,129.43 48.5977,126.257 52.5115,126.257 C56.4253,126.257 59.5981,129.43 59.5981,133.344 "/>
</g>

<g fill="#bbbbbb" fill-opacity="1" stroke="none" transform="matrix(0.999067,0,0,0.999067,0,0)"
font-family=".SF NS Text" font-size="54.1667" font-weight="400" font-style="normal" 
>
<path vector-effect="non-scaling-stroke" fill-rule="evenodd" d="M55.4642,133.344 C55.4642,134.974 54.1422,136.296 52.5115,136.296 C50.8807,136.296 49.5587,134.974 49.5587,133.344 C49.5587,131.713 50.8807,130.391 52.5115,130.391 C54.1422,130.391 55.4642,131.713 55.4642,133.344 "/>
</g>

<g fill="none" stroke="#2277cc" stroke-opacity="1" stroke-width="3.54331" stroke-linecap="round" stroke-linejoin="round" transform="matrix(0.999067,0,0,0.999067,0,0)"
font-family=".SF NS Text" font-size="54.1667" font-weight="400" font-style="normal" 
>
<path vector-effect="none" fill-rule="evenodd" d="M-93.5822,120.281 L-81.4846,119.321 L52.8339,107.61 L195.428,111.93 L236.567,123.149"/>
<path vector-effect="none" fill-rule="evenodd" d="M236.567,123.149 L447.98,222.445 L609.513,311.944"/>
<path vector-effect="none" fill-rule="evenodd" d="M736.189,378.437 L609.513,311.944"/>
<path vector-effect="none" fill-rule="evenodd" d="M236.567,123.149 L236.567,123.149"/>
<path vector-effect="none" fill-rule="evenodd" d="M609.513,311.944 L736.189,378.437"/>
<path vector-effect="none" fill-rule="evenodd" d="M923.928,475.242 L880.323,454.917 L786.081,405.383 L736.189,378.437"/>
<path vector-effect="none" fill-rule="evenodd" d="M236.567,123.149 L268.343,98.1351 L284.918,87.6748 L291.175,84.0744 L354.036,47.7287 L656.133,-64.0754 L666.827,-67.7434"/>
</g>

<g fill="#ffffff" fill-opacity="1" stroke="#000000" stroke-opacity="1" stroke-width="2.3622" stroke-linecap="square" stroke-linejoin="bevel" transform="matrix(0.999067,0,0,0.999067,0,0)"
font-family=".SF NS Text" font-size="54.1667" font-weight="400" font-style="normal" 
>
<path vector-effect="none" fill-rule="evenodd" d="M793.167,405.383 C793.167,409.297 789.994,412.47 786.081,412.47 C782.167,412.47 778.994,409.297 778.994,405.383 C778.994,401.47 782.167,398.297 786.081,398.297 C789.994,398.297 793.167,401.47 793.167,405.383 "/>
</g>

<g fill="#000000" fill-opacity="1" stroke="none" transform="matrix(0.999067,0,0,0.999067,0,0)"
font-family=".SF NS Text" font-size="54.1667" font-weight="400" font-style="normal" 
>
<path vector-effect="non-scaling-stroke" fill-rule="evenodd" d="M789.033,405.383 C789.033,407.014 787.711,408.336 786.081,408.336 C784.45,408.336 783.128,407.014 783.128,405.383 C783.128,403.753 784.45,402.431 786.081,402.431 C787.711,402.431 789.033,403.753 789.033,405.383 "/>
</g>

<g fill="#ffffff" fill-opacity="1" stroke="#000000" stroke-opacity="1" stroke-width="2.3622" stroke-linecap="square" stroke-linejoin="bevel" transform="matrix(0.999067,0,0,0.999067,0,0)"
font-family=".SF NS Text" font-size="54.1667" font-weight="400" font-style="normal" 
>
<path vector-effect="none" fill-rule="evenodd" d="M743.275,378.437 C743.275,382.351 740.103,385.524 736.189,385.524 C732.275,385.524 729.102,382.351 729.102,378.437 C729.102,374.524 732.275,371.351 736.189,371.351 C740.103,371.351 743.275,374.524 743.275,378.437 "/>
</g>

<g fill="#000000" fill-opacity="1" stroke="none" transform="matrix(0.999067,0,0,0.999067,0,0)"
font-family=".SF NS Text" font-size="54.1667" font-weight="400" font-style="normal" 
>
<path vector-effect="non-scaling-stroke" fill-rule="evenodd" d="M739.142,378.437 C739.142,380.068 737.82,381.39 736.189,381.39 C734.558,381.39 733.236,380.068 733.236,378.437 C733.236,376.807 734.558,375.485 736.189,375.485 C737.82,375.485 739.142,376.807 739.142,378.437 "/>
</g>

<g fill="#ffffff" fill-opacity="1" stroke="#000000" stroke-opacity="1" stroke-width="2.3622" stroke-linecap="square" stroke-linejoin="bevel" transform="matrix(0.999067,0,0,0.999067,0,0)"
font-family=".SF NS Text" font-size="54.1667" font-weight="400" font-style="normal" 
>
<path vector-effect="none" fill-rule="evenodd" d="M361.122,47.7287 C361.122,51.6425 357.949,54.8153 354.036,54.8153 C350.122,54.8153 346.949,51.6425 346.949,47.7287 C346.949,43.8149 350.122,40.6421 354.036,40.6421 C357.949,40.6421 361.122,43.8149 361.122,47.7287 "/>
</g>

<g fill="#000000" fill-opacity="1" stroke="none" transform="matrix(0.999067,0,0,0.999067,0,0)"
font-family=".SF NS Text" font-size="54.1667" font-weight="400" font-style="normal" 
>
<path vector-effect="non-scaling-stroke" fill-rule="evenodd" d="M356.988,47.7287 C356.988,49.3595 355.666,50.6815 354.036,50.6815 C352.405,50.6815 351.083,49.3595 351.083,47.7287 C351.083,46.098 352.405,44.776 354.036,44.776 C355.666,44.776 356.988,46.098 356.988,47.7287 "/>
</g>

<g fill="#ffffff" fill-opacity="1" stroke="#000000" stroke-opacity="1" stroke-width="2.3622" stroke-linecap="square" stroke-linejoin="bevel" transform="matrix(0.999067,0,0,0.999067,0,0)"
font-family=".SF NS Text" font-size="54.1667" font-weight="400" font-style="normal" 
>
<path vector-effect="none" fill-rule="evenodd" d="M298.262,84.0744 C298.262,87.9882 295.089,91.161 291.175,91.161 C287.261,91.161 284.089,87.9882 284.089,84.0744 C284.089,80.1606 287.261,76.9878 291.175,76.9878 C295.089,76.9878 298.262,80.1606 298.262,84.0744 "/>
</g>

<g fill="#000000" fill-opacity="1" stroke="none" transform="matrix(0.999067,0,0,0.999067,0,0)"
font-family=".SF NS Text" font-size="54.1667" font-weight="400" font-style="normal" 
>
<path vector-effect="non-scaling-stroke" fill-rule="evenodd" d="M294.128,84.0744 C294.128,85.7051 292.806,87.0271 291.175,87.0271 C289.544,87.0271 288.222,85.7051 288.222,84.0744 C288.222,82.4436 289.544,81.1216 291.175,81.1216 C292.806,81.1216 294.128,82.4436 294.128,84.0744 "/>
</g>

<g fill="#ffffff" fill-opacity="1" stroke="#000000" stroke-opacity="1" stroke-width="2.3622" stroke-linecap="square" stroke-linejoin="bevel" transform="matrix(0.999067,0,0,0.999067,0,0)"
font-family=".SF NS Text" font-size="54.1667" font-weight="400" font-style="normal" 
>
<path vector-effect="none" fill-rule="evenodd" d="M292.004,87.6748 C292.004,91.5887 288.832,94.7615 284.918,94.7615 C281.004,94.7615 277.831,91.5887 277.831,87.6748 C277.831,83.761 281.004,80.5882 284.918,80.5882 C288.832,80.5882 292.004,83.761 292.004,87.6748 "/>
</g>

<g fill="#000000" fill-opacity="1" stroke="none" transform="matrix(0.999067,0,0,0.999067,0,0)"
font-family=".SF NS Text" font-size="54.1667" font-weight="400" font-style="normal" 
>
<path vector-effect="non-scaling-stroke" fill-rule="evenodd" d="M287.871,87.6748 C287.871,89.3056 286.549,90.6276 284.918,90.6276 C283.287,90.6276 281.965,89.3056 281.965,87.6748 C281.965,86.0441 283.287,84.7221 284.918,84.7221 C286.549,84.7221 287.871,86.0441 287.871,87.6748 "/>
</g>

<g fill="#ffffff" fill-opacity="1" stroke="#000000" stroke-opacity="1" stroke-width="2.3622" stroke-linecap="square" stroke-linejoin="bevel" transform="matrix(0.999067,0,0,0.999067,0,0)"
font-family=".SF NS Text" font-size="54.1667" font-weight="400" font-style="normal" 
>
<path vector-effect="none" fill-rule="evenodd" d="M275.43,98.1351 C275.43,102.049 272.257,105.222 268.343,105.222 C264.429,105.222 261.256,102.049 261.256,98.1351 C261.256,94.2213 264.429,91.0485 268.343,91.0485 C272.257,91.0485 275.43,94.2213 275.43,98.1351 "/>
</g>

<g fill="#000000" fill-opacity="1" stroke="none" transform="matrix(0.999067,0,0,0.999067,0,0)"
font-family=".SF NS Text" font-size="54.1667" font-weight="400" font-style="normal" 
>
<path vector-effect="non-scaling-stroke" fill-rule="evenodd" d="M271.296,98.1351 C271.296,99.7659 269.974,101.088 268.343,101.088 C266.712,101.088 265.39,99.7659 265.39,98.1351 C265.39,96.5043 266.712,95.1823 268.343,95.1823 C269.974,95.1823 271.296,96.5043 271.296,98.1351 "/>
</g>

<g fill="#ffffff" fill-opacity="1" stroke="#000000" stroke-opacity="1" stroke-width="2.3622" stroke-linecap="square" stroke-linejoin="bevel" transform="matrix(0.999067,0,0,0.999067,0,0)"
font-family=".SF NS Text" font-size="54.1667" font-weight="400" font-style="normal" 
>
<path vector-effect="none" fill-rule="evenodd" d="M58.1489,107.61 C58.1489,110.545 55.7693,112.925 52.8339,112.925 C49.8985,112.925 47.5189,110.545 47.5189,107.61 C47.5189,104.675 49.8985,102.295 52.8339,102.295 C55.7693,102.295 58.1489,104.675 58.1489,107.61 "/>
<path vector-effect="none" fill-rule="evenodd" d="M200.743,111.93 C200.743,114.866 198.363,117.245 195.428,117.245 C192.493,117.245 190.113,114.866 190.113,111.93 C190.113,108.995 192.493,106.616 195.428,106.616 C198.363,106.616 200.743,108.995 200.743,111.93 "/>
<path vector-effect="none" fill-rule="evenodd" d="M241.881,123.149 C241.881,126.084 239.502,128.464 236.567,128.464 C233.631,128.464 231.252,126.084 231.252,123.149 C231.252,120.213 233.631,117.834 236.567,117.834 C239.502,117.834 241.881,120.213 241.881,123.149 "/>
<path vector-effect="none" fill-rule="evenodd" d="M241.881,123.149 C241.881,126.084 239.502,128.464 236.567,128.464 C233.631,128.464 231.252,126.084 231.252,123.149 C231.252,120.213 233.631,117.834 236.567,117.834 C239.502,117.834 241.881,120.213 241.881,123.149 "/>
<path vector-effect="none" fill-rule="evenodd" d="M453.295,222.445 C453.295,225.38 450.915,227.76 447.98,227.76 C445.044,227.76 442.665,225.38 442.665,222.445 C442.665,219.51 445.044,217.13 447.98,217.13 C450.915,217.13 453.295,219.51 453.295,222.445 "/>
<path vector-effect="none" fill-rule="evenodd" d="M614.828,311.944 C614.828,314.879 612.448,317.259 609.513,317.259 C606.578,317.259 604.198,314.879 604.198,311.944 C604.198,309.008 606.578,306.629 609.513,306.629 C612.448,306.629 614.828,309.008 614.828,311.944 "/>
</g>

</g>
</svg>
