<?xml version="1.0" encoding="utf-8"?>
<!-- Generator: Adobe Illustrator 16.0.4, SVG Export Plug-In . SVG Version: 6.00 Build 0)  -->
<!DOCTYPE svg PUBLIC "-//W3C//DTD SVG 1.1//EN" "http://www.w3.org/Graphics/SVG/1.1/DTD/svg11.dtd">
<svg version="1.1" id="Layer_1" xmlns="http://www.w3.org/2000/svg" xmlns:xlink="http://www.w3.org/1999/xlink" x="0px" y="0px"
	 width="68.882px" height="36.851px" viewBox="0 0 68.882 36.851" style="enable-background:new 0 0 68.882 36.851;"
	 xml:space="preserve">
<symbol  id="Node" viewBox="-2.553 -2.551 5.105 5.103">
	<g>
		<path style="fill:#FFFFFF;" d="M1.985,0c0-1.095-0.889-1.984-1.985-1.984S-1.985-1.095-1.985,0S-1.097,1.984,0,1.984
			S1.985,1.095,1.985,0z"/>
		<path d="M0,1.984c1.097,0,1.985-0.89,1.985-1.984S1.097-1.984,0-1.984S-1.985-1.095-1.985,0S-1.097,1.984,0,1.984 M0,2.551
			c-1.407,0-2.553-1.145-2.553-2.551S-1.407-2.551,0-2.551S2.553-1.407,2.553,0S1.407,2.551,0,2.551L0,2.551z"/>
	</g>
	<g>
		<path d="M0.992,0c0-0.548-0.444-0.992-0.992-0.992S-0.992-0.548-0.992,0S-0.548,0.992,0,0.992S0.992,0.548,0.992,0z"/>
	</g>
</symbol>
<symbol  id="Punkt" viewBox="-2.268 -2.269 4.536 4.537">
	<g>
		<path style="fill:#FFFFFF;" d="M1.701,0c0-0.938-0.762-1.701-1.701-1.701S-1.701-0.938-1.701,0c0,0.939,0.762,1.701,1.701,1.701
			S1.701,0.939,1.701,0z"/>
		<path d="M0,1.701c0.939,0,1.701-0.762,1.701-1.701c0-0.938-0.762-1.701-1.701-1.701S-1.701-0.938-1.701,0
			C-1.701,0.939-0.939,1.701,0,1.701 M0,2.269c-1.25,0-2.268-1.018-2.268-2.269S-1.25-2.269,0-2.269S2.268-1.251,2.268,0
			S1.25,2.269,0,2.269L0,2.269z"/>
	</g>
</symbol>
<rect style="fill:#EBEBEB;" width="68.882" height="36.851"/>
<use xlink:href="#Punkt"  width="4.536" height="4.537" id="XMLID_4_" x="-2.268" y="-2.269" transform="matrix(0.8436 0 0 -0.8432 6.2349 14.2764)" style="overflow:visible;"/>
<use xlink:href="#Node"  width="5.105" height="5.103" id="XMLID_3_" x="-2.553" y="-2.551" transform="matrix(0.8883 0 0 -0.8889 6.2349 5.6704)" style="overflow:visible;"/>
<line style="fill:none;stroke:#FF7F00;stroke-width:1.4173;stroke-linejoin:round;" x1="2.833" y1="31.394" x2="9.636" y2="31.394"/>
<g>
	<g>
		
			<line style="fill:none;stroke:#2277CC;stroke-width:0.8504;stroke-linejoin:round;" x1="2.833" y1="22.994" x2="7.982" y2="22.994"/>
		<g>
			<polygon style="fill:#2277CC;" points="7.726,21.083 7.726,24.905 9.636,22.994 			"/>
		</g>
	</g>
</g>
<text transform="matrix(1 0 0 1 12.8477 7.9873)"><tspan x="0" y="0" style="font-family:'CisalpinLTStd-Regular'; font-size:7;">OSM-</tspan><tspan x="18.256" y="0" style="font-family:'CisalpinLTStd-Italic'; font-size:7;">node</tspan><tspan x="0" y="8.4" style="font-family:'CisalpinLTStd-Regular'; font-size:7;">S</tspan><tspan x="3.619" y="8.4" style="font-family:'CisalpinLTStd-Bold'; font-size:4.9;">PLITTEN</tspan><tspan x="22.602" y="8.4" style="font-family:'CisalpinLTStd-Regular'; font-size:7;">-Punkt</tspan><tspan x="0" y="16.8" style="font-family:'CisalpinLTStd-Regular'; font-size:7;">Segment</tspan><tspan x="0" y="25.2" style="font-family:'CisalpinLTStd-Regular'; font-size:7;">Punktezuordnung</tspan></text>
</svg>
