<?xml version="1.0" encoding="UTF-8" standalone="no"?>
<svg width="69.9347mm" height="39.9627mm"
 viewBox="0 0 826 472"
 xmlns="http://www.w3.org/2000/svg" xmlns:xlink="http://www.w3.org/1999/xlink"  version="1.2" baseProfile="tiny">
<desc>Generated with Qt</desc>
<defs>
</defs>
<g fill="none" stroke="black" stroke-width="1" fill-rule="evenodd" stroke-linecap="square" stroke-linejoin="bevel" >

<g fill="#ffffff" fill-opacity="1" stroke="none" transform="matrix(0.999067,0,0,0.999067,0,0)"
font-family=".SF NS Text" font-size="54.1667" font-weight="400" font-style="normal" 
>
<path vector-effect="none" fill-rule="evenodd" d="M-1,-1 L827.772,-1 L827.772,473.441 L-1,473.441 L-1,-1"/>
</g>

<g fill="#ffffff" fill-opacity="1" stroke="none" transform="matrix(11.8,0,0,11.8,0,0)"
font-family=".SF NS Text" font-size="54.1667" font-weight="400" font-style="normal" 
>
<path vector-effect="non-scaling-stroke" fill-rule="evenodd" d="M0,0 L70,0 L70,40 L0,40 L0,0"/>
</g>

<g fill="#000000" fill-opacity="0" stroke="none" transform="matrix(0.999067,0,0,0.999067,0,0)"
font-family=".SF NS Text" font-size="54.1667" font-weight="400" font-style="normal" 
>
<path vector-effect="non-scaling-stroke" fill-rule="evenodd" d="M0,0 L827,0 L827,472 L0,472 L0,0"/>
</g>

<g fill="none" stroke="#000000" stroke-opacity="1" stroke-width="2.3622" stroke-linecap="round" stroke-linejoin="round" transform="matrix(0.999067,0,0,0.999067,0,0)"
font-family=".SF NS Text" font-size="54.1667" font-weight="400" font-style="normal" 
>
<path vector-effect="none" fill-rule="evenodd" d="M94.1516,409.632 L146.29,380.585 L155.932,374.588 L166.851,368.018"/>
<path vector-effect="none" fill-rule="evenodd" d="M164.263,378.59 L180.23,372.004 L223.665,347.633 L226.258,346.752 L239.155,340.76"/>
<path vector-effect="none" fill-rule="evenodd" d="M181.532,352.156 L191.39,345.391 L196.767,341.065 L199.04,338.733 L232.932,317.489"/>
<path vector-effect="none" fill-rule="evenodd" d="M205.119,347.316 L238.433,328.337 L279.83,303.876 L318.584,280.26 L325.273,276.169"/>
<path vector-effect="none" fill-rule="evenodd" d="M203.318,-37.3609 L226.112,-0.7015 L248.625,37.7247 L257.947,55.4037 L273.399,84.4988 L274.909,87.5108 L288.36,115.655 L288.997,118.265 L289.14,121.091 L292.513,128.897 L292.031,133.311 L308.211,171.448"/>
<path vector-effect="none" fill-rule="evenodd" d="M213.779,-46.373 L235.041,-12.8545 L255.81,21.8441 L272.648,51.9511 L274.136,55.482 L288.985,83.8581 L301.182,108.51 L315.351,139.92 L325.894,165.484 L340.6,203.358 L352.096,236.638"/>
<path vector-effect="none" fill-rule="evenodd" d="M249.884,332.941 L282.701,313.638 L284.185,311.886 L286.424,310.267 L315.252,293.14"/>
<path vector-effect="none" fill-rule="evenodd" d="M276.69,293.887 L304.259,277.208 L306.751,276.406 L310.94,273.796"/>
<path vector-effect="none" fill-rule="evenodd" d="M280.387,55.5134 L295.169,83.8825 L296.986,87.1417 L302.16,97.4279 L317.489,128.922 L319.657,132.016 L331.603,155.682"/>
<path vector-effect="none" fill-rule="evenodd" d="M315.135,178.801 L316.49,180.209 L321.543,192.541"/>
<path vector-effect="none" fill-rule="evenodd" d="M326.542,279.714 L384.261,245.248 L387.559,243.23 L440.05,212.494 L492.522,182.089 L551.598,149.609"/>
<path vector-effect="none" fill-rule="evenodd" d="M329.595,269.278 L387.615,232.472"/>
<path vector-effect="none" fill-rule="evenodd" d="M334.045,168.187 L345.105,196.145 L345.383,198.187 L356.223,229.201"/>
<path vector-effect="none" fill-rule="evenodd" d="M344.822,240.251 L358.621,285.332 L359.219,287.414"/>
<path vector-effect="none" fill-rule="evenodd" d="M355.686,234.814 L356.223,229.201"/>
<path vector-effect="none" fill-rule="evenodd" d="M365.171,361.32 L364.075,343.178"/>
<path vector-effect="none" fill-rule="evenodd" d="M352.096,236.638 L365.731,281.159 L366.155,282.532"/>
<path vector-effect="none" fill-rule="evenodd" d="M366.155,282.532 L381.666,340.323 L384.683,351.783 L400.132,428.677 L400.71,432.728"/>
<path vector-effect="none" fill-rule="evenodd" d="M369.513,331.341 L359.219,287.414"/>
<path vector-effect="none" fill-rule="evenodd" d="M369.641,336.636 L369.855,334.842 L369.513,331.341"/>
<path vector-effect="none" fill-rule="evenodd" d="M376.185,371.235 L390.391,427.476 L392.306,432.73"/>
<path vector-effect="none" fill-rule="evenodd" d="M374.901,290.396 L390.504,349.94 L391.558,351.538"/>
<path vector-effect="none" fill-rule="evenodd" d="M393.938,350.925 L395.653,343.585 L389.054,318.413 L395.653,343.585"/>
<path vector-effect="none" fill-rule="evenodd" d="M396.343,434.549 L400.198,457.095 L400.814,460.817 L407.773,514.164 L410.022,532.715"/>
<path vector-effect="none" fill-rule="evenodd" d="M419.766,532.45 L417.563,515.771 L417.196,511.361 L410.389,456.316 L408.051,437.897 L407.129,426.291 L407.611,422.868 L398.92,364.947 L400.298,359.964"/>
<path vector-effect="none" fill-rule="evenodd" d="M396.303,243.682 L437.131,220.86"/>
<path vector-effect="none" fill-rule="evenodd" d="M394.079,246.035 L396.862,244.501"/>
<path vector-effect="none" fill-rule="evenodd" d="M387.615,232.472 L424.021,211.502 L426.28,209.752 L427.38,208.257 L433.767,204.425"/>
<path vector-effect="none" fill-rule="evenodd" d="M444.119,244.102 L445.271,223.097"/>
<path vector-effect="none" fill-rule="evenodd" d="M441.419,197.992 L480.79,176.856 L484.062,175.808 L489.259,173.057 L553.338,137.263 L564.227,131.201 L571.056,127.379"/>
<path vector-effect="none" fill-rule="evenodd" d="M449.271,217.67 L490.958,192.123 L493.691,189.386 L496.656,187.004 L546.339,159.637 L563.209,149.297"/>
<path vector-effect="none" fill-rule="evenodd" d="M449.034,246.821 L450.657,249.332 L451.004,251.108"/>
<path vector-effect="none" fill-rule="evenodd" d="M564.092,125.908 L570.922,122.086 L574.267,120.655"/>
<path vector-effect="none" fill-rule="evenodd" d="M570.961,129.462 L574.306,128.03"/>
<path vector-effect="none" fill-rule="evenodd" d="M574.306,128.03 L633.616,97.2172 L640.073,93.9719 L661.916,83.045 L668.271,80.0956 L759.614,32.7347 L784.324,19.6816 L794.035,14.5523"/>
<path vector-effect="none" fill-rule="evenodd" d="M571.818,140.505 L649.685,99.4858 L665.009,90.9477 L673.97,85.7732 L755.876,43.0681 L762.21,39.4762 L763.917,38.5482 L799.883,19.4483"/>
<path vector-effect="none" fill-rule="evenodd" d="M794.035,14.5523 L900.879,-41.4771 L909.745,-46.0228"/>
<path vector-effect="none" fill-rule="evenodd" d="M-83.437,491.534 L-70.9773,487.066 L-17.156,464.755 L30.7259,442.403 L71.3458,421.644 L82.9359,415.502"/>
<path vector-effect="none" fill-rule="evenodd" d="M159.745,380.535 L164.263,378.59"/>
<path vector-effect="none" fill-rule="evenodd" d="M321.543,192.541 L341.138,242.039"/>
<path vector-effect="none" fill-rule="evenodd" d="M243.966,270.737 L251.125,253.202 L251.517,248.132 L252.502,245.427 L262.518,218.25 L274.616,187.65 L277.237,182.598 L279.415,180.658"/>
<path vector-effect="none" fill-rule="evenodd" d="M278.682,356.089 L282.588,358.554 L311.782,367.767 L325.563,372.398 L329.725,373.052 L341.147,376.088"/>
<path vector-effect="none" fill-rule="evenodd" d="M364.806,161.81 L371.543,164.818 L374.835,164.787 L378.259,165.654 L395.76,171.03 L409.918,175.773 L413.01,178.096"/>
<path vector-effect="none" fill-rule="evenodd" d="M373.533,285.044 L374.901,290.396"/>
<path vector-effect="none" fill-rule="evenodd" d="M401.564,243.115 L404.5,241.982"/>
<path vector-effect="none" fill-rule="evenodd" d="M426.22,352.36 L427.588,351.023 L429.578,349.32 L440.754,313.189 L445.523,298.408 L448.629,284.233 L451.004,251.108"/>
<path vector-effect="none" fill-rule="evenodd" d="M443.87,186.428 L432.37,177.222 L413.01,178.096"/>
<path vector-effect="none" fill-rule="evenodd" d="M364.806,161.81 L350.368,149.198 L334.515,149.546"/>
<path vector-effect="none" fill-rule="evenodd" d="M346.618,192.508 L349.632,182.786 L353.288,176.184 L360.119,170.313 L371.543,164.818"/>
<path vector-effect="none" fill-rule="evenodd" d="M413.01,178.096 L414.925,188.162 L416.34,196.331 L415.792,206.958"/>
<path vector-effect="none" fill-rule="evenodd" d="M385.004,249.104 L394.079,246.035"/>
<path vector-effect="none" fill-rule="evenodd" d="M444.119,244.102 L437.081,242.189 L449.034,246.821"/>
<path vector-effect="none" fill-rule="evenodd" d="M450.657,249.332 L456.093,247.986"/>
<path vector-effect="none" fill-rule="evenodd" d="M426.22,352.36 L418.227,340.95 L411.843,342.001 L405.538,341.103 L395.653,343.585"/>
<path vector-effect="none" fill-rule="evenodd" d="M376.948,288.279 L370.117,281.81"/>
<path vector-effect="none" fill-rule="evenodd" d="M365.171,361.32 L355.351,363.805 L346.615,368.428 L341.147,376.088"/>
<path vector-effect="none" fill-rule="evenodd" d="M278.682,356.089 L276.129,344.884 L274.658,336.702 L275.315,329.529 L282.021,317.646"/>
<path vector-effect="none" fill-rule="evenodd" d="M356.246,291.573 L363.819,332.59"/>
<path vector-effect="none" fill-rule="evenodd" d="M79.2863,410.252 L71.3458,421.644"/>
<path vector-effect="none" fill-rule="evenodd" d="M280.387,55.5134 L275.207,48.4393"/>
<path vector-effect="none" fill-rule="evenodd" d="M285.543,135.576 L279.415,180.658"/>
<path vector-effect="none" fill-rule="evenodd" d="M243.966,270.737 L229.169,313.324"/>
<path vector-effect="none" fill-rule="evenodd" d="M328.326,265.734 L306.932,273.676"/>
<path vector-effect="none" fill-rule="evenodd" d="M277.101,289.651 L269.417,280.525 L261.645,275.218 L257.923,270.316 L255.432,264.167 L251.125,253.202"/>
<path vector-effect="none" fill-rule="evenodd" d="M279.415,180.658 L290.053,180.133 L299.918,179.819 L312.765,181.417"/>
<path vector-effect="none" fill-rule="evenodd" d="M318.748,191.129 L341.138,242.039"/>
<path vector-effect="none" fill-rule="evenodd" d="M238.141,346.5 L245.987,354.599 L259.955,356.089 L278.682,356.089"/>
<path vector-effect="none" fill-rule="evenodd" d="M341.147,376.088 L354.116,390.009 L371.129,389.455"/>
</g>

</g>
</svg>
