<?xml version="1.0" encoding="UTF-8" standalone="no"?>
<svg width="69.9347mm" height="39.9627mm"
 viewBox="0 0 826 472"
 xmlns="http://www.w3.org/2000/svg" xmlns:xlink="http://www.w3.org/1999/xlink"  version="1.2" baseProfile="tiny">
<desc>Generated with Qt</desc>
<defs>
</defs>
<g fill="none" stroke="black" stroke-width="1" fill-rule="evenodd" stroke-linecap="square" stroke-linejoin="bevel" >

<g fill="#ffffff" fill-opacity="1" stroke="none" transform="matrix(0.999067,0,0,0.999067,0,0)"
font-family=".SF NS Text" font-size="54.1667" font-weight="400" font-style="normal" 
>
<path vector-effect="none" fill-rule="evenodd" d="M-1,-1 L827.772,-1 L827.772,473.441 L-1,473.441 L-1,-1"/>
</g>

<g fill="#ffffff" fill-opacity="1" stroke="none" transform="matrix(11.8,0,0,11.8,0,0)"
font-family=".SF NS Text" font-size="54.1667" font-weight="400" font-style="normal" 
>
<path vector-effect="non-scaling-stroke" fill-rule="evenodd" d="M0,0 L70,0 L70,40 L0,40 L0,0"/>
</g>

<g fill="#000000" fill-opacity="0" stroke="none" transform="matrix(0.999067,0,0,0.999067,0,0)"
font-family=".SF NS Text" font-size="54.1667" font-weight="400" font-style="normal" 
>
<path vector-effect="non-scaling-stroke" fill-rule="evenodd" d="M0,0 L827,0 L827,472 L0,472 L0,0"/>
</g>

<g fill="none" stroke="#bbbbbb" stroke-opacity="1" stroke-width="3.54331" stroke-linecap="round" stroke-linejoin="round" transform="matrix(0.999067,0,0,0.999067,0,0)"
font-family=".SF NS Text" font-size="54.1667" font-weight="400" font-style="normal" 
>
<path vector-effect="none" fill-rule="evenodd" d="M572.67,328.104 L703.801,409.877"/>
<path vector-effect="none" fill-rule="evenodd" d="M703.801,409.877 L942.032,510.686"/>
<path vector-effect="none" fill-rule="evenodd" d="M276.308,135.468 L153.414,73.0383"/>
<path vector-effect="none" fill-rule="evenodd" d="M153.414,73.0383 L-108.518,-41.8141"/>
<path vector-effect="none" fill-rule="evenodd" d="M-194.674,-0.604377 L264.74,198.224"/>
<path vector-effect="none" fill-rule="evenodd" d="M264.74,198.224 L572.67,328.104"/>
<path vector-effect="none" fill-rule="evenodd" d="M572.67,328.104 L974.68,495.073"/>
<path vector-effect="none" fill-rule="evenodd" d="M1044.26,461.796 L593.69,272.12"/>
<path vector-effect="none" fill-rule="evenodd" d="M593.69,272.12 L276.308,135.468"/>
<path vector-effect="none" fill-rule="evenodd" d="M276.308,135.468 L-126.145,-33.383"/>
</g>

<g fill="none" stroke="#ffffff" stroke-opacity="1" stroke-dasharray="0.011811,9.44882" stroke-dashoffset="0" stroke-width="2.95276" stroke-linecap="round" stroke-linejoin="round" transform="matrix(0.999067,0,0,0.999067,0,0)"
font-family=".SF NS Text" font-size="54.1667" font-weight="400" font-style="normal" 
>
<path vector-effect="none" fill-rule="evenodd" d="M153.414,73.0383 L264.74,198.224"/>
</g>

<g fill="none" stroke="#ff7f00" stroke-opacity="1" stroke-width="5.90551" stroke-linecap="square" stroke-linejoin="bevel" transform="matrix(0.999067,0,0,0.999067,0,0)"
font-family=".SF NS Text" font-size="54.1667" font-weight="400" font-style="normal" 
>
<path vector-effect="none" fill-rule="evenodd" d="M153.414,73.0383 L264.74,198.224"/>
</g>

<g fill="none" stroke="#ffffff" stroke-opacity="1" stroke-dasharray="0.011811,9.44882" stroke-dashoffset="0" stroke-width="2.95276" stroke-linecap="round" stroke-linejoin="round" transform="matrix(0.999067,0,0,0.999067,0,0)"
font-family=".SF NS Text" font-size="54.1667" font-weight="400" font-style="normal" 
>
<path vector-effect="none" fill-rule="evenodd" d="M153.414,73.0383 L276.308,135.468"/>
</g>

<g fill="none" stroke="#ff7f00" stroke-opacity="1" stroke-width="5.90551" stroke-linecap="square" stroke-linejoin="bevel" transform="matrix(0.999067,0,0,0.999067,0,0)"
font-family=".SF NS Text" font-size="54.1667" font-weight="400" font-style="normal" 
>
<path vector-effect="none" fill-rule="evenodd" d="M153.414,73.0383 L276.308,135.468"/>
</g>

<g fill="none" stroke="#ffffff" stroke-opacity="1" stroke-dasharray="0.011811,9.44882" stroke-dashoffset="0" stroke-width="2.95276" stroke-linecap="round" stroke-linejoin="round" transform="matrix(0.999067,0,0,0.999067,0,0)"
font-family=".SF NS Text" font-size="54.1667" font-weight="400" font-style="normal" 
>
<path vector-effect="none" fill-rule="evenodd" d="M276.308,135.468 L264.74,198.224"/>
</g>

<g fill="none" stroke="#ff7f00" stroke-opacity="1" stroke-width="5.90551" stroke-linecap="square" stroke-linejoin="bevel" transform="matrix(0.999067,0,0,0.999067,0,0)"
font-family=".SF NS Text" font-size="54.1667" font-weight="400" font-style="normal" 
>
<path vector-effect="none" fill-rule="evenodd" d="M276.308,135.468 L264.74,198.224"/>
</g>

<g fill="none" stroke="#ffffff" stroke-opacity="1" stroke-dasharray="0.011811,9.44882" stroke-dashoffset="0" stroke-width="2.95276" stroke-linecap="round" stroke-linejoin="round" transform="matrix(0.999067,0,0,0.999067,0,0)"
font-family=".SF NS Text" font-size="54.1667" font-weight="400" font-style="normal" 
>
<path vector-effect="none" fill-rule="evenodd" d="M703.801,409.877 L572.67,328.104"/>
</g>

<g fill="none" stroke="#ff7f00" stroke-opacity="1" stroke-width="5.90551" stroke-linecap="square" stroke-linejoin="bevel" transform="matrix(0.999067,0,0,0.999067,0,0)"
font-family=".SF NS Text" font-size="54.1667" font-weight="400" font-style="normal" 
>
<path vector-effect="none" fill-rule="evenodd" d="M703.801,409.877 L572.67,328.104"/>
</g>

<g fill="none" stroke="#ffffff" stroke-opacity="1" stroke-dasharray="0.011811,9.44882" stroke-dashoffset="0" stroke-width="2.95276" stroke-linecap="round" stroke-linejoin="round" transform="matrix(0.999067,0,0,0.999067,0,0)"
font-family=".SF NS Text" font-size="54.1667" font-weight="400" font-style="normal" 
>
<path vector-effect="none" fill-rule="evenodd" d="M572.67,328.104 L593.69,272.12"/>
</g>

<g fill="none" stroke="#ff7f00" stroke-opacity="1" stroke-width="5.90551" stroke-linecap="square" stroke-linejoin="bevel" transform="matrix(0.999067,0,0,0.999067,0,0)"
font-family=".SF NS Text" font-size="54.1667" font-weight="400" font-style="normal" 
>
<path vector-effect="none" fill-rule="evenodd" d="M572.67,328.104 L593.69,272.12"/>
</g>

<g fill="#ffffff" fill-opacity="1" stroke="#bbbbbb" stroke-opacity="1" stroke-width="2.3622" stroke-linecap="square" stroke-linejoin="bevel" transform="matrix(0.999067,0,0,0.999067,0,0)"
font-family=".SF NS Text" font-size="54.1667" font-weight="400" font-style="normal" 
>
<path vector-effect="none" fill-rule="evenodd" d="M710.887,409.877 C710.887,413.791 707.715,416.964 703.801,416.964 C699.887,416.964 696.714,413.791 696.714,409.877 C696.714,405.963 699.887,402.79 703.801,402.79 C707.715,402.79 710.887,405.963 710.887,409.877 "/>
</g>

<g fill="#bbbbbb" fill-opacity="1" stroke="none" transform="matrix(0.999067,0,0,0.999067,0,0)"
font-family=".SF NS Text" font-size="54.1667" font-weight="400" font-style="normal" 
>
<path vector-effect="non-scaling-stroke" fill-rule="evenodd" d="M706.753,409.877 C706.753,411.508 705.431,412.83 703.801,412.83 C702.17,412.83 700.848,411.508 700.848,409.877 C700.848,408.246 702.17,406.924 703.801,406.924 C705.431,406.924 706.753,408.246 706.753,409.877 "/>
</g>

<g fill="#ffffff" fill-opacity="1" stroke="#bbbbbb" stroke-opacity="1" stroke-width="2.3622" stroke-linecap="square" stroke-linejoin="bevel" transform="matrix(0.999067,0,0,0.999067,0,0)"
font-family=".SF NS Text" font-size="54.1667" font-weight="400" font-style="normal" 
>
<path vector-effect="none" fill-rule="evenodd" d="M600.777,272.12 C600.777,276.034 597.604,279.207 593.69,279.207 C589.776,279.207 586.603,276.034 586.603,272.12 C586.603,268.206 589.776,265.033 593.69,265.033 C597.604,265.033 600.777,268.206 600.777,272.12 "/>
</g>

<g fill="#bbbbbb" fill-opacity="1" stroke="none" transform="matrix(0.999067,0,0,0.999067,0,0)"
font-family=".SF NS Text" font-size="54.1667" font-weight="400" font-style="normal" 
>
<path vector-effect="non-scaling-stroke" fill-rule="evenodd" d="M596.643,272.12 C596.643,273.751 595.321,275.073 593.69,275.073 C592.059,275.073 590.737,273.751 590.737,272.12 C590.737,270.489 592.059,269.167 593.69,269.167 C595.321,269.167 596.643,270.489 596.643,272.12 "/>
</g>

<g fill="#ffffff" fill-opacity="1" stroke="#bbbbbb" stroke-opacity="1" stroke-width="2.3622" stroke-linecap="square" stroke-linejoin="bevel" transform="matrix(0.999067,0,0,0.999067,0,0)"
font-family=".SF NS Text" font-size="54.1667" font-weight="400" font-style="normal" 
>
<path vector-effect="none" fill-rule="evenodd" d="M579.756,328.104 C579.756,332.018 576.584,335.191 572.67,335.191 C568.756,335.191 565.583,332.018 565.583,328.104 C565.583,324.19 568.756,321.017 572.67,321.017 C576.584,321.017 579.756,324.19 579.756,328.104 "/>
</g>

<g fill="#bbbbbb" fill-opacity="1" stroke="none" transform="matrix(0.999067,0,0,0.999067,0,0)"
font-family=".SF NS Text" font-size="54.1667" font-weight="400" font-style="normal" 
>
<path vector-effect="non-scaling-stroke" fill-rule="evenodd" d="M575.623,328.104 C575.623,329.735 574.301,331.057 572.67,331.057 C571.039,331.057 569.717,329.735 569.717,328.104 C569.717,326.473 571.039,325.151 572.67,325.151 C574.301,325.151 575.623,326.473 575.623,328.104 "/>
</g>

<g fill="#ffffff" fill-opacity="1" stroke="#bbbbbb" stroke-opacity="1" stroke-width="2.3622" stroke-linecap="square" stroke-linejoin="bevel" transform="matrix(0.999067,0,0,0.999067,0,0)"
font-family=".SF NS Text" font-size="54.1667" font-weight="400" font-style="normal" 
>
<path vector-effect="none" fill-rule="evenodd" d="M283.395,135.468 C283.395,139.382 280.222,142.555 276.308,142.555 C272.395,142.555 269.222,139.382 269.222,135.468 C269.222,131.554 272.395,128.382 276.308,128.382 C280.222,128.382 283.395,131.554 283.395,135.468 "/>
</g>

<g fill="#bbbbbb" fill-opacity="1" stroke="none" transform="matrix(0.999067,0,0,0.999067,0,0)"
font-family=".SF NS Text" font-size="54.1667" font-weight="400" font-style="normal" 
>
<path vector-effect="non-scaling-stroke" fill-rule="evenodd" d="M279.261,135.468 C279.261,137.099 277.939,138.421 276.308,138.421 C274.678,138.421 273.356,137.099 273.356,135.468 C273.356,133.837 274.678,132.515 276.308,132.515 C277.939,132.515 279.261,133.837 279.261,135.468 "/>
</g>

<g fill="#ffffff" fill-opacity="1" stroke="#bbbbbb" stroke-opacity="1" stroke-width="2.3622" stroke-linecap="square" stroke-linejoin="bevel" transform="matrix(0.999067,0,0,0.999067,0,0)"
font-family=".SF NS Text" font-size="54.1667" font-weight="400" font-style="normal" 
>
<path vector-effect="none" fill-rule="evenodd" d="M271.827,198.224 C271.827,202.137 268.654,205.31 264.74,205.31 C260.827,205.31 257.654,202.137 257.654,198.224 C257.654,194.31 260.827,191.137 264.74,191.137 C268.654,191.137 271.827,194.31 271.827,198.224 "/>
</g>

<g fill="#bbbbbb" fill-opacity="1" stroke="none" transform="matrix(0.999067,0,0,0.999067,0,0)"
font-family=".SF NS Text" font-size="54.1667" font-weight="400" font-style="normal" 
>
<path vector-effect="non-scaling-stroke" fill-rule="evenodd" d="M267.693,198.224 C267.693,199.854 266.371,201.176 264.74,201.176 C263.11,201.176 261.788,199.854 261.788,198.224 C261.788,196.593 263.11,195.271 264.74,195.271 C266.371,195.271 267.693,196.593 267.693,198.224 "/>
</g>

<g fill="#ffffff" fill-opacity="1" stroke="#bbbbbb" stroke-opacity="1" stroke-width="2.3622" stroke-linecap="square" stroke-linejoin="bevel" transform="matrix(0.999067,0,0,0.999067,0,0)"
font-family=".SF NS Text" font-size="54.1667" font-weight="400" font-style="normal" 
>
<path vector-effect="none" fill-rule="evenodd" d="M160.5,73.0383 C160.5,76.9522 157.328,80.125 153.414,80.125 C149.5,80.125 146.327,76.9522 146.327,73.0383 C146.327,69.1245 149.5,65.9517 153.414,65.9517 C157.328,65.9517 160.5,69.1245 160.5,73.0383 "/>
</g>

<g fill="#bbbbbb" fill-opacity="1" stroke="none" transform="matrix(0.999067,0,0,0.999067,0,0)"
font-family=".SF NS Text" font-size="54.1667" font-weight="400" font-style="normal" 
>
<path vector-effect="non-scaling-stroke" fill-rule="evenodd" d="M156.366,73.0383 C156.366,74.6691 155.044,75.9911 153.414,75.9911 C151.783,75.9911 150.461,74.6691 150.461,73.0383 C150.461,71.4076 151.783,70.0856 153.414,70.0856 C155.044,70.0856 156.366,71.4076 156.366,73.0383 "/>
</g>

<g fill="none" stroke="#2277cc" stroke-opacity="1" stroke-width="3.54331" stroke-linecap="round" stroke-linejoin="round" transform="matrix(0.999067,0,0,0.999067,0,0)"
font-family=".SF NS Text" font-size="54.1667" font-weight="400" font-style="normal" 
>
<path vector-effect="none" fill-rule="evenodd" d="M-116.931,-37.7901 L214.861,104.253"/>
<path vector-effect="none" fill-rule="evenodd" d="M-160.585,-16.9094 L270.524,166.846"/>
<path vector-effect="none" fill-rule="evenodd" d="M638.235,368.99 L958.269,502.921"/>
<path vector-effect="none" fill-rule="evenodd" d="M270.524,166.846 L583.18,300.112 L1009.55,478.397"/>
<path vector-effect="none" fill-rule="evenodd" d="M583.18,300.112 L638.235,368.99"/>
<path vector-effect="none" fill-rule="evenodd" d="M270.524,166.846 L214.861,104.253"/>
</g>

<g fill="#ffffff" fill-opacity="1" stroke="#000000" stroke-opacity="1" stroke-width="2.3622" stroke-linecap="square" stroke-linejoin="bevel" transform="matrix(0.999067,0,0,0.999067,0,0)"
font-family=".SF NS Text" font-size="54.1667" font-weight="400" font-style="normal" 
>
<path vector-effect="none" fill-rule="evenodd" d="M220.176,104.253 C220.176,107.189 217.797,109.568 214.861,109.568 C211.926,109.568 209.546,107.189 209.546,104.253 C209.546,101.318 211.926,98.9383 214.861,98.9383 C217.797,98.9383 220.176,101.318 220.176,104.253 "/>
<path vector-effect="none" fill-rule="evenodd" d="M275.839,166.846 C275.839,169.781 273.46,172.161 270.524,172.161 C267.589,172.161 265.21,169.781 265.21,166.846 C265.21,163.911 267.589,161.531 270.524,161.531 C273.46,161.531 275.839,163.911 275.839,166.846 "/>
<path vector-effect="none" fill-rule="evenodd" d="M643.55,368.99 C643.55,371.926 641.171,374.305 638.235,374.305 C635.3,374.305 632.92,371.926 632.92,368.99 C632.92,366.055 635.3,363.676 638.235,363.676 C641.171,363.676 643.55,366.055 643.55,368.99 "/>
<path vector-effect="none" fill-rule="evenodd" d="M275.839,166.846 C275.839,169.781 273.46,172.161 270.524,172.161 C267.589,172.161 265.21,169.781 265.21,166.846 C265.21,163.911 267.589,161.531 270.524,161.531 C273.46,161.531 275.839,163.911 275.839,166.846 "/>
<path vector-effect="none" fill-rule="evenodd" d="M588.495,300.112 C588.495,303.047 586.115,305.427 583.18,305.427 C580.244,305.427 577.865,303.047 577.865,300.112 C577.865,297.177 580.244,294.797 583.18,294.797 C586.115,294.797 588.495,297.177 588.495,300.112 "/>
</g>

</g>
</svg>
