<?xml version="1.0" encoding="UTF-8" standalone="no"?>
<svg width="69.9347mm" height="39.9627mm"
 viewBox="0 0 826 472"
 xmlns="http://www.w3.org/2000/svg" xmlns:xlink="http://www.w3.org/1999/xlink"  version="1.2" baseProfile="tiny">
<desc>Generated with Qt</desc>
<defs>
</defs>
<g fill="none" stroke="black" stroke-width="1" fill-rule="evenodd" stroke-linecap="square" stroke-linejoin="bevel" >

<g fill="#ffffff" fill-opacity="1" stroke="none" transform="matrix(0.999067,0,0,0.999067,0,0)"
font-family=".SF NS Text" font-size="54.1667" font-weight="400" font-style="normal" 
>
<path vector-effect="none" fill-rule="evenodd" d="M-1,-1 L827.772,-1 L827.772,473.441 L-1,473.441 L-1,-1"/>
</g>

<g fill="#ffffff" fill-opacity="1" stroke="none" transform="matrix(11.8,0,0,11.8,0,0)"
font-family=".SF NS Text" font-size="54.1667" font-weight="400" font-style="normal" 
>
<path vector-effect="non-scaling-stroke" fill-rule="evenodd" d="M0,0 L70,0 L70,40 L0,40 L0,0"/>
</g>

<g fill="#000000" fill-opacity="0" stroke="none" transform="matrix(0.999067,0,0,0.999067,0,0)"
font-family=".SF NS Text" font-size="54.1667" font-weight="400" font-style="normal" 
>
<path vector-effect="non-scaling-stroke" fill-rule="evenodd" d="M0,0 L827,0 L827,472 L0,472 L0,0"/>
</g>

<g fill="none" stroke="#bbbbbb" stroke-opacity="1" stroke-width="3.54331" stroke-linecap="round" stroke-linejoin="round" transform="matrix(0.999067,0,0,0.999067,0,0)"
font-family=".SF NS Text" font-size="54.1667" font-weight="400" font-style="normal" 
>
<path vector-effect="none" fill-rule="evenodd" d="M-116.931,-37.7901 L214.861,104.253"/>
<path vector-effect="none" fill-rule="evenodd" d="M-160.585,-16.9094 L270.524,166.846"/>
<path vector-effect="none" fill-rule="evenodd" d="M638.235,368.99 L958.269,502.921"/>
<path vector-effect="none" fill-rule="evenodd" d="M270.524,166.846 L583.18,300.112"/>
<path vector-effect="none" fill-rule="evenodd" d="M583.18,300.112 L1009.55,478.397"/>
<path vector-effect="none" fill-rule="evenodd" d="M583.18,300.112 L638.235,368.99"/>
<path vector-effect="none" fill-rule="evenodd" d="M270.524,166.846 L214.861,104.253"/>
</g>

<g fill="none" stroke="#ffffff" stroke-opacity="1" stroke-dasharray="0.011811,9.44882" stroke-dashoffset="0" stroke-width="2.95276" stroke-linecap="round" stroke-linejoin="round" transform="matrix(0.999067,0,0,0.999067,0,0)"
font-family=".SF NS Text" font-size="54.1667" font-weight="400" font-style="normal" 
>
<path vector-effect="none" fill-rule="evenodd" d="M214.861,104.253 L270.524,166.846"/>
</g>

<g fill="none" stroke="#ff7f00" stroke-opacity="1" stroke-width="5.90551" stroke-linecap="square" stroke-linejoin="bevel" transform="matrix(0.999067,0,0,0.999067,0,0)"
font-family=".SF NS Text" font-size="54.1667" font-weight="400" font-style="normal" 
>
<path vector-effect="none" fill-rule="evenodd" d="M214.861,104.253 L270.524,166.846"/>
</g>

<g fill="none" stroke="#ffffff" stroke-opacity="1" stroke-dasharray="0.011811,9.44882" stroke-dashoffset="0" stroke-width="2.95276" stroke-linecap="round" stroke-linejoin="round" transform="matrix(0.999067,0,0,0.999067,0,0)"
font-family=".SF NS Text" font-size="54.1667" font-weight="400" font-style="normal" 
>
<path vector-effect="none" fill-rule="evenodd" d="M270.524,166.846 L270.524,166.846"/>
</g>

<g fill="none" stroke="#ff7f00" stroke-opacity="1" stroke-width="5.90551" stroke-linecap="square" stroke-linejoin="bevel" transform="matrix(0.999067,0,0,0.999067,0,0)"
font-family=".SF NS Text" font-size="54.1667" font-weight="400" font-style="normal" 
>
<path vector-effect="none" fill-rule="evenodd" d="M270.524,166.846 L270.524,166.846"/>
</g>

<g fill="none" stroke="#ffffff" stroke-opacity="1" stroke-dasharray="0.011811,9.44882" stroke-dashoffset="0" stroke-width="2.95276" stroke-linecap="round" stroke-linejoin="round" transform="matrix(0.999067,0,0,0.999067,0,0)"
font-family=".SF NS Text" font-size="54.1667" font-weight="400" font-style="normal" 
>
<path vector-effect="none" fill-rule="evenodd" d="M638.235,368.99 L583.18,300.112"/>
</g>

<g fill="none" stroke="#ff7f00" stroke-opacity="1" stroke-width="5.90551" stroke-linecap="square" stroke-linejoin="bevel" transform="matrix(0.999067,0,0,0.999067,0,0)"
font-family=".SF NS Text" font-size="54.1667" font-weight="400" font-style="normal" 
>
<path vector-effect="none" fill-rule="evenodd" d="M638.235,368.99 L583.18,300.112"/>
</g>

<g fill="none" stroke="#ffffff" stroke-opacity="1" stroke-dasharray="0.011811,9.44882" stroke-dashoffset="0" stroke-width="2.95276" stroke-linecap="round" stroke-linejoin="round" transform="matrix(0.999067,0,0,0.999067,0,0)"
font-family=".SF NS Text" font-size="54.1667" font-weight="400" font-style="normal" 
>
<path vector-effect="none" fill-rule="evenodd" d="M583.18,300.112 L583.18,300.112"/>
</g>

<g fill="none" stroke="#ff7f00" stroke-opacity="1" stroke-width="5.90551" stroke-linecap="square" stroke-linejoin="bevel" transform="matrix(0.999067,0,0,0.999067,0,0)"
font-family=".SF NS Text" font-size="54.1667" font-weight="400" font-style="normal" 
>
<path vector-effect="none" fill-rule="evenodd" d="M583.18,300.112 L583.18,300.112"/>
</g>

<g fill="#ffffff" fill-opacity="1" stroke="#c9c9c9" stroke-opacity="1" stroke-width="2.3622" stroke-linecap="square" stroke-linejoin="bevel" transform="matrix(0.999067,0,0,0.999067,0,0)"
font-family=".SF NS Text" font-size="54.1667" font-weight="400" font-style="normal" 
>
<path vector-effect="none" fill-rule="evenodd" d="M220.176,104.253 C220.176,107.189 217.797,109.568 214.861,109.568 C211.926,109.568 209.546,107.189 209.546,104.253 C209.546,101.318 211.926,98.9383 214.861,98.9383 C217.797,98.9383 220.176,101.318 220.176,104.253 "/>
<path vector-effect="none" fill-rule="evenodd" d="M643.55,368.99 C643.55,371.926 641.171,374.305 638.235,374.305 C635.3,374.305 632.92,371.926 632.92,368.99 C632.92,366.055 635.3,363.676 638.235,363.676 C641.171,363.676 643.55,366.055 643.55,368.99 "/>
</g>

<g fill="none" stroke="#2277cc" stroke-opacity="1" stroke-width="3.54331" stroke-linecap="round" stroke-linejoin="round" transform="matrix(0.999067,0,0,0.999067,0,0)"
font-family=".SF NS Text" font-size="54.1667" font-weight="400" font-style="normal" 
>
<path vector-effect="none" fill-rule="evenodd" d="M-138.727,-27.3647 L242.693,135.55"/>
<path vector-effect="none" fill-rule="evenodd" d="M270.524,166.846 L242.693,135.55"/>
<path vector-effect="none" fill-rule="evenodd" d="M610.708,334.551 L983.905,490.661"/>
<path vector-effect="none" fill-rule="evenodd" d="M583.18,300.112 L610.708,334.551"/>
<path vector-effect="none" fill-rule="evenodd" d="M270.524,166.846 L583.18,300.112"/>
</g>

<g fill="#ffffff" fill-opacity="1" stroke="#000000" stroke-opacity="1" stroke-width="2.3622" stroke-linecap="square" stroke-linejoin="bevel" transform="matrix(0.999067,0,0,0.999067,0,0)"
font-family=".SF NS Text" font-size="54.1667" font-weight="400" font-style="normal" 
>
<path vector-effect="none" fill-rule="evenodd" d="M248.008,135.55 C248.008,138.485 245.628,140.865 242.693,140.865 C239.758,140.865 237.378,138.485 237.378,135.55 C237.378,132.614 239.758,130.235 242.693,130.235 C245.628,130.235 248.008,132.614 248.008,135.55 "/>
<path vector-effect="none" fill-rule="evenodd" d="M275.839,166.846 C275.839,169.781 273.46,172.161 270.524,172.161 C267.589,172.161 265.21,169.781 265.21,166.846 C265.21,163.911 267.589,161.531 270.524,161.531 C273.46,161.531 275.839,163.911 275.839,166.846 "/>
<path vector-effect="none" fill-rule="evenodd" d="M248.008,135.55 C248.008,138.485 245.628,140.865 242.693,140.865 C239.758,140.865 237.378,138.485 237.378,135.55 C237.378,132.614 239.758,130.235 242.693,130.235 C245.628,130.235 248.008,132.614 248.008,135.55 "/>
<path vector-effect="none" fill-rule="evenodd" d="M616.023,334.551 C616.023,337.487 613.643,339.866 610.708,339.866 C607.772,339.866 605.393,337.487 605.393,334.551 C605.393,331.616 607.772,329.236 610.708,329.236 C613.643,329.236 616.023,331.616 616.023,334.551 "/>
<path vector-effect="none" fill-rule="evenodd" d="M588.495,300.112 C588.495,303.047 586.115,305.427 583.18,305.427 C580.244,305.427 577.865,303.047 577.865,300.112 C577.865,297.177 580.244,294.797 583.18,294.797 C586.115,294.797 588.495,297.177 588.495,300.112 "/>
<path vector-effect="none" fill-rule="evenodd" d="M616.023,334.551 C616.023,337.487 613.643,339.866 610.708,339.866 C607.772,339.866 605.393,337.487 605.393,334.551 C605.393,331.616 607.772,329.236 610.708,329.236 C613.643,329.236 616.023,331.616 616.023,334.551 "/>
</g>

</g>
</svg>
