<?xml version="1.0" encoding="UTF-8" standalone="no"?>
<svg width="69.9347mm" height="39.9627mm"
 viewBox="0 0 826 472"
 xmlns="http://www.w3.org/2000/svg" xmlns:xlink="http://www.w3.org/1999/xlink"  version="1.2" baseProfile="tiny">
<desc>Generated with Qt</desc>
<defs>
</defs>
<g fill="none" stroke="black" stroke-width="1" fill-rule="evenodd" stroke-linecap="square" stroke-linejoin="bevel" >

<g fill="#ffffff" fill-opacity="1" stroke="none" transform="matrix(0.999067,0,0,0.999067,0,0)"
font-family=".SF NS Text" font-size="54.1667" font-weight="400" font-style="normal" 
>
<path vector-effect="none" fill-rule="evenodd" d="M-1,-1 L827.772,-1 L827.772,473.441 L-1,473.441 L-1,-1"/>
</g>

<g fill="#ffffff" fill-opacity="1" stroke="none" transform="matrix(11.8,0,0,11.8,0,0)"
font-family=".SF NS Text" font-size="54.1667" font-weight="400" font-style="normal" 
>
<path vector-effect="non-scaling-stroke" fill-rule="evenodd" d="M0,0 L70,0 L70,40 L0,40 L0,0"/>
</g>

<g fill="#000000" fill-opacity="0" stroke="none" transform="matrix(0.999067,0,0,0.999067,0,0)"
font-family=".SF NS Text" font-size="54.1667" font-weight="400" font-style="normal" 
>
<path vector-effect="non-scaling-stroke" fill-rule="evenodd" d="M0,0 L827,0 L827,472 L0,472 L0,0"/>
</g>

<g fill="none" stroke="#33a02c" stroke-opacity="1" stroke-width="4.13386" stroke-linecap="round" stroke-linejoin="round" transform="matrix(0.999067,0,0,0.999067,0,0)"
font-family=".SF NS Text" font-size="54.1667" font-weight="400" font-style="normal" 
>
<path vector-effect="none" fill-rule="evenodd" d="M-202.257,165.509 L-186.51,169.982 L-143.678,183.042 L-49.9401,211.505 L-29.1181,217.898 L-15.6025,222.457 L-3.14462,227.206 L9.08037,232.62 L20.5324,238.456 L33.5265,245.666 L43.1418,251.434 L54.0108,258.82 L68.5862,269.506 L85.8835,283.812 L103.237,298.037 L157.294,343.313 L193.756,373.493 L211.931,387.516 L228.363,398.241 L243.42,406.069 L258.88,412.489 L275.602,417.663 L293.073,421.156 L313.185,423.441 L331.338,423.739 L347.236,421.86 L349.123,421.635 L368.531,417.427 L387.599,411.461 L401.888,405.438 L411.695,400.523 L420.732,394.992 L432.664,387.213 L436.301,384.475 L452.313,371.9 L459.616,364.525 L469.41,353.036 L479.332,338.964 L488.701,323.811 L496.718,304.467 L502.464,288.697 L506.529,274.536 L508.786,263.937 L510.963,251.323 L512.781,237.845 L514.569,215.526 L514.575,214.891 L514.599,214.03 L514.958,203.97 L516.418,164.036"/>
<path vector-effect="none" fill-rule="evenodd" d="M-216.782,119.574 L-207.785,122.925 L-150.291,143.794 L-143.713,146.045 L-129.636,150.759 L-90.1097,162.964 L-74.3244,167.765 L16.3201,195.172 L30.1986,199.415 L89.486,217.686 L105.632,223.29 L133.553,233.011 L146.582,237.198 L177.714,247.264 L271.483,278.504 L326.653,295.887 L407.722,321.171 L448.275,334.029 L449.185,334.336 L471.054,341.642 L484.848,346.41 L508.968,354.87 L528.169,361.908 L563.837,376.071 L571.785,379.225 L591.367,387.585 L603.797,393.161 L624.078,402.253 L656.304,417.532 L688.266,433.152 L724.125,450.641 L728.113,452.624 L742.27,459.66 L823.869,500.077 L853.953,514.821 L885.69,531.193"/>
<path vector-effect="none" fill-rule="evenodd" d="M443.473,-218.023 L475.592,-116.574 L482.542,-94.5374 L483.026,-92.9243 L488.857,-73.4946 L494.503,-53.0709 L497.318,-41.6057 L501.263,-24.2721 L504.192,-8.9975 L505.367,-0.934672 L508.523,23.1686 L510.206,38.1498 L511.425,51.9676 L514.138,87.8233 L514.771,95.7117 L515.532,105.571 L515.638,107.332 L516.1,112.403 L519.94,163.442"/>
<path vector-effect="none" fill-rule="evenodd" d="M-211.777,135.401 L-195.509,141.651 L-175.273,149.114 L-158.662,154.889 L-142.282,160.583 L-122.965,166.904 L-121.725,167.311 L-34.7705,193.925 L64.714,223.901 L137.174,245.832 L212.151,268.515 L258.837,282.698 L262.69,283.822 L324.691,302.615 L327.693,303.524 L333.826,305.347 L405.344,327.442 L466.757,347.283 L480.698,352.049 L490.409,355.452 L508.306,361.729 L527.34,369.262 L569.027,386 L588.386,394.268 L621.004,408.802 L622.481,409.501 L627.26,411.777 L628.044,412.147 L640.548,418.087 L653.157,424.076 L684.735,439.693 L716.326,455.305 L765.011,479.358 L805.525,499.371 L812.028,502.501 L850.15,520.971 L853.538,522.666 L876.44,534.117"/>
<path vector-effect="none" fill-rule="evenodd" d="M523.768,213.334 L526.584,251.31 L527.808,275.385 L528.146,290.152 L528.007,307.35 L527.117,327.95 L525.655,345.536 L520.742,394.282 L519.082,408.165 L512.593,465.041 L511.769,472.883 L505.395,534.386 L503.221,553.51 L499.285,590.033 L495.791,632.307 L495.167,654.653"/>
<path vector-effect="none" fill-rule="evenodd" d="M516.418,164.036 L516.978,144.114 L516.993,137.818 L516.1,112.403"/>
</g>

<g fill="none" stroke="#000000" stroke-opacity="1" stroke-width="2.3622" stroke-linecap="round" stroke-linejoin="round" transform="matrix(0.999067,0,0,0.999067,0,0)"
font-family=".SF NS Text" font-size="54.1667" font-weight="400" font-style="normal" 
>
<path vector-effect="none" fill-rule="evenodd" d="M466.678,-28.9561 L452.686,-54.5538 L445.975,-69.7066 L437.203,-86.2289 L436.202,-88.1189 L424.953,-106.455 L420.713,-113.791 L404.953,-142.178 L386.517,-174.257 L379.399,-187.949 L374.617,-196.254"/>
<path vector-effect="none" fill-rule="evenodd" d="M409.371,-207.242 L410.425,-204.739 L423.666,-161.057 L431.168,-135.029 L437.212,-116.241 L438.98,-109.272 L441.318,-100.835 L445.488,-87.7026 L453.272,-61.2612 L466.678,-28.9561"/>
<path vector-effect="none" fill-rule="evenodd" d="M523.768,213.334 L527.734,238.392 L529.687,250.104 L532.096,260.123 L536.067,273.095 L540.827,285.215 L547.434,299.659 L554.567,312.738 L561.751,323.99 L570.786,335.978 L581.038,347.789 L584.159,351.066 L600.945,367.499 L611.707,376.302 L622.765,384.232 L632.678,390.842 L645.092,398.504 L668.737,411.539 L718.332,437.625 L741.589,449.705 L763.69,461.188 L787.445,473.749 L816.397,488.878 L836.683,499.598 L853.995,509.133 L866.2,516.239 L887.781,530.532"/>
<path vector-effect="none" fill-rule="evenodd" d="M523.405,209.913 L522.106,220.805 L522.108,287.513 L521.581,305.728 L520.51,331.003 L518.855,344.676 L517.435,354.84 L515.823,379.09 L514.349,393.145 L512.53,406.987 L505.228,471.918 L503.746,486.097 L498.748,533.916 L496.856,553.016 L493.167,589.844 L490.028,630.729 L489.522,656.438"/>
<path vector-effect="none" fill-rule="evenodd" d="M521.213,180.435 L521.036,188.824 L523.318,200.06 L523.405,209.913"/>
<path vector-effect="none" fill-rule="evenodd" d="M521.213,180.435 L523.405,209.913"/>
<path vector-effect="none" fill-rule="evenodd" d="M466.678,-28.9561 L468.009,-26.4496 L479.535,-6.53696 L488.098,8.28429 L494.347,20.2996 L501.727,40.7937 L504.073,50.6326 L505.579,57.2777 L509.861,75.0693 L511.547,83.4842 L514.771,95.7117"/>
<path vector-effect="none" fill-rule="evenodd" d="M519.94,163.442 L521.213,180.435"/>
<path vector-effect="none" fill-rule="evenodd" d="M523.405,209.913 L523.058,185.123 L519.94,163.442"/>
<path vector-effect="none" fill-rule="evenodd" d="M523.768,213.334 L523.405,209.913"/>
</g>

</g>
</svg>
