<?xml version="1.0" encoding="UTF-8" standalone="no"?>
<svg width="69.9347mm" height="39.9627mm"
 viewBox="0 0 826 472"
 xmlns="http://www.w3.org/2000/svg" xmlns:xlink="http://www.w3.org/1999/xlink"  version="1.2" baseProfile="tiny">
<desc>Generated with Qt</desc>
<defs>
</defs>
<g fill="none" stroke="black" stroke-width="1" fill-rule="evenodd" stroke-linecap="square" stroke-linejoin="bevel" >

<g fill="#ffffff" fill-opacity="1" stroke="none" transform="matrix(0.999067,0,0,0.999067,0,0)"
font-family=".SF NS Text" font-size="54.1667" font-weight="400" font-style="normal" 
>
<path vector-effect="none" fill-rule="evenodd" d="M-1,-1 L827.772,-1 L827.772,473.441 L-1,473.441 L-1,-1"/>
</g>

<g fill="#ffffff" fill-opacity="1" stroke="none" transform="matrix(11.8,0,0,11.8,0,0)"
font-family=".SF NS Text" font-size="54.1667" font-weight="400" font-style="normal" 
>
<path vector-effect="non-scaling-stroke" fill-rule="evenodd" d="M0,0 L70,0 L70,40 L0,40 L0,0"/>
</g>

<g fill="#000000" fill-opacity="0" stroke="none" transform="matrix(0.999067,0,0,0.999067,0,0)"
font-family=".SF NS Text" font-size="54.1667" font-weight="400" font-style="normal" 
>
<path vector-effect="non-scaling-stroke" fill-rule="evenodd" d="M0,0 L827,0 L827,472 L0,472 L0,0"/>
</g>

<g fill="none" stroke="#000000" stroke-opacity="1" stroke-width="2.3622" stroke-linecap="round" stroke-linejoin="round" transform="matrix(0.999067,0,0,0.999067,0,0)"
font-family=".SF NS Text" font-size="54.1667" font-weight="400" font-style="normal" 
>
<path vector-effect="none" fill-rule="evenodd" d="M-97.3764,-22.4183 L-83.9241,-13.7857 L-8.38509,35.5868 L16.3363,50.1536 L63.0709,72.3891 L100.97,86.4278 L132.364,95.9339 L150.126,100.018 L169.641,104.096 L189.016,106.881 L207.067,108.726 L226.356,110.337 L255.332,111.108 L305.74,108.552 L338.953,103.561 L371.69,98.5665 L432.241,87.9838 L466.262,82.5517 L484.3,79.6411 L517.652,77.2273 L522.682,77.2481 L526.63,77.1265 L549.777,77.7205 L572.399,78.9014 L593.309,82.2148 L612.235,85.8964 L631.912,91.8286 L645.944,96.4444 L675.65,109.389 L708.093,125.869 L725.841,137.907 L737.263,146.239 L749.157,155.769 L777.051,178.528 L798.042,197.04 L810.915,208.852 L844.422,239.147 L872.694,263.802 L886.988,275.728 L914.231,294.163 L918.936,296.782"/>
<path vector-effect="none" fill-rule="evenodd" d="M142.117,343.006 L146.94,308.395 L147.72,296.281 L147.932,293.552 L147.923,284.38 L147.639,282.657 L144.427,268.081 L144.081,265.941 L143.873,264.646 L143.186,261.628 L142.115,257.065 L142.533,255.078 L143.218,253.699 L144.072,252.115 L147.836,248.281 L152.446,241.988 L156.315,236.219 L158.951,229.86 L162.34,218.865"/>
<path vector-effect="none" fill-rule="evenodd" d="M626.884,47.4966 L685.333,-32.6736 L710.151,-67.6917 L710.979,-68.7353"/>
<path vector-effect="none" fill-rule="evenodd" d="M485.751,-62.6417 L485.986,-62.447 L555.044,-8.74249 L582.446,11.3609 L603.476,28.7619 L624.418,45.5029 L626.884,47.4966"/>
<path vector-effect="none" fill-rule="evenodd" d="M174.803,-54.2031 L174.621,-49.9638 L173.733,-29.1863 L172.87,6.9637 L171.955,35.9098 L168.702,102.797 L166.337,171.211 L162.34,218.865"/>
<path vector-effect="none" fill-rule="evenodd" d="M131.965,424.765 L139.549,424.417 L147.505,424.355 L155.842,423.612 L160.733,422.514 L163.754,420.722 L259.877,346.549 L284.721,327.26 L299.1,316.494 L312.362,306.728 L347.636,284.064 L438.272,224.043 L458.48,209.797 L477.986,194.022 L497.37,177.816 L516.443,161.521 L542.78,139.084 L555.093,127.123 L567.939,114.286 L587.012,93.8569 L611.344,69.0236 L626.884,47.4966"/>
<path vector-effect="none" fill-rule="evenodd" d="M142.117,343.006 L140.556,350.966"/>
<path vector-effect="none" fill-rule="evenodd" d="M131.965,424.765 L130.788,435.516 L128.887,445.421 L127.863,448.046 L123.112,460.187 L119.136,467.244 L111.776,478.162 L108.277,483.316 L96.7662,495.769 L65.3281,528.455 L51.4645,542.456"/>
<path vector-effect="none" fill-rule="evenodd" d="M140.556,350.966 L137.329,378.701 L131.965,424.765"/>
<path vector-effect="none" fill-rule="evenodd" d="M162.34,218.865 L162.34,218.865"/>
<path vector-effect="none" fill-rule="evenodd" d="M140.556,350.966 L142.117,343.006"/>
</g>

</g>
</svg>
