<?xml version="1.0" encoding="UTF-8" standalone="no"?>
<svg width="69.9347mm" height="39.9627mm"
 viewBox="0 0 826 472"
 xmlns="http://www.w3.org/2000/svg" xmlns:xlink="http://www.w3.org/1999/xlink"  version="1.2" baseProfile="tiny">
<desc>Generated with Qt</desc>
<defs>
</defs>
<g fill="none" stroke="black" stroke-width="1" fill-rule="evenodd" stroke-linecap="square" stroke-linejoin="bevel" >

<g fill="#ffffff" fill-opacity="1" stroke="none" transform="matrix(0.999067,0,0,0.999067,0,0)"
font-family=".SF NS Text" font-size="54.1667" font-weight="400" font-style="normal" 
>
<path vector-effect="none" fill-rule="evenodd" d="M-1,-1 L827.772,-1 L827.772,473.441 L-1,473.441 L-1,-1"/>
</g>

<g fill="#ffffff" fill-opacity="1" stroke="none" transform="matrix(11.8,0,0,11.8,0,0)"
font-family=".SF NS Text" font-size="54.1667" font-weight="400" font-style="normal" 
>
<path vector-effect="non-scaling-stroke" fill-rule="evenodd" d="M0,0 L70,0 L70,40 L0,40 L0,0"/>
</g>

<g fill="#000000" fill-opacity="0" stroke="none" transform="matrix(0.999067,0,0,0.999067,0,0)"
font-family=".SF NS Text" font-size="54.1667" font-weight="400" font-style="normal" 
>
<path vector-effect="non-scaling-stroke" fill-rule="evenodd" d="M0,0 L827,0 L827,472 L0,472 L0,0"/>
</g>

<g fill="none" stroke="#000000" stroke-opacity="1" stroke-width="2.3622" stroke-linecap="round" stroke-linejoin="round" transform="matrix(0.999067,0,0,0.999067,0,0)"
font-family=".SF NS Text" font-size="54.1667" font-weight="400" font-style="normal" 
>
<path vector-effect="none" fill-rule="evenodd" d="M485.986,-62.447 L555.044,-8.74249"/>
<path vector-effect="none" fill-rule="evenodd" d="M555.044,-8.74249 L582.446,11.3609"/>
<path vector-effect="none" fill-rule="evenodd" d="M582.446,11.3609 L603.476,28.7619"/>
<path vector-effect="none" fill-rule="evenodd" d="M603.476,28.7619 L624.418,45.5029"/>
<path vector-effect="none" fill-rule="evenodd" d="M624.418,45.5029 L626.884,47.4966"/>
<path vector-effect="none" fill-rule="evenodd" d="M626.884,47.4966 L685.333,-32.6736"/>
<path vector-effect="none" fill-rule="evenodd" d="M846.981,235.108 L812.999,203.476"/>
<path vector-effect="none" fill-rule="evenodd" d="M173.733,-29.1863 L172.87,6.9637"/>
<path vector-effect="none" fill-rule="evenodd" d="M587.012,93.8569 L611.344,69.0236"/>
<path vector-effect="none" fill-rule="evenodd" d="M611.344,69.0236 L626.884,47.4966"/>
<path vector-effect="none" fill-rule="evenodd" d="M131.965,424.765 L139.549,424.417"/>
<path vector-effect="none" fill-rule="evenodd" d="M139.549,424.417 L147.505,424.355"/>
<path vector-effect="none" fill-rule="evenodd" d="M147.505,424.355 L155.842,423.612"/>
<path vector-effect="none" fill-rule="evenodd" d="M155.842,423.612 L160.733,422.514"/>
<path vector-effect="none" fill-rule="evenodd" d="M160.733,422.514 L163.754,420.722"/>
<path vector-effect="none" fill-rule="evenodd" d="M163.754,420.722 L259.877,346.549"/>
<path vector-effect="none" fill-rule="evenodd" d="M259.877,346.549 L284.721,327.26"/>
<path vector-effect="none" fill-rule="evenodd" d="M284.721,327.26 L299.1,316.494"/>
<path vector-effect="none" fill-rule="evenodd" d="M299.1,316.494 L312.362,306.728"/>
<path vector-effect="none" fill-rule="evenodd" d="M312.362,306.728 L347.636,284.064"/>
<path vector-effect="none" fill-rule="evenodd" d="M347.636,284.064 L438.272,224.043"/>
<path vector-effect="none" fill-rule="evenodd" d="M438.272,224.043 L458.48,209.797"/>
<path vector-effect="none" fill-rule="evenodd" d="M458.48,209.797 L477.986,194.022"/>
<path vector-effect="none" fill-rule="evenodd" d="M477.986,194.022 L497.37,177.816"/>
<path vector-effect="none" fill-rule="evenodd" d="M497.37,177.816 L516.443,161.521"/>
<path vector-effect="none" fill-rule="evenodd" d="M516.443,161.521 L542.78,139.084"/>
<path vector-effect="none" fill-rule="evenodd" d="M542.78,139.084 L555.093,127.123"/>
<path vector-effect="none" fill-rule="evenodd" d="M555.093,127.123 L567.939,114.286"/>
<path vector-effect="none" fill-rule="evenodd" d="M567.939,114.286 L587.012,93.8569"/>
<path vector-effect="none" fill-rule="evenodd" d="M148.42,240.429 L144.773,246.534"/>
<path vector-effect="none" fill-rule="evenodd" d="M144.773,246.534 L143.345,248.917"/>
<path vector-effect="none" fill-rule="evenodd" d="M143.345,248.917 L141.638,252.084"/>
<path vector-effect="none" fill-rule="evenodd" d="M141.638,252.084 L140.267,254.842"/>
<path vector-effect="none" fill-rule="evenodd" d="M140.267,254.842 L139.431,258.815"/>
<path vector-effect="none" fill-rule="evenodd" d="M139.431,258.815 L139.606,261.948"/>
<path vector-effect="none" fill-rule="evenodd" d="M139.606,261.948 L140.609,265.664"/>
<path vector-effect="none" fill-rule="evenodd" d="M140.609,265.664 L144.926,281.737"/>
<path vector-effect="none" fill-rule="evenodd" d="M144.926,281.737 L145.495,285.182"/>
<path vector-effect="none" fill-rule="evenodd" d="M145.495,285.182 L145.508,290.655"/>
<path vector-effect="none" fill-rule="evenodd" d="M145.508,290.655 L145.084,296.115"/>
<path vector-effect="none" fill-rule="evenodd" d="M145.084,296.115 L144.309,307.833"/>
<path vector-effect="none" fill-rule="evenodd" d="M144.309,307.833 L139.519,343.263"/>
<path vector-effect="none" fill-rule="evenodd" d="M139.519,343.263 L140.556,350.966"/>
<path vector-effect="none" fill-rule="evenodd" d="M172.87,6.9637 L171.955,35.9098"/>
<path vector-effect="none" fill-rule="evenodd" d="M171.955,35.9098 L168.702,102.797"/>
<path vector-effect="none" fill-rule="evenodd" d="M168.702,102.797 L166.337,171.211"/>
<path vector-effect="none" fill-rule="evenodd" d="M166.337,171.211 L161.713,215.353"/>
<path vector-effect="none" fill-rule="evenodd" d="M205.179,113.3 L226.805,114.779"/>
<path vector-effect="none" fill-rule="evenodd" d="M226.805,114.779 L256.772,115.696"/>
<path vector-effect="none" fill-rule="evenodd" d="M256.772,115.696 L306.105,113.202"/>
<path vector-effect="none" fill-rule="evenodd" d="M306.105,113.202 L340.858,107.951"/>
<path vector-effect="none" fill-rule="evenodd" d="M340.858,107.951 L371.114,103.186"/>
<path vector-effect="none" fill-rule="evenodd" d="M371.114,103.186 L432.948,92.8914"/>
<path vector-effect="none" fill-rule="evenodd" d="M432.948,92.8914 L461.264,87.9664"/>
<path vector-effect="none" fill-rule="evenodd" d="M461.264,87.9664 L484.103,84.8336"/>
<path vector-effect="none" fill-rule="evenodd" d="M484.103,84.8336 L510.007,82.5413"/>
<path vector-effect="none" fill-rule="evenodd" d="M510.007,82.5413 L520.068,82.5829"/>
<path vector-effect="none" fill-rule="evenodd" d="M520.068,82.5829 L527.963,82.3398"/>
<path vector-effect="none" fill-rule="evenodd" d="M527.963,82.3398 L549.103,82.4301"/>
<path vector-effect="none" fill-rule="evenodd" d="M549.103,82.4301 L571.705,83.6596"/>
<path vector-effect="none" fill-rule="evenodd" d="M571.705,83.6596 L592.937,86.7508"/>
<path vector-effect="none" fill-rule="evenodd" d="M592.937,86.7508 L610.547,90.3768"/>
<path vector-effect="none" fill-rule="evenodd" d="M610.547,90.3768 L630.316,95.9964"/>
<path vector-effect="none" fill-rule="evenodd" d="M630.316,95.9964 L645.103,100.921"/>
<path vector-effect="none" fill-rule="evenodd" d="M645.103,100.921 L673.94,113.737"/>
<path vector-effect="none" fill-rule="evenodd" d="M673.94,113.737 L704.362,128.915"/>
<path vector-effect="none" fill-rule="evenodd" d="M704.362,128.915 L722.722,140.995"/>
<path vector-effect="none" fill-rule="evenodd" d="M722.722,140.995 L734.447,149.893"/>
<path vector-effect="none" fill-rule="evenodd" d="M734.447,149.893 L747.18,160.465"/>
<path vector-effect="none" fill-rule="evenodd" d="M747.18,160.465 L774.332,182.304"/>
<path vector-effect="none" fill-rule="evenodd" d="M774.332,182.304 L794.705,200.447"/>
<path vector-effect="none" fill-rule="evenodd" d="M812.999,203.476 L801.378,193.633"/>
<path vector-effect="none" fill-rule="evenodd" d="M801.378,193.633 L779.77,174.753"/>
<path vector-effect="none" fill-rule="evenodd" d="M779.77,174.753 L751.134,151.074"/>
<path vector-effect="none" fill-rule="evenodd" d="M751.134,151.074 L740.078,142.585"/>
<path vector-effect="none" fill-rule="evenodd" d="M740.078,142.585 L728.961,134.819"/>
<path vector-effect="none" fill-rule="evenodd" d="M728.961,134.819 L711.823,122.823"/>
<path vector-effect="none" fill-rule="evenodd" d="M711.823,122.823 L677.36,105.041"/>
<path vector-effect="none" fill-rule="evenodd" d="M677.36,105.041 L646.784,91.9675"/>
<path vector-effect="none" fill-rule="evenodd" d="M646.784,91.9675 L633.508,87.6607"/>
<path vector-effect="none" fill-rule="evenodd" d="M633.508,87.6607 L613.923,81.4159"/>
<path vector-effect="none" fill-rule="evenodd" d="M613.923,81.4159 L593.681,77.6788"/>
<path vector-effect="none" fill-rule="evenodd" d="M593.681,77.6788 L573.093,74.1431"/>
<path vector-effect="none" fill-rule="evenodd" d="M573.093,74.1431 L550.451,73.0108"/>
<path vector-effect="none" fill-rule="evenodd" d="M550.451,73.0108 L525.297,71.9133"/>
<path vector-effect="none" fill-rule="evenodd" d="M208.954,104.151 L189.495,102.13"/>
<path vector-effect="none" fill-rule="evenodd" d="M189.495,102.13 L170.317,99.3167"/>
<path vector-effect="none" fill-rule="evenodd" d="M170.317,99.3167 L151.419,95.3782"/>
<path vector-effect="none" fill-rule="evenodd" d="M151.419,95.3782 L134.089,91.4882"/>
<path vector-effect="none" fill-rule="evenodd" d="M130.639,100.38 L148.832,104.658"/>
<path vector-effect="none" fill-rule="evenodd" d="M148.832,104.658 L168.964,108.875"/>
<path vector-effect="none" fill-rule="evenodd" d="M168.964,108.875 L188.537,111.633"/>
<path vector-effect="none" fill-rule="evenodd" d="M188.537,111.633 L205.179,113.3"/>
<path vector-effect="none" fill-rule="evenodd" d="M794.705,200.447 L808.831,214.228"/>
<path vector-effect="none" fill-rule="evenodd" d="M808.831,214.228 L841.862,243.186"/>
<path vector-effect="none" fill-rule="evenodd" d="M-13.7751,36.8962 L11.5067,53.4983"/>
<path vector-effect="none" fill-rule="evenodd" d="M11.5067,53.4983 L62.1755,77.9914"/>
<path vector-effect="none" fill-rule="evenodd" d="M62.1755,77.9914 L100.006,91.3423"/>
<path vector-effect="none" fill-rule="evenodd" d="M100.006,91.3423 L130.639,100.38"/>
<path vector-effect="none" fill-rule="evenodd" d="M134.089,91.4882 L101.933,81.5132"/>
<path vector-effect="none" fill-rule="evenodd" d="M101.933,81.5132 L63.9663,66.7868"/>
<path vector-effect="none" fill-rule="evenodd" d="M63.9663,66.7868 L21.1659,46.8089"/>
<path vector-effect="none" fill-rule="evenodd" d="M21.1659,46.8089 L-2.99508,34.2774"/>
<path vector-effect="none" fill-rule="evenodd" d="M-2.99508,34.2774 L-85.7456,-21.0032"/>
<path vector-effect="none" fill-rule="evenodd" d="M525.297,71.9133 L484.497,74.4487"/>
<path vector-effect="none" fill-rule="evenodd" d="M484.497,74.4487 L471.261,77.137"/>
<path vector-effect="none" fill-rule="evenodd" d="M471.261,77.137 L431.534,83.0761"/>
<path vector-effect="none" fill-rule="evenodd" d="M431.534,83.0761 L372.266,93.9472"/>
<path vector-effect="none" fill-rule="evenodd" d="M372.266,93.9472 L337.049,99.1709"/>
<path vector-effect="none" fill-rule="evenodd" d="M337.049,99.1709 L305.374,103.901"/>
<path vector-effect="none" fill-rule="evenodd" d="M305.374,103.901 L253.891,106.52"/>
<path vector-effect="none" fill-rule="evenodd" d="M253.891,106.52 L225.908,105.895"/>
<path vector-effect="none" fill-rule="evenodd" d="M225.908,105.895 L208.954,104.151"/>
<path vector-effect="none" fill-rule="evenodd" d="M140.556,350.966 L137.329,378.701"/>
<path vector-effect="none" fill-rule="evenodd" d="M137.329,378.701 L131.965,424.765"/>
<path vector-effect="none" fill-rule="evenodd" d="M161.713,215.353 L155.833,229.6"/>
<path vector-effect="none" fill-rule="evenodd" d="M155.833,229.6 L152.86,234.761"/>
<path vector-effect="none" fill-rule="evenodd" d="M152.86,234.761 L148.42,240.429"/>
<path vector-effect="none" fill-rule="evenodd" d="M144.799,255.314 L150.898,250.028"/>
<path vector-effect="none" fill-rule="evenodd" d="M150.898,250.028 L156.472,243.548"/>
<path vector-effect="none" fill-rule="evenodd" d="M156.472,243.548 L159.769,237.678"/>
<path vector-effect="none" fill-rule="evenodd" d="M159.769,237.678 L162.068,230.121"/>
<path vector-effect="none" fill-rule="evenodd" d="M162.068,230.121 L162.966,222.376"/>
<path vector-effect="none" fill-rule="evenodd" d="M162.966,222.376 L161.713,215.353"/>
<path vector-effect="none" fill-rule="evenodd" d="M140.556,350.966 L144.716,342.749"/>
<path vector-effect="none" fill-rule="evenodd" d="M144.716,342.749 L149.572,308.958"/>
<path vector-effect="none" fill-rule="evenodd" d="M149.572,308.958 L150.355,296.448"/>
<path vector-effect="none" fill-rule="evenodd" d="M150.355,296.448 L150.351,283.577"/>
<path vector-effect="none" fill-rule="evenodd" d="M150.351,283.577 L148.245,270.498"/>
<path vector-effect="none" fill-rule="evenodd" d="M148.245,270.498 L147.553,266.219"/>
<path vector-effect="none" fill-rule="evenodd" d="M147.553,266.219 L147.137,263.628"/>
<path vector-effect="none" fill-rule="evenodd" d="M147.137,263.628 L146.765,261.309"/>
<path vector-effect="none" fill-rule="evenodd" d="M146.765,261.309 L144.799,255.314"/>
<path vector-effect="none" fill-rule="evenodd" d="M131.965,424.765 L130.788,435.516"/>
<path vector-effect="none" fill-rule="evenodd" d="M130.788,435.516 L128.887,445.421"/>
<path vector-effect="none" fill-rule="evenodd" d="M128.887,445.421 L127.863,448.046"/>
<path vector-effect="none" fill-rule="evenodd" d="M127.863,448.046 L123.112,460.187"/>
<path vector-effect="none" fill-rule="evenodd" d="M123.112,460.187 L119.136,467.244"/>
<path vector-effect="none" fill-rule="evenodd" d="M119.136,467.244 L111.776,478.162"/>
<path vector-effect="none" fill-rule="evenodd" d="M111.776,478.162 L108.277,483.316"/>
<path vector-effect="none" fill-rule="evenodd" d="M108.277,483.316 L96.7662,495.769"/>
</g>

</g>
</svg>
