<?xml version="1.0" encoding="UTF-8" standalone="no"?>
<svg width="69.9347mm" height="39.9627mm"
 viewBox="0 0 826 472"
 xmlns="http://www.w3.org/2000/svg" xmlns:xlink="http://www.w3.org/1999/xlink"  version="1.2" baseProfile="tiny">
<desc>Generated with Qt</desc>
<defs>
</defs>
<g fill="none" stroke="black" stroke-width="1" fill-rule="evenodd" stroke-linecap="square" stroke-linejoin="bevel" >

<g fill="#ffffff" fill-opacity="1" stroke="none" transform="matrix(0.999067,0,0,0.999067,0,0)"
font-family=".SF NS Text" font-size="54.1667" font-weight="400" font-style="normal" 
>
<path vector-effect="none" fill-rule="evenodd" d="M-1,-1 L827.772,-1 L827.772,473.441 L-1,473.441 L-1,-1"/>
</g>

<g fill="#ffffff" fill-opacity="1" stroke="none" transform="matrix(11.8,0,0,11.8,0,0)"
font-family=".SF NS Text" font-size="54.1667" font-weight="400" font-style="normal" 
>
<path vector-effect="non-scaling-stroke" fill-rule="evenodd" d="M0,0 L70,0 L70,40.6667 L0,40.6667 L0,0"/>
</g>

<g fill="#000000" fill-opacity="0" stroke="none" transform="matrix(0.999067,0,0,0.999067,0,0)"
font-family=".SF NS Text" font-size="54.1667" font-weight="400" font-style="normal" 
>
<path vector-effect="non-scaling-stroke" fill-rule="evenodd" d="M0,0 L827,0 L827,480 L0,480 L0,0"/>
</g>

<g fill="none" stroke="#ffffff" stroke-opacity="1" stroke-dasharray="0.011811,9.44882" stroke-dashoffset="0" stroke-width="2.95276" stroke-linecap="round" stroke-linejoin="round" transform="matrix(0.999067,0,0,0.999067,0,0)"
font-family=".SF NS Text" font-size="54.1667" font-weight="400" font-style="normal" 
>
<path vector-effect="none" fill-rule="evenodd" d="M30.9867,363.8 L25.328,324.528"/>
</g>

<g fill="none" stroke="#ff7f00" stroke-opacity="1" stroke-width="5.90551" stroke-linecap="square" stroke-linejoin="bevel" transform="matrix(0.999067,0,0,0.999067,0,0)"
font-family=".SF NS Text" font-size="54.1667" font-weight="400" font-style="normal" 
>
<path vector-effect="none" fill-rule="evenodd" d="M30.9867,363.8 L25.328,324.528"/>
</g>

<g fill="none" stroke="#ffffff" stroke-opacity="1" stroke-dasharray="0.011811,9.44882" stroke-dashoffset="0" stroke-width="2.95276" stroke-linecap="round" stroke-linejoin="round" transform="matrix(0.999067,0,0,0.999067,0,0)"
font-family=".SF NS Text" font-size="54.1667" font-weight="400" font-style="normal" 
>
<path vector-effect="none" fill-rule="evenodd" d="M144.283,344.095 L184.279,300.765"/>
</g>

<g fill="none" stroke="#ff7f00" stroke-opacity="1" stroke-width="5.90551" stroke-linecap="square" stroke-linejoin="bevel" transform="matrix(0.999067,0,0,0.999067,0,0)"
font-family=".SF NS Text" font-size="54.1667" font-weight="400" font-style="normal" 
>
<path vector-effect="none" fill-rule="evenodd" d="M144.283,344.095 L184.279,300.765"/>
</g>

<g fill="none" stroke="#ffffff" stroke-opacity="1" stroke-dasharray="0.011811,9.44882" stroke-dashoffset="0" stroke-width="2.95276" stroke-linecap="round" stroke-linejoin="round" transform="matrix(0.999067,0,0,0.999067,0,0)"
font-family=".SF NS Text" font-size="54.1667" font-weight="400" font-style="normal" 
>
<path vector-effect="none" fill-rule="evenodd" d="M235.663,331.56 L237.239,290.009"/>
</g>

<g fill="none" stroke="#ff7f00" stroke-opacity="1" stroke-width="5.90551" stroke-linecap="square" stroke-linejoin="bevel" transform="matrix(0.999067,0,0,0.999067,0,0)"
font-family=".SF NS Text" font-size="54.1667" font-weight="400" font-style="normal" 
>
<path vector-effect="none" fill-rule="evenodd" d="M235.663,331.56 L237.239,290.009"/>
</g>

<g fill="none" stroke="#ffffff" stroke-opacity="1" stroke-dasharray="0.011811,9.44882" stroke-dashoffset="0" stroke-width="2.95276" stroke-linecap="round" stroke-linejoin="round" transform="matrix(0.999067,0,0,0.999067,0,0)"
font-family=".SF NS Text" font-size="54.1667" font-weight="400" font-style="normal" 
>
<path vector-effect="none" fill-rule="evenodd" d="M339.306,322.388 L400.482,279.864"/>
</g>

<g fill="none" stroke="#ff7f00" stroke-opacity="1" stroke-width="5.90551" stroke-linecap="square" stroke-linejoin="bevel" transform="matrix(0.999067,0,0,0.999067,0,0)"
font-family=".SF NS Text" font-size="54.1667" font-weight="400" font-style="normal" 
>
<path vector-effect="none" fill-rule="evenodd" d="M339.306,322.388 L400.482,279.864"/>
</g>

<g fill="none" stroke="#ffffff" stroke-opacity="1" stroke-dasharray="0.011811,9.44882" stroke-dashoffset="0" stroke-width="2.95276" stroke-linecap="round" stroke-linejoin="round" transform="matrix(0.999067,0,0,0.999067,0,0)"
font-family=".SF NS Text" font-size="54.1667" font-weight="400" font-style="normal" 
>
<path vector-effect="none" fill-rule="evenodd" d="M379.565,322.555 L400.482,279.864"/>
</g>

<g fill="none" stroke="#ff7f00" stroke-opacity="1" stroke-width="5.90551" stroke-linecap="square" stroke-linejoin="bevel" transform="matrix(0.999067,0,0,0.999067,0,0)"
font-family=".SF NS Text" font-size="54.1667" font-weight="400" font-style="normal" 
>
<path vector-effect="none" fill-rule="evenodd" d="M379.565,322.555 L400.482,279.864"/>
</g>

<g fill="none" stroke="#ffffff" stroke-opacity="1" stroke-dasharray="0.011811,9.44882" stroke-dashoffset="0" stroke-width="2.95276" stroke-linecap="round" stroke-linejoin="round" transform="matrix(0.999067,0,0,0.999067,0,0)"
font-family=".SF NS Text" font-size="54.1667" font-weight="400" font-style="normal" 
>
<path vector-effect="none" fill-rule="evenodd" d="M411.152,321.582 L400.482,279.864"/>
</g>

<g fill="none" stroke="#ff7f00" stroke-opacity="1" stroke-width="5.90551" stroke-linecap="square" stroke-linejoin="bevel" transform="matrix(0.999067,0,0,0.999067,0,0)"
font-family=".SF NS Text" font-size="54.1667" font-weight="400" font-style="normal" 
>
<path vector-effect="none" fill-rule="evenodd" d="M411.152,321.582 L400.482,279.864"/>
</g>

<g fill="none" stroke="#ffffff" stroke-opacity="1" stroke-dasharray="0.011811,9.44882" stroke-dashoffset="0" stroke-width="2.95276" stroke-linecap="round" stroke-linejoin="round" transform="matrix(0.999067,0,0,0.999067,0,0)"
font-family=".SF NS Text" font-size="54.1667" font-weight="400" font-style="normal" 
>
<path vector-effect="none" fill-rule="evenodd" d="M495.734,321.943 L501.13,284.256"/>
</g>

<g fill="none" stroke="#ff7f00" stroke-opacity="1" stroke-width="5.90551" stroke-linecap="square" stroke-linejoin="bevel" transform="matrix(0.999067,0,0,0.999067,0,0)"
font-family=".SF NS Text" font-size="54.1667" font-weight="400" font-style="normal" 
>
<path vector-effect="none" fill-rule="evenodd" d="M495.734,321.943 L501.13,284.256"/>
</g>

<g fill="none" stroke="#ffffff" stroke-opacity="1" stroke-dasharray="0.011811,9.44882" stroke-dashoffset="0" stroke-width="2.95276" stroke-linecap="round" stroke-linejoin="round" transform="matrix(0.999067,0,0,0.999067,0,0)"
font-family=".SF NS Text" font-size="54.1667" font-weight="400" font-style="normal" 
>
<path vector-effect="none" fill-rule="evenodd" d="M586.168,326.863 L591.721,288.786"/>
</g>

<g fill="none" stroke="#ff7f00" stroke-opacity="1" stroke-width="5.90551" stroke-linecap="square" stroke-linejoin="bevel" transform="matrix(0.999067,0,0,0.999067,0,0)"
font-family=".SF NS Text" font-size="54.1667" font-weight="400" font-style="normal" 
>
<path vector-effect="none" fill-rule="evenodd" d="M586.168,326.863 L591.721,288.786"/>
</g>

<g fill="none" stroke="#ffffff" stroke-opacity="1" stroke-dasharray="0.011811,9.44882" stroke-dashoffset="0" stroke-width="2.95276" stroke-linecap="round" stroke-linejoin="round" transform="matrix(0.999067,0,0,0.999067,0,0)"
font-family=".SF NS Text" font-size="54.1667" font-weight="400" font-style="normal" 
>
<path vector-effect="none" fill-rule="evenodd" d="M671.118,339.231 L674.096,302.933"/>
</g>

<g fill="none" stroke="#ff7f00" stroke-opacity="1" stroke-width="5.90551" stroke-linecap="square" stroke-linejoin="bevel" transform="matrix(0.999067,0,0,0.999067,0,0)"
font-family=".SF NS Text" font-size="54.1667" font-weight="400" font-style="normal" 
>
<path vector-effect="none" fill-rule="evenodd" d="M671.118,339.231 L674.096,302.933"/>
</g>

<g fill="none" stroke="#ffffff" stroke-opacity="1" stroke-dasharray="0.011811,9.44882" stroke-dashoffset="0" stroke-width="2.95276" stroke-linecap="round" stroke-linejoin="round" transform="matrix(0.999067,0,0,0.999067,0,0)"
font-family=".SF NS Text" font-size="54.1667" font-weight="400" font-style="normal" 
>
<path vector-effect="none" fill-rule="evenodd" d="M741.58,353.739 L755.087,317.886"/>
</g>

<g fill="none" stroke="#ff7f00" stroke-opacity="1" stroke-width="5.90551" stroke-linecap="square" stroke-linejoin="bevel" transform="matrix(0.999067,0,0,0.999067,0,0)"
font-family=".SF NS Text" font-size="54.1667" font-weight="400" font-style="normal" 
>
<path vector-effect="none" fill-rule="evenodd" d="M741.58,353.739 L755.087,317.886"/>
</g>

<g fill="none" stroke="#ffffff" stroke-opacity="1" stroke-dasharray="0.011811,9.44882" stroke-dashoffset="0" stroke-width="2.95276" stroke-linecap="round" stroke-linejoin="round" transform="matrix(0.999067,0,0,0.999067,0,0)"
font-family=".SF NS Text" font-size="54.1667" font-weight="400" font-style="normal" 
>
<path vector-effect="none" fill-rule="evenodd" d="M820.678,376.223 L833.45,342.872"/>
</g>

<g fill="none" stroke="#ff7f00" stroke-opacity="1" stroke-width="5.90551" stroke-linecap="square" stroke-linejoin="bevel" transform="matrix(0.999067,0,0,0.999067,0,0)"
font-family=".SF NS Text" font-size="54.1667" font-weight="400" font-style="normal" 
>
<path vector-effect="none" fill-rule="evenodd" d="M820.678,376.223 L833.45,342.872"/>
</g>

<g fill="none" stroke="#bbbbbb" stroke-opacity="1" stroke-width="3.54331" stroke-linecap="round" stroke-linejoin="round" transform="matrix(0.999067,0,0,0.999067,0,0)"
font-family=".SF NS Text" font-size="54.1667" font-weight="400" font-style="normal" 
>
<path vector-effect="none" fill-rule="evenodd" d="M519.507,-42.8481 L629.142,37.5876"/>
<path vector-effect="none" fill-rule="evenodd" d="M629.142,37.5876 L713.286,107.211"/>
<path vector-effect="none" fill-rule="evenodd" d="M713.286,107.211 L797.08,174.194"/>
<path vector-effect="none" fill-rule="evenodd" d="M797.08,174.194 L806.943,182.17"/>
<path vector-effect="none" fill-rule="evenodd" d="M806.943,182.17 L912.017,38.048"/>
<path vector-effect="none" fill-rule="evenodd" d="M647.414,367.663 L744.768,268.302"/>
<path vector-effect="none" fill-rule="evenodd" d="M744.768,268.302 L806.943,182.17"/>
<path vector-effect="none" fill-rule="evenodd" d="M519.7,500.764 L571.101,449.403"/>
<path vector-effect="none" fill-rule="evenodd" d="M571.101,449.403 L647.414,367.663"/>
<path vector-effect="none" fill-rule="evenodd" d="M-86.5971,383.375 L30.9867,363.8"/>
<path vector-effect="none" fill-rule="evenodd" d="M30.9867,363.8 L144.283,344.095"/>
<path vector-effect="none" fill-rule="evenodd" d="M144.283,344.095 L235.663,331.56"/>
<path vector-effect="none" fill-rule="evenodd" d="M235.663,331.56 L339.306,322.388"/>
<path vector-effect="none" fill-rule="evenodd" d="M339.306,322.388 L379.565,322.555"/>
<path vector-effect="none" fill-rule="evenodd" d="M379.565,322.555 L411.152,321.582"/>
<path vector-effect="none" fill-rule="evenodd" d="M411.152,321.582 L495.734,321.943"/>
<path vector-effect="none" fill-rule="evenodd" d="M495.734,321.943 L586.168,326.863"/>
<path vector-effect="none" fill-rule="evenodd" d="M586.168,326.863 L671.118,339.231"/>
<path vector-effect="none" fill-rule="evenodd" d="M671.118,339.231 L741.58,353.739"/>
<path vector-effect="none" fill-rule="evenodd" d="M741.58,353.739 L820.678,376.223"/>
<path vector-effect="none" fill-rule="evenodd" d="M820.678,376.223 L879.841,395.929"/>
<path vector-effect="none" fill-rule="evenodd" d="M886.568,360.103 L833.45,342.872"/>
<path vector-effect="none" fill-rule="evenodd" d="M833.45,342.872 L755.087,317.886"/>
<path vector-effect="none" fill-rule="evenodd" d="M755.087,317.886 L674.096,302.933"/>
<path vector-effect="none" fill-rule="evenodd" d="M674.096,302.933 L591.721,288.786"/>
<path vector-effect="none" fill-rule="evenodd" d="M591.721,288.786 L501.13,284.256"/>
<path vector-effect="none" fill-rule="evenodd" d="M501.13,284.256 L400.482,279.864"/>
<path vector-effect="none" fill-rule="evenodd" d="M400.482,279.864 L237.239,290.009"/>
<path vector-effect="none" fill-rule="evenodd" d="M237.239,290.009 L184.279,300.765"/>
<path vector-effect="none" fill-rule="evenodd" d="M184.279,300.765 L25.328,324.528"/>
<path vector-effect="none" fill-rule="evenodd" d="M25.328,324.528 L-87.6255,345.246"/>
</g>

<g fill="#ffffff" fill-opacity="1" stroke="#bbbbbb" stroke-opacity="1" stroke-width="2.3622" stroke-linecap="square" stroke-linejoin="bevel" transform="matrix(0.999067,0,0,0.999067,0,0)"
font-family=".SF NS Text" font-size="54.1667" font-weight="400" font-style="normal" 
>
<path vector-effect="none" fill-rule="evenodd" d="M840.537,342.872 C840.537,346.785 837.364,349.958 833.45,349.958 C829.536,349.958 826.363,346.785 826.363,342.872 C826.363,338.958 829.536,335.785 833.45,335.785 C837.364,335.785 840.537,338.958 840.537,342.872 "/>
</g>

<g fill="#bbbbbb" fill-opacity="1" stroke="none" transform="matrix(0.999067,0,0,0.999067,0,0)"
font-family=".SF NS Text" font-size="54.1667" font-weight="400" font-style="normal" 
>
<path vector-effect="non-scaling-stroke" fill-rule="evenodd" d="M836.403,342.872 C836.403,344.502 835.081,345.824 833.45,345.824 C831.819,345.824 830.497,344.502 830.497,342.872 C830.497,341.241 831.819,339.919 833.45,339.919 C835.081,339.919 836.403,341.241 836.403,342.872 "/>
</g>

<g fill="#ffffff" fill-opacity="1" stroke="#bbbbbb" stroke-opacity="1" stroke-width="2.3622" stroke-linecap="square" stroke-linejoin="bevel" transform="matrix(0.999067,0,0,0.999067,0,0)"
font-family=".SF NS Text" font-size="54.1667" font-weight="400" font-style="normal" 
>
<path vector-effect="none" fill-rule="evenodd" d="M827.765,376.223 C827.765,380.137 824.592,383.31 820.678,383.31 C816.765,383.31 813.592,380.137 813.592,376.223 C813.592,372.31 816.765,369.137 820.678,369.137 C824.592,369.137 827.765,372.31 827.765,376.223 "/>
</g>

<g fill="#bbbbbb" fill-opacity="1" stroke="none" transform="matrix(0.999067,0,0,0.999067,0,0)"
font-family=".SF NS Text" font-size="54.1667" font-weight="400" font-style="normal" 
>
<path vector-effect="non-scaling-stroke" fill-rule="evenodd" d="M823.631,376.223 C823.631,377.854 822.309,379.176 820.678,379.176 C819.048,379.176 817.726,377.854 817.726,376.223 C817.726,374.593 819.048,373.271 820.678,373.271 C822.309,373.271 823.631,374.593 823.631,376.223 "/>
</g>

<g fill="#ffffff" fill-opacity="1" stroke="#bbbbbb" stroke-opacity="1" stroke-width="2.3622" stroke-linecap="square" stroke-linejoin="bevel" transform="matrix(0.999067,0,0,0.999067,0,0)"
font-family=".SF NS Text" font-size="54.1667" font-weight="400" font-style="normal" 
>
<path vector-effect="none" fill-rule="evenodd" d="M814.03,182.17 C814.03,186.084 810.857,189.257 806.943,189.257 C803.03,189.257 799.857,186.084 799.857,182.17 C799.857,178.257 803.03,175.084 806.943,175.084 C810.857,175.084 814.03,178.257 814.03,182.17 "/>
</g>

<g fill="#bbbbbb" fill-opacity="1" stroke="none" transform="matrix(0.999067,0,0,0.999067,0,0)"
font-family=".SF NS Text" font-size="54.1667" font-weight="400" font-style="normal" 
>
<path vector-effect="non-scaling-stroke" fill-rule="evenodd" d="M809.896,182.17 C809.896,183.801 808.574,185.123 806.943,185.123 C805.313,185.123 803.991,183.801 803.991,182.17 C803.991,180.54 805.313,179.218 806.943,179.218 C808.574,179.218 809.896,180.54 809.896,182.17 "/>
</g>

<g fill="#ffffff" fill-opacity="1" stroke="#bbbbbb" stroke-opacity="1" stroke-width="2.3622" stroke-linecap="square" stroke-linejoin="bevel" transform="matrix(0.999067,0,0,0.999067,0,0)"
font-family=".SF NS Text" font-size="54.1667" font-weight="400" font-style="normal" 
>
<path vector-effect="none" fill-rule="evenodd" d="M804.167,174.194 C804.167,178.107 800.994,181.28 797.08,181.28 C793.166,181.28 789.994,178.107 789.994,174.194 C789.994,170.28 793.166,167.107 797.08,167.107 C800.994,167.107 804.167,170.28 804.167,174.194 "/>
</g>

<g fill="#bbbbbb" fill-opacity="1" stroke="none" transform="matrix(0.999067,0,0,0.999067,0,0)"
font-family=".SF NS Text" font-size="54.1667" font-weight="400" font-style="normal" 
>
<path vector-effect="non-scaling-stroke" fill-rule="evenodd" d="M800.033,174.194 C800.033,175.824 798.711,177.146 797.08,177.146 C795.449,177.146 794.127,175.824 794.127,174.194 C794.127,172.563 795.449,171.241 797.08,171.241 C798.711,171.241 800.033,172.563 800.033,174.194 "/>
</g>

<g fill="#ffffff" fill-opacity="1" stroke="#bbbbbb" stroke-opacity="1" stroke-width="2.3622" stroke-linecap="square" stroke-linejoin="bevel" transform="matrix(0.999067,0,0,0.999067,0,0)"
font-family=".SF NS Text" font-size="54.1667" font-weight="400" font-style="normal" 
>
<path vector-effect="none" fill-rule="evenodd" d="M762.174,317.886 C762.174,321.799 759.001,324.972 755.087,324.972 C751.173,324.972 748,321.799 748,317.886 C748,313.972 751.173,310.799 755.087,310.799 C759.001,310.799 762.174,313.972 762.174,317.886 "/>
</g>

<g fill="#bbbbbb" fill-opacity="1" stroke="none" transform="matrix(0.999067,0,0,0.999067,0,0)"
font-family=".SF NS Text" font-size="54.1667" font-weight="400" font-style="normal" 
>
<path vector-effect="non-scaling-stroke" fill-rule="evenodd" d="M758.04,317.886 C758.04,319.516 756.718,320.838 755.087,320.838 C753.456,320.838 752.134,319.516 752.134,317.886 C752.134,316.255 753.456,314.933 755.087,314.933 C756.718,314.933 758.04,316.255 758.04,317.886 "/>
</g>

<g fill="#ffffff" fill-opacity="1" stroke="#bbbbbb" stroke-opacity="1" stroke-width="2.3622" stroke-linecap="square" stroke-linejoin="bevel" transform="matrix(0.999067,0,0,0.999067,0,0)"
font-family=".SF NS Text" font-size="54.1667" font-weight="400" font-style="normal" 
>
<path vector-effect="none" fill-rule="evenodd" d="M751.855,268.302 C751.855,272.216 748.682,275.389 744.768,275.389 C740.854,275.389 737.682,272.216 737.682,268.302 C737.682,264.388 740.854,261.216 744.768,261.216 C748.682,261.216 751.855,264.388 751.855,268.302 "/>
</g>

<g fill="#bbbbbb" fill-opacity="1" stroke="none" transform="matrix(0.999067,0,0,0.999067,0,0)"
font-family=".SF NS Text" font-size="54.1667" font-weight="400" font-style="normal" 
>
<path vector-effect="non-scaling-stroke" fill-rule="evenodd" d="M747.721,268.302 C747.721,269.933 746.399,271.255 744.768,271.255 C743.137,271.255 741.815,269.933 741.815,268.302 C741.815,266.672 743.137,265.35 744.768,265.35 C746.399,265.35 747.721,266.672 747.721,268.302 "/>
</g>

<g fill="#ffffff" fill-opacity="1" stroke="#bbbbbb" stroke-opacity="1" stroke-width="2.3622" stroke-linecap="square" stroke-linejoin="bevel" transform="matrix(0.999067,0,0,0.999067,0,0)"
font-family=".SF NS Text" font-size="54.1667" font-weight="400" font-style="normal" 
>
<path vector-effect="none" fill-rule="evenodd" d="M748.666,353.739 C748.666,357.653 745.493,360.825 741.58,360.825 C737.666,360.825 734.493,357.653 734.493,353.739 C734.493,349.825 737.666,346.652 741.58,346.652 C745.493,346.652 748.666,349.825 748.666,353.739 "/>
</g>

<g fill="#bbbbbb" fill-opacity="1" stroke="none" transform="matrix(0.999067,0,0,0.999067,0,0)"
font-family=".SF NS Text" font-size="54.1667" font-weight="400" font-style="normal" 
>
<path vector-effect="non-scaling-stroke" fill-rule="evenodd" d="M744.532,353.739 C744.532,355.37 743.21,356.692 741.58,356.692 C739.949,356.692 738.627,355.37 738.627,353.739 C738.627,352.108 739.949,350.786 741.58,350.786 C743.21,350.786 744.532,352.108 744.532,353.739 "/>
</g>

<g fill="#ffffff" fill-opacity="1" stroke="#bbbbbb" stroke-opacity="1" stroke-width="2.3622" stroke-linecap="square" stroke-linejoin="bevel" transform="matrix(0.999067,0,0,0.999067,0,0)"
font-family=".SF NS Text" font-size="54.1667" font-weight="400" font-style="normal" 
>
<path vector-effect="none" fill-rule="evenodd" d="M720.373,107.211 C720.373,111.125 717.2,114.298 713.286,114.298 C709.372,114.298 706.2,111.125 706.2,107.211 C706.2,103.297 709.372,100.124 713.286,100.124 C717.2,100.124 720.373,103.297 720.373,107.211 "/>
</g>

<g fill="#bbbbbb" fill-opacity="1" stroke="none" transform="matrix(0.999067,0,0,0.999067,0,0)"
font-family=".SF NS Text" font-size="54.1667" font-weight="400" font-style="normal" 
>
<path vector-effect="non-scaling-stroke" fill-rule="evenodd" d="M716.239,107.211 C716.239,108.842 714.917,110.164 713.286,110.164 C711.656,110.164 710.334,108.842 710.334,107.211 C710.334,105.58 711.656,104.258 713.286,104.258 C714.917,104.258 716.239,105.58 716.239,107.211 "/>
</g>

<g fill="#ffffff" fill-opacity="1" stroke="#bbbbbb" stroke-opacity="1" stroke-width="2.3622" stroke-linecap="square" stroke-linejoin="bevel" transform="matrix(0.999067,0,0,0.999067,0,0)"
font-family=".SF NS Text" font-size="54.1667" font-weight="400" font-style="normal" 
>
<path vector-effect="none" fill-rule="evenodd" d="M681.183,302.933 C681.183,306.847 678.01,310.019 674.096,310.019 C670.182,310.019 667.009,306.847 667.009,302.933 C667.009,299.019 670.182,295.846 674.096,295.846 C678.01,295.846 681.183,299.019 681.183,302.933 "/>
</g>

<g fill="#bbbbbb" fill-opacity="1" stroke="none" transform="matrix(0.999067,0,0,0.999067,0,0)"
font-family=".SF NS Text" font-size="54.1667" font-weight="400" font-style="normal" 
>
<path vector-effect="non-scaling-stroke" fill-rule="evenodd" d="M677.049,302.933 C677.049,304.564 675.727,305.886 674.096,305.886 C672.465,305.886 671.143,304.564 671.143,302.933 C671.143,301.302 672.465,299.98 674.096,299.98 C675.727,299.98 677.049,301.302 677.049,302.933 "/>
</g>

<g fill="#ffffff" fill-opacity="1" stroke="#bbbbbb" stroke-opacity="1" stroke-width="2.3622" stroke-linecap="square" stroke-linejoin="bevel" transform="matrix(0.999067,0,0,0.999067,0,0)"
font-family=".SF NS Text" font-size="54.1667" font-weight="400" font-style="normal" 
>
<path vector-effect="none" fill-rule="evenodd" d="M678.204,339.231 C678.204,343.145 675.032,346.317 671.118,346.317 C667.204,346.317 664.031,343.145 664.031,339.231 C664.031,335.317 667.204,332.144 671.118,332.144 C675.032,332.144 678.204,335.317 678.204,339.231 "/>
</g>

<g fill="#bbbbbb" fill-opacity="1" stroke="none" transform="matrix(0.999067,0,0,0.999067,0,0)"
font-family=".SF NS Text" font-size="54.1667" font-weight="400" font-style="normal" 
>
<path vector-effect="non-scaling-stroke" fill-rule="evenodd" d="M674.071,339.231 C674.071,340.862 672.749,342.184 671.118,342.184 C669.487,342.184 668.165,340.862 668.165,339.231 C668.165,337.6 669.487,336.278 671.118,336.278 C672.749,336.278 674.071,337.6 674.071,339.231 "/>
</g>

<g fill="#ffffff" fill-opacity="1" stroke="#bbbbbb" stroke-opacity="1" stroke-width="2.3622" stroke-linecap="square" stroke-linejoin="bevel" transform="matrix(0.999067,0,0,0.999067,0,0)"
font-family=".SF NS Text" font-size="54.1667" font-weight="400" font-style="normal" 
>
<path vector-effect="none" fill-rule="evenodd" d="M654.501,367.663 C654.501,371.577 651.328,374.75 647.414,374.75 C643.501,374.75 640.328,371.577 640.328,367.663 C640.328,363.749 643.501,360.577 647.414,360.577 C651.328,360.577 654.501,363.749 654.501,367.663 "/>
</g>

<g fill="#bbbbbb" fill-opacity="1" stroke="none" transform="matrix(0.999067,0,0,0.999067,0,0)"
font-family=".SF NS Text" font-size="54.1667" font-weight="400" font-style="normal" 
>
<path vector-effect="non-scaling-stroke" fill-rule="evenodd" d="M650.367,367.663 C650.367,369.294 649.045,370.616 647.414,370.616 C645.784,370.616 644.462,369.294 644.462,367.663 C644.462,366.032 645.784,364.71 647.414,364.71 C649.045,364.71 650.367,366.032 650.367,367.663 "/>
</g>

<g fill="#ffffff" fill-opacity="1" stroke="#bbbbbb" stroke-opacity="1" stroke-width="2.3622" stroke-linecap="square" stroke-linejoin="bevel" transform="matrix(0.999067,0,0,0.999067,0,0)"
font-family=".SF NS Text" font-size="54.1667" font-weight="400" font-style="normal" 
>
<path vector-effect="none" fill-rule="evenodd" d="M636.229,37.5876 C636.229,41.5014 633.056,44.6742 629.142,44.6742 C625.228,44.6742 622.055,41.5014 622.055,37.5876 C622.055,33.6737 625.228,30.501 629.142,30.501 C633.056,30.501 636.229,33.6737 636.229,37.5876 "/>
</g>

<g fill="#bbbbbb" fill-opacity="1" stroke="none" transform="matrix(0.999067,0,0,0.999067,0,0)"
font-family=".SF NS Text" font-size="54.1667" font-weight="400" font-style="normal" 
>
<path vector-effect="non-scaling-stroke" fill-rule="evenodd" d="M632.095,37.5876 C632.095,39.2183 630.773,40.5403 629.142,40.5403 C627.511,40.5403 626.189,39.2183 626.189,37.5876 C626.189,35.9568 627.511,34.6348 629.142,34.6348 C630.773,34.6348 632.095,35.9568 632.095,37.5876 "/>
</g>

<g fill="#ffffff" fill-opacity="1" stroke="#bbbbbb" stroke-opacity="1" stroke-width="2.3622" stroke-linecap="square" stroke-linejoin="bevel" transform="matrix(0.999067,0,0,0.999067,0,0)"
font-family=".SF NS Text" font-size="54.1667" font-weight="400" font-style="normal" 
>
<path vector-effect="none" fill-rule="evenodd" d="M598.808,288.786 C598.808,292.7 595.635,295.873 591.721,295.873 C587.807,295.873 584.634,292.7 584.634,288.786 C584.634,284.872 587.807,281.699 591.721,281.699 C595.635,281.699 598.808,284.872 598.808,288.786 "/>
</g>

<g fill="#bbbbbb" fill-opacity="1" stroke="none" transform="matrix(0.999067,0,0,0.999067,0,0)"
font-family=".SF NS Text" font-size="54.1667" font-weight="400" font-style="normal" 
>
<path vector-effect="non-scaling-stroke" fill-rule="evenodd" d="M594.674,288.786 C594.674,290.417 593.352,291.739 591.721,291.739 C590.09,291.739 588.768,290.417 588.768,288.786 C588.768,287.155 590.09,285.833 591.721,285.833 C593.352,285.833 594.674,287.155 594.674,288.786 "/>
</g>

<g fill="#ffffff" fill-opacity="1" stroke="#bbbbbb" stroke-opacity="1" stroke-width="2.3622" stroke-linecap="square" stroke-linejoin="bevel" transform="matrix(0.999067,0,0,0.999067,0,0)"
font-family=".SF NS Text" font-size="54.1667" font-weight="400" font-style="normal" 
>
<path vector-effect="none" fill-rule="evenodd" d="M593.254,326.863 C593.254,330.777 590.081,333.949 586.168,333.949 C582.254,333.949 579.081,330.777 579.081,326.863 C579.081,322.949 582.254,319.776 586.168,319.776 C590.081,319.776 593.254,322.949 593.254,326.863 "/>
</g>

<g fill="#bbbbbb" fill-opacity="1" stroke="none" transform="matrix(0.999067,0,0,0.999067,0,0)"
font-family=".SF NS Text" font-size="54.1667" font-weight="400" font-style="normal" 
>
<path vector-effect="non-scaling-stroke" fill-rule="evenodd" d="M589.12,326.863 C589.12,328.494 587.798,329.816 586.168,329.816 C584.537,329.816 583.215,328.494 583.215,326.863 C583.215,325.232 584.537,323.91 586.168,323.91 C587.798,323.91 589.12,325.232 589.12,326.863 "/>
</g>

<g fill="#ffffff" fill-opacity="1" stroke="#bbbbbb" stroke-opacity="1" stroke-width="2.3622" stroke-linecap="square" stroke-linejoin="bevel" transform="matrix(0.999067,0,0,0.999067,0,0)"
font-family=".SF NS Text" font-size="54.1667" font-weight="400" font-style="normal" 
>
<path vector-effect="none" fill-rule="evenodd" d="M578.188,449.403 C578.188,453.316 575.015,456.489 571.101,456.489 C567.187,456.489 564.014,453.316 564.014,449.403 C564.014,445.489 567.187,442.316 571.101,442.316 C575.015,442.316 578.188,445.489 578.188,449.403 "/>
</g>

<g fill="#bbbbbb" fill-opacity="1" stroke="none" transform="matrix(0.999067,0,0,0.999067,0,0)"
font-family=".SF NS Text" font-size="54.1667" font-weight="400" font-style="normal" 
>
<path vector-effect="non-scaling-stroke" fill-rule="evenodd" d="M574.054,449.403 C574.054,451.033 572.732,452.355 571.101,452.355 C569.47,452.355 568.148,451.033 568.148,449.403 C568.148,447.772 569.47,446.45 571.101,446.45 C572.732,446.45 574.054,447.772 574.054,449.403 "/>
</g>

<g fill="#ffffff" fill-opacity="1" stroke="#bbbbbb" stroke-opacity="1" stroke-width="2.3622" stroke-linecap="square" stroke-linejoin="bevel" transform="matrix(0.999067,0,0,0.999067,0,0)"
font-family=".SF NS Text" font-size="54.1667" font-weight="400" font-style="normal" 
>
<path vector-effect="none" fill-rule="evenodd" d="M508.216,284.256 C508.216,288.17 505.044,291.342 501.13,291.342 C497.216,291.342 494.043,288.17 494.043,284.256 C494.043,280.342 497.216,277.169 501.13,277.169 C505.044,277.169 508.216,280.342 508.216,284.256 "/>
</g>

<g fill="#bbbbbb" fill-opacity="1" stroke="none" transform="matrix(0.999067,0,0,0.999067,0,0)"
font-family=".SF NS Text" font-size="54.1667" font-weight="400" font-style="normal" 
>
<path vector-effect="non-scaling-stroke" fill-rule="evenodd" d="M504.082,284.256 C504.082,285.886 502.761,287.208 501.13,287.208 C499.499,287.208 498.177,285.886 498.177,284.256 C498.177,282.625 499.499,281.303 501.13,281.303 C502.761,281.303 504.082,282.625 504.082,284.256 "/>
</g>

<g fill="#ffffff" fill-opacity="1" stroke="#bbbbbb" stroke-opacity="1" stroke-width="2.3622" stroke-linecap="square" stroke-linejoin="bevel" transform="matrix(0.999067,0,0,0.999067,0,0)"
font-family=".SF NS Text" font-size="54.1667" font-weight="400" font-style="normal" 
>
<path vector-effect="none" fill-rule="evenodd" d="M502.82,321.943 C502.82,325.857 499.648,329.03 495.734,329.03 C491.82,329.03 488.647,325.857 488.647,321.943 C488.647,318.03 491.82,314.857 495.734,314.857 C499.648,314.857 502.82,318.03 502.82,321.943 "/>
</g>

<g fill="#bbbbbb" fill-opacity="1" stroke="none" transform="matrix(0.999067,0,0,0.999067,0,0)"
font-family=".SF NS Text" font-size="54.1667" font-weight="400" font-style="normal" 
>
<path vector-effect="non-scaling-stroke" fill-rule="evenodd" d="M498.687,321.943 C498.687,323.574 497.365,324.896 495.734,324.896 C494.103,324.896 492.781,323.574 492.781,321.943 C492.781,320.313 494.103,318.991 495.734,318.991 C497.365,318.991 498.687,320.313 498.687,321.943 "/>
</g>

<g fill="#ffffff" fill-opacity="1" stroke="#bbbbbb" stroke-opacity="1" stroke-width="2.3622" stroke-linecap="square" stroke-linejoin="bevel" transform="matrix(0.999067,0,0,0.999067,0,0)"
font-family=".SF NS Text" font-size="54.1667" font-weight="400" font-style="normal" 
>
<path vector-effect="none" fill-rule="evenodd" d="M418.253,280.408 C418.253,283.343 415.874,285.723 412.938,285.723 C410.003,285.723 407.623,283.343 407.623,280.408 C407.623,277.472 410.003,275.093 412.938,275.093 C415.874,275.093 418.253,277.472 418.253,280.408 "/>
</g>

<g fill="#ffffff" fill-opacity="1" stroke="#bbbbbb" stroke-opacity="1" stroke-width="2.3622" stroke-linecap="square" stroke-linejoin="bevel" transform="matrix(0.999067,0,0,0.999067,0,0)"
font-family=".SF NS Text" font-size="54.1667" font-weight="400" font-style="normal" 
>
<path vector-effect="none" fill-rule="evenodd" d="M418.238,321.582 C418.238,325.496 415.065,328.669 411.152,328.669 C407.238,328.669 404.065,325.496 404.065,321.582 C404.065,317.668 407.238,314.495 411.152,314.495 C415.065,314.495 418.238,317.668 418.238,321.582 "/>
</g>

<g fill="#bbbbbb" fill-opacity="1" stroke="none" transform="matrix(0.999067,0,0,0.999067,0,0)"
font-family=".SF NS Text" font-size="54.1667" font-weight="400" font-style="normal" 
>
<path vector-effect="non-scaling-stroke" fill-rule="evenodd" d="M414.104,321.582 C414.104,323.213 412.782,324.535 411.152,324.535 C409.521,324.535 408.199,323.213 408.199,321.582 C408.199,319.951 409.521,318.629 411.152,318.629 C412.782,318.629 414.104,319.951 414.104,321.582 "/>
</g>

<g fill="#ffffff" fill-opacity="1" stroke="#bbbbbb" stroke-opacity="1" stroke-width="2.3622" stroke-linecap="square" stroke-linejoin="bevel" transform="matrix(0.999067,0,0,0.999067,0,0)"
font-family=".SF NS Text" font-size="54.1667" font-weight="400" font-style="normal" 
>
<path vector-effect="none" fill-rule="evenodd" d="M407.569,279.864 C407.569,283.778 404.396,286.951 400.482,286.951 C396.569,286.951 393.396,283.778 393.396,279.864 C393.396,275.951 396.569,272.778 400.482,272.778 C404.396,272.778 407.569,275.951 407.569,279.864 "/>
</g>

<g fill="#bbbbbb" fill-opacity="1" stroke="none" transform="matrix(0.999067,0,0,0.999067,0,0)"
font-family=".SF NS Text" font-size="54.1667" font-weight="400" font-style="normal" 
>
<path vector-effect="non-scaling-stroke" fill-rule="evenodd" d="M403.435,279.864 C403.435,281.495 402.113,282.817 400.482,282.817 C398.852,282.817 397.53,281.495 397.53,279.864 C397.53,278.234 398.852,276.912 400.482,276.912 C402.113,276.912 403.435,278.234 403.435,279.864 "/>
</g>

<g fill="#ffffff" fill-opacity="1" stroke="#bbbbbb" stroke-opacity="1" stroke-width="2.3622" stroke-linecap="square" stroke-linejoin="bevel" transform="matrix(0.999067,0,0,0.999067,0,0)"
font-family=".SF NS Text" font-size="54.1667" font-weight="400" font-style="normal" 
>
<path vector-effect="none" fill-rule="evenodd" d="M386.651,322.555 C386.651,326.469 383.478,329.641 379.565,329.641 C375.651,329.641 372.478,326.469 372.478,322.555 C372.478,318.641 375.651,315.468 379.565,315.468 C383.478,315.468 386.651,318.641 386.651,322.555 "/>
</g>

<g fill="#bbbbbb" fill-opacity="1" stroke="none" transform="matrix(0.999067,0,0,0.999067,0,0)"
font-family=".SF NS Text" font-size="54.1667" font-weight="400" font-style="normal" 
>
<path vector-effect="non-scaling-stroke" fill-rule="evenodd" d="M382.517,322.555 C382.517,324.186 381.195,325.508 379.565,325.508 C377.934,325.508 376.612,324.186 376.612,322.555 C376.612,320.924 377.934,319.602 379.565,319.602 C381.195,319.602 382.517,320.924 382.517,322.555 "/>
</g>

<g fill="#ffffff" fill-opacity="1" stroke="#bbbbbb" stroke-opacity="1" stroke-width="2.3622" stroke-linecap="square" stroke-linejoin="bevel" transform="matrix(0.999067,0,0,0.999067,0,0)"
font-family=".SF NS Text" font-size="54.1667" font-weight="400" font-style="normal" 
>
<path vector-effect="none" fill-rule="evenodd" d="M382.331,281.322 C382.331,284.258 379.951,286.637 377.016,286.637 C374.081,286.637 371.701,284.258 371.701,281.322 C371.701,278.387 374.081,276.008 377.016,276.008 C379.951,276.008 382.331,278.387 382.331,281.322 "/>
</g>

<g fill="#ffffff" fill-opacity="1" stroke="#bbbbbb" stroke-opacity="1" stroke-width="2.3622" stroke-linecap="square" stroke-linejoin="bevel" transform="matrix(0.999067,0,0,0.999067,0,0)"
font-family=".SF NS Text" font-size="54.1667" font-weight="400" font-style="normal" 
>
<path vector-effect="none" fill-rule="evenodd" d="M346.392,322.388 C346.392,326.302 343.219,329.475 339.306,329.475 C335.392,329.475 332.219,326.302 332.219,322.388 C332.219,318.474 335.392,315.301 339.306,315.301 C343.219,315.301 346.392,318.474 346.392,322.388 "/>
</g>

<g fill="#bbbbbb" fill-opacity="1" stroke="none" transform="matrix(0.999067,0,0,0.999067,0,0)"
font-family=".SF NS Text" font-size="54.1667" font-weight="400" font-style="normal" 
>
<path vector-effect="non-scaling-stroke" fill-rule="evenodd" d="M342.258,322.388 C342.258,324.019 340.936,325.341 339.306,325.341 C337.675,325.341 336.353,324.019 336.353,322.388 C336.353,320.757 337.675,319.435 339.306,319.435 C340.936,319.435 342.258,320.757 342.258,322.388 "/>
</g>

<g fill="#ffffff" fill-opacity="1" stroke="#bbbbbb" stroke-opacity="1" stroke-width="2.3622" stroke-linecap="square" stroke-linejoin="bevel" transform="matrix(0.999067,0,0,0.999067,0,0)"
font-family=".SF NS Text" font-size="54.1667" font-weight="400" font-style="normal" 
>
<path vector-effect="none" fill-rule="evenodd" d="M342.236,283.814 C342.236,286.749 339.857,289.129 336.921,289.129 C333.986,289.129 331.606,286.749 331.606,283.814 C331.606,280.879 333.986,278.499 336.921,278.499 C339.857,278.499 342.236,280.879 342.236,283.814 "/>
</g>

<g fill="#ffffff" fill-opacity="1" stroke="#bbbbbb" stroke-opacity="1" stroke-width="2.3622" stroke-linecap="square" stroke-linejoin="bevel" transform="matrix(0.999067,0,0,0.999067,0,0)"
font-family=".SF NS Text" font-size="54.1667" font-weight="400" font-style="normal" 
>
<path vector-effect="none" fill-rule="evenodd" d="M244.326,290.009 C244.326,293.923 241.153,297.096 237.239,297.096 C233.325,297.096 230.153,293.923 230.153,290.009 C230.153,286.095 233.325,282.922 237.239,282.922 C241.153,282.922 244.326,286.095 244.326,290.009 "/>
</g>

<g fill="#bbbbbb" fill-opacity="1" stroke="none" transform="matrix(0.999067,0,0,0.999067,0,0)"
font-family=".SF NS Text" font-size="54.1667" font-weight="400" font-style="normal" 
>
<path vector-effect="non-scaling-stroke" fill-rule="evenodd" d="M240.192,290.009 C240.192,291.64 238.87,292.962 237.239,292.962 C235.608,292.962 234.287,291.64 234.287,290.009 C234.287,288.378 235.608,287.056 237.239,287.056 C238.87,287.056 240.192,288.378 240.192,290.009 "/>
</g>

<g fill="#ffffff" fill-opacity="1" stroke="#bbbbbb" stroke-opacity="1" stroke-width="2.3622" stroke-linecap="square" stroke-linejoin="bevel" transform="matrix(0.999067,0,0,0.999067,0,0)"
font-family=".SF NS Text" font-size="54.1667" font-weight="400" font-style="normal" 
>
<path vector-effect="none" fill-rule="evenodd" d="M242.749,331.56 C242.749,335.474 239.576,338.646 235.663,338.646 C231.749,338.646 228.576,335.474 228.576,331.56 C228.576,327.646 231.749,324.473 235.663,324.473 C239.576,324.473 242.749,327.646 242.749,331.56 "/>
</g>

<g fill="#bbbbbb" fill-opacity="1" stroke="none" transform="matrix(0.999067,0,0,0.999067,0,0)"
font-family=".SF NS Text" font-size="54.1667" font-weight="400" font-style="normal" 
>
<path vector-effect="non-scaling-stroke" fill-rule="evenodd" d="M238.615,331.56 C238.615,333.191 237.293,334.513 235.663,334.513 C234.032,334.513 232.71,333.191 232.71,331.56 C232.71,329.929 234.032,328.607 235.663,328.607 C237.293,328.607 238.615,329.929 238.615,331.56 "/>
</g>

<g fill="#ffffff" fill-opacity="1" stroke="#bbbbbb" stroke-opacity="1" stroke-width="2.3622" stroke-linecap="square" stroke-linejoin="bevel" transform="matrix(0.999067,0,0,0.999067,0,0)"
font-family=".SF NS Text" font-size="54.1667" font-weight="400" font-style="normal" 
>
<path vector-effect="none" fill-rule="evenodd" d="M194.662,337.913 C194.662,340.848 192.283,343.228 189.347,343.228 C186.412,343.228 184.032,340.848 184.032,337.913 C184.032,334.978 186.412,332.598 189.347,332.598 C192.283,332.598 194.662,334.978 194.662,337.913 "/>
</g>

<g fill="#ffffff" fill-opacity="1" stroke="#bbbbbb" stroke-opacity="1" stroke-width="2.3622" stroke-linecap="square" stroke-linejoin="bevel" transform="matrix(0.999067,0,0,0.999067,0,0)"
font-family=".SF NS Text" font-size="54.1667" font-weight="400" font-style="normal" 
>
<path vector-effect="none" fill-rule="evenodd" d="M191.366,300.765 C191.366,304.679 188.193,307.852 184.279,307.852 C180.365,307.852 177.192,304.679 177.192,300.765 C177.192,296.851 180.365,293.678 184.279,293.678 C188.193,293.678 191.366,296.851 191.366,300.765 "/>
</g>

<g fill="#bbbbbb" fill-opacity="1" stroke="none" transform="matrix(0.999067,0,0,0.999067,0,0)"
font-family=".SF NS Text" font-size="54.1667" font-weight="400" font-style="normal" 
>
<path vector-effect="non-scaling-stroke" fill-rule="evenodd" d="M187.232,300.765 C187.232,302.396 185.91,303.718 184.279,303.718 C182.648,303.718 181.326,302.396 181.326,300.765 C181.326,299.134 182.648,297.812 184.279,297.812 C185.91,297.812 187.232,299.134 187.232,300.765 "/>
</g>

<g fill="#ffffff" fill-opacity="1" stroke="#bbbbbb" stroke-opacity="1" stroke-width="2.3622" stroke-linecap="square" stroke-linejoin="bevel" transform="matrix(0.999067,0,0,0.999067,0,0)"
font-family=".SF NS Text" font-size="54.1667" font-weight="400" font-style="normal" 
>
<path vector-effect="none" fill-rule="evenodd" d="M151.369,344.095 C151.369,348.008 148.197,351.181 144.283,351.181 C140.369,351.181 137.196,348.008 137.196,344.095 C137.196,340.181 140.369,337.008 144.283,337.008 C148.197,337.008 151.369,340.181 151.369,344.095 "/>
</g>

<g fill="#bbbbbb" fill-opacity="1" stroke="none" transform="matrix(0.999067,0,0,0.999067,0,0)"
font-family=".SF NS Text" font-size="54.1667" font-weight="400" font-style="normal" 
>
<path vector-effect="non-scaling-stroke" fill-rule="evenodd" d="M147.236,344.095 C147.236,345.725 145.914,347.047 144.283,347.047 C142.652,347.047 141.33,345.725 141.33,344.095 C141.33,342.464 142.652,341.142 144.283,341.142 C145.914,341.142 147.236,342.464 147.236,344.095 "/>
</g>

<g fill="#ffffff" fill-opacity="1" stroke="#bbbbbb" stroke-opacity="1" stroke-width="2.3622" stroke-linecap="square" stroke-linejoin="bevel" transform="matrix(0.999067,0,0,0.999067,0,0)"
font-family=".SF NS Text" font-size="54.1667" font-weight="400" font-style="normal" 
>
<path vector-effect="none" fill-rule="evenodd" d="M144.165,307.556 C144.165,310.492 141.785,312.871 138.85,312.871 C135.914,312.871 133.535,310.492 133.535,307.556 C133.535,304.621 135.914,302.241 138.85,302.241 C141.785,302.241 144.165,304.621 144.165,307.556 "/>
</g>

<g fill="#ffffff" fill-opacity="1" stroke="#bbbbbb" stroke-opacity="1" stroke-width="2.3622" stroke-linecap="square" stroke-linejoin="bevel" transform="matrix(0.999067,0,0,0.999067,0,0)"
font-family=".SF NS Text" font-size="54.1667" font-weight="400" font-style="normal" 
>
<path vector-effect="none" fill-rule="evenodd" d="M38.0733,363.8 C38.0733,367.714 34.9005,370.887 30.9867,370.887 C27.0728,370.887 23.9001,367.714 23.9001,363.8 C23.9001,359.886 27.0728,356.713 30.9867,356.713 C34.9005,356.713 38.0733,359.886 38.0733,363.8 "/>
</g>

<g fill="#bbbbbb" fill-opacity="1" stroke="none" transform="matrix(0.999067,0,0,0.999067,0,0)"
font-family=".SF NS Text" font-size="54.1667" font-weight="400" font-style="normal" 
>
<path vector-effect="non-scaling-stroke" fill-rule="evenodd" d="M33.9394,363.8 C33.9394,365.431 32.6174,366.753 30.9867,366.753 C29.3559,366.753 28.0339,365.431 28.0339,363.8 C28.0339,362.169 29.3559,360.847 30.9867,360.847 C32.6174,360.847 33.9394,362.169 33.9394,363.8 "/>
</g>

<g fill="#ffffff" fill-opacity="1" stroke="#bbbbbb" stroke-opacity="1" stroke-width="2.3622" stroke-linecap="square" stroke-linejoin="bevel" transform="matrix(0.999067,0,0,0.999067,0,0)"
font-family=".SF NS Text" font-size="54.1667" font-weight="400" font-style="normal" 
>
<path vector-effect="none" fill-rule="evenodd" d="M32.4146,324.528 C32.4146,328.442 29.2418,331.615 25.328,331.615 C21.4142,331.615 18.2414,328.442 18.2414,324.528 C18.2414,320.614 21.4142,317.442 25.328,317.442 C29.2418,317.442 32.4146,320.614 32.4146,324.528 "/>
</g>

<g fill="#bbbbbb" fill-opacity="1" stroke="none" transform="matrix(0.999067,0,0,0.999067,0,0)"
font-family=".SF NS Text" font-size="54.1667" font-weight="400" font-style="normal" 
>
<path vector-effect="non-scaling-stroke" fill-rule="evenodd" d="M28.2808,324.528 C28.2808,326.159 26.9588,327.481 25.328,327.481 C23.6972,327.481 22.3752,326.159 22.3752,324.528 C22.3752,322.897 23.6972,321.575 25.328,321.575 C26.9588,321.575 28.2808,322.897 28.2808,324.528 "/>
</g>

<g fill="#ffffff" fill-opacity="1" stroke="#bbbbbb" stroke-opacity="1" stroke-width="2.3622" stroke-linecap="square" stroke-linejoin="bevel" transform="matrix(0.999067,0,0,0.999067,0,0)"
font-family=".SF NS Text" font-size="54.1667" font-weight="400" font-style="normal" 
>
<path vector-effect="none" fill-rule="evenodd" d="M814.03,182.17 C814.03,186.084 810.857,189.257 806.943,189.257 C803.03,189.257 799.857,186.084 799.857,182.17 C799.857,178.257 803.03,175.084 806.943,175.084 C810.857,175.084 814.03,178.257 814.03,182.17 "/>
</g>

<g fill="#bbbbbb" fill-opacity="1" stroke="none" transform="matrix(0.999067,0,0,0.999067,0,0)"
font-family=".SF NS Text" font-size="54.1667" font-weight="400" font-style="normal" 
>
<path vector-effect="non-scaling-stroke" fill-rule="evenodd" d="M809.896,182.17 C809.896,183.801 808.574,185.123 806.943,185.123 C805.313,185.123 803.991,183.801 803.991,182.17 C803.991,180.54 805.313,179.218 806.943,179.218 C808.574,179.218 809.896,180.54 809.896,182.17 "/>
</g>

<g fill="#ffffff" fill-opacity="1" stroke="#bbbbbb" stroke-opacity="1" stroke-width="2.3622" stroke-linecap="square" stroke-linejoin="bevel" transform="matrix(0.999067,0,0,0.999067,0,0)"
font-family=".SF NS Text" font-size="54.1667" font-weight="400" font-style="normal" 
>
<path vector-effect="none" fill-rule="evenodd" d="M636.229,37.5876 C636.229,41.5014 633.056,44.6742 629.142,44.6742 C625.228,44.6742 622.055,41.5014 622.055,37.5876 C622.055,33.6737 625.228,30.501 629.142,30.501 C633.056,30.501 636.229,33.6737 636.229,37.5876 "/>
</g>

<g fill="#bbbbbb" fill-opacity="1" stroke="none" transform="matrix(0.999067,0,0,0.999067,0,0)"
font-family=".SF NS Text" font-size="54.1667" font-weight="400" font-style="normal" 
>
<path vector-effect="non-scaling-stroke" fill-rule="evenodd" d="M632.095,37.5876 C632.095,39.2183 630.773,40.5403 629.142,40.5403 C627.511,40.5403 626.189,39.2183 626.189,37.5876 C626.189,35.9568 627.511,34.6348 629.142,34.6348 C630.773,34.6348 632.095,35.9568 632.095,37.5876 "/>
</g>

<g fill="#ffffff" fill-opacity="1" stroke="#bbbbbb" stroke-opacity="1" stroke-width="2.3622" stroke-linecap="square" stroke-linejoin="bevel" transform="matrix(0.999067,0,0,0.999067,0,0)"
font-family=".SF NS Text" font-size="54.1667" font-weight="400" font-style="normal" 
>
<path vector-effect="none" fill-rule="evenodd" d="M720.373,107.211 C720.373,111.125 717.2,114.298 713.286,114.298 C709.372,114.298 706.2,111.125 706.2,107.211 C706.2,103.297 709.372,100.124 713.286,100.124 C717.2,100.124 720.373,103.297 720.373,107.211 "/>
</g>

<g fill="#bbbbbb" fill-opacity="1" stroke="none" transform="matrix(0.999067,0,0,0.999067,0,0)"
font-family=".SF NS Text" font-size="54.1667" font-weight="400" font-style="normal" 
>
<path vector-effect="non-scaling-stroke" fill-rule="evenodd" d="M716.239,107.211 C716.239,108.842 714.917,110.164 713.286,110.164 C711.656,110.164 710.334,108.842 710.334,107.211 C710.334,105.58 711.656,104.258 713.286,104.258 C714.917,104.258 716.239,105.58 716.239,107.211 "/>
</g>

<g fill="#ffffff" fill-opacity="1" stroke="#bbbbbb" stroke-opacity="1" stroke-width="2.3622" stroke-linecap="square" stroke-linejoin="bevel" transform="matrix(0.999067,0,0,0.999067,0,0)"
font-family=".SF NS Text" font-size="54.1667" font-weight="400" font-style="normal" 
>
<path vector-effect="none" fill-rule="evenodd" d="M804.167,174.194 C804.167,178.107 800.994,181.28 797.08,181.28 C793.166,181.28 789.994,178.107 789.994,174.194 C789.994,170.28 793.166,167.107 797.08,167.107 C800.994,167.107 804.167,170.28 804.167,174.194 "/>
</g>

<g fill="#bbbbbb" fill-opacity="1" stroke="none" transform="matrix(0.999067,0,0,0.999067,0,0)"
font-family=".SF NS Text" font-size="54.1667" font-weight="400" font-style="normal" 
>
<path vector-effect="non-scaling-stroke" fill-rule="evenodd" d="M800.033,174.194 C800.033,175.824 798.711,177.146 797.08,177.146 C795.449,177.146 794.127,175.824 794.127,174.194 C794.127,172.563 795.449,171.241 797.08,171.241 C798.711,171.241 800.033,172.563 800.033,174.194 "/>
</g>

<g fill="#ffffff" fill-opacity="1" stroke="#bbbbbb" stroke-opacity="1" stroke-width="2.3622" stroke-linecap="square" stroke-linejoin="bevel" transform="matrix(0.999067,0,0,0.999067,0,0)"
font-family=".SF NS Text" font-size="54.1667" font-weight="400" font-style="normal" 
>
<path vector-effect="none" fill-rule="evenodd" d="M814.03,182.17 C814.03,186.084 810.857,189.257 806.943,189.257 C803.03,189.257 799.857,186.084 799.857,182.17 C799.857,178.257 803.03,175.084 806.943,175.084 C810.857,175.084 814.03,178.257 814.03,182.17 "/>
</g>

<g fill="#bbbbbb" fill-opacity="1" stroke="none" transform="matrix(0.999067,0,0,0.999067,0,0)"
font-family=".SF NS Text" font-size="54.1667" font-weight="400" font-style="normal" 
>
<path vector-effect="non-scaling-stroke" fill-rule="evenodd" d="M809.896,182.17 C809.896,183.801 808.574,185.123 806.943,185.123 C805.313,185.123 803.991,183.801 803.991,182.17 C803.991,180.54 805.313,179.218 806.943,179.218 C808.574,179.218 809.896,180.54 809.896,182.17 "/>
</g>

<g fill="#ffffff" fill-opacity="1" stroke="#bbbbbb" stroke-opacity="1" stroke-width="2.3622" stroke-linecap="square" stroke-linejoin="bevel" transform="matrix(0.999067,0,0,0.999067,0,0)"
font-family=".SF NS Text" font-size="54.1667" font-weight="400" font-style="normal" 
>
<path vector-effect="none" fill-rule="evenodd" d="M578.188,449.403 C578.188,453.316 575.015,456.489 571.101,456.489 C567.187,456.489 564.014,453.316 564.014,449.403 C564.014,445.489 567.187,442.316 571.101,442.316 C575.015,442.316 578.188,445.489 578.188,449.403 "/>
</g>

<g fill="#bbbbbb" fill-opacity="1" stroke="none" transform="matrix(0.999067,0,0,0.999067,0,0)"
font-family=".SF NS Text" font-size="54.1667" font-weight="400" font-style="normal" 
>
<path vector-effect="non-scaling-stroke" fill-rule="evenodd" d="M574.054,449.403 C574.054,451.033 572.732,452.355 571.101,452.355 C569.47,452.355 568.148,451.033 568.148,449.403 C568.148,447.772 569.47,446.45 571.101,446.45 C572.732,446.45 574.054,447.772 574.054,449.403 "/>
</g>

<g fill="#ffffff" fill-opacity="1" stroke="#bbbbbb" stroke-opacity="1" stroke-width="2.3622" stroke-linecap="square" stroke-linejoin="bevel" transform="matrix(0.999067,0,0,0.999067,0,0)"
font-family=".SF NS Text" font-size="54.1667" font-weight="400" font-style="normal" 
>
<path vector-effect="none" fill-rule="evenodd" d="M654.501,367.663 C654.501,371.577 651.328,374.75 647.414,374.75 C643.501,374.75 640.328,371.577 640.328,367.663 C640.328,363.749 643.501,360.577 647.414,360.577 C651.328,360.577 654.501,363.749 654.501,367.663 "/>
</g>

<g fill="#bbbbbb" fill-opacity="1" stroke="none" transform="matrix(0.999067,0,0,0.999067,0,0)"
font-family=".SF NS Text" font-size="54.1667" font-weight="400" font-style="normal" 
>
<path vector-effect="non-scaling-stroke" fill-rule="evenodd" d="M650.367,367.663 C650.367,369.294 649.045,370.616 647.414,370.616 C645.784,370.616 644.462,369.294 644.462,367.663 C644.462,366.032 645.784,364.71 647.414,364.71 C649.045,364.71 650.367,366.032 650.367,367.663 "/>
</g>

<g fill="#ffffff" fill-opacity="1" stroke="#bbbbbb" stroke-opacity="1" stroke-width="2.3622" stroke-linecap="square" stroke-linejoin="bevel" transform="matrix(0.999067,0,0,0.999067,0,0)"
font-family=".SF NS Text" font-size="54.1667" font-weight="400" font-style="normal" 
>
<path vector-effect="none" fill-rule="evenodd" d="M751.855,268.302 C751.855,272.216 748.682,275.389 744.768,275.389 C740.854,275.389 737.682,272.216 737.682,268.302 C737.682,264.388 740.854,261.216 744.768,261.216 C748.682,261.216 751.855,264.388 751.855,268.302 "/>
</g>

<g fill="#bbbbbb" fill-opacity="1" stroke="none" transform="matrix(0.999067,0,0,0.999067,0,0)"
font-family=".SF NS Text" font-size="54.1667" font-weight="400" font-style="normal" 
>
<path vector-effect="non-scaling-stroke" fill-rule="evenodd" d="M747.721,268.302 C747.721,269.933 746.399,271.255 744.768,271.255 C743.137,271.255 741.815,269.933 741.815,268.302 C741.815,266.672 743.137,265.35 744.768,265.35 C746.399,265.35 747.721,266.672 747.721,268.302 "/>
</g>

<g fill="#ffffff" fill-opacity="1" stroke="#bbbbbb" stroke-opacity="1" stroke-width="2.3622" stroke-linecap="square" stroke-linejoin="bevel" transform="matrix(0.999067,0,0,0.999067,0,0)"
font-family=".SF NS Text" font-size="54.1667" font-weight="400" font-style="normal" 
>
<path vector-effect="none" fill-rule="evenodd" d="M814.03,182.17 C814.03,186.084 810.857,189.257 806.943,189.257 C803.03,189.257 799.857,186.084 799.857,182.17 C799.857,178.257 803.03,175.084 806.943,175.084 C810.857,175.084 814.03,178.257 814.03,182.17 "/>
</g>

<g fill="#bbbbbb" fill-opacity="1" stroke="none" transform="matrix(0.999067,0,0,0.999067,0,0)"
font-family=".SF NS Text" font-size="54.1667" font-weight="400" font-style="normal" 
>
<path vector-effect="non-scaling-stroke" fill-rule="evenodd" d="M809.896,182.17 C809.896,183.801 808.574,185.123 806.943,185.123 C805.313,185.123 803.991,183.801 803.991,182.17 C803.991,180.54 805.313,179.218 806.943,179.218 C808.574,179.218 809.896,180.54 809.896,182.17 "/>
</g>

<g fill="none" stroke="#2277cc" stroke-opacity="1" stroke-width="3.54331" stroke-linecap="round" stroke-linejoin="round" transform="matrix(0.999067,0,0,0.999067,0,0)"
font-family=".SF NS Text" font-size="54.1667" font-weight="400" font-style="normal" 
>
<path vector-effect="none" fill-rule="evenodd" d="M-87.1114,364.309 L28.1573,344.164 L164.281,322.43 L236.451,310.784 L369.894,301.126 L390.023,301.21 L405.817,300.723 L498.432,303.1 L588.944,307.824 L672.607,321.082 L748.333,335.812 L827.064,359.548 L883.204,378.016 L921.61,394.751"/>
<path vector-effect="none" fill-rule="evenodd" d="M806.943,182.17 L912.017,38.048"/>
<path vector-effect="none" fill-rule="evenodd" d="M492.835,-63.5908 L519.507,-42.8481 L629.142,37.5876 L713.286,107.211 L797.08,174.194 L806.943,182.17"/>
<path vector-effect="none" fill-rule="evenodd" d="M479.688,539.635 L519.7,500.764 L571.101,449.403 L647.414,367.663 L744.768,268.302 L806.943,182.17"/>
</g>

<g fill="#ffffff" fill-opacity="1" stroke="#000000" stroke-opacity="1" stroke-width="2.3622" stroke-linecap="square" stroke-linejoin="bevel" transform="matrix(0.999067,0,0,0.999067,0,0)"
font-family=".SF NS Text" font-size="54.1667" font-weight="400" font-style="normal" 
>
<path vector-effect="none" fill-rule="evenodd" d="M814.03,182.17 C814.03,186.084 810.857,189.257 806.943,189.257 C803.03,189.257 799.857,186.084 799.857,182.17 C799.857,178.257 803.03,175.084 806.943,175.084 C810.857,175.084 814.03,178.257 814.03,182.17 "/>
</g>

<g fill="#000000" fill-opacity="1" stroke="none" transform="matrix(0.999067,0,0,0.999067,0,0)"
font-family=".SF NS Text" font-size="54.1667" font-weight="400" font-style="normal" 
>
<path vector-effect="non-scaling-stroke" fill-rule="evenodd" d="M809.896,182.17 C809.896,183.801 808.574,185.123 806.943,185.123 C805.313,185.123 803.991,183.801 803.991,182.17 C803.991,180.54 805.313,179.218 806.943,179.218 C808.574,179.218 809.896,180.54 809.896,182.17 "/>
</g>

<g fill="#ffffff" fill-opacity="1" stroke="#000000" stroke-opacity="1" stroke-width="2.3622" stroke-linecap="square" stroke-linejoin="bevel" transform="matrix(0.999067,0,0,0.999067,0,0)"
font-family=".SF NS Text" font-size="54.1667" font-weight="400" font-style="normal" 
>
<path vector-effect="none" fill-rule="evenodd" d="M804.167,174.194 C804.167,178.107 800.994,181.28 797.08,181.28 C793.166,181.28 789.994,178.107 789.994,174.194 C789.994,170.28 793.166,167.107 797.08,167.107 C800.994,167.107 804.167,170.28 804.167,174.194 "/>
</g>

<g fill="#000000" fill-opacity="1" stroke="none" transform="matrix(0.999067,0,0,0.999067,0,0)"
font-family=".SF NS Text" font-size="54.1667" font-weight="400" font-style="normal" 
>
<path vector-effect="non-scaling-stroke" fill-rule="evenodd" d="M800.033,174.194 C800.033,175.824 798.711,177.146 797.08,177.146 C795.449,177.146 794.127,175.824 794.127,174.194 C794.127,172.563 795.449,171.241 797.08,171.241 C798.711,171.241 800.033,172.563 800.033,174.194 "/>
</g>

<g fill="#ffffff" fill-opacity="1" stroke="#000000" stroke-opacity="1" stroke-width="2.3622" stroke-linecap="square" stroke-linejoin="bevel" transform="matrix(0.999067,0,0,0.999067,0,0)"
font-family=".SF NS Text" font-size="54.1667" font-weight="400" font-style="normal" 
>
<path vector-effect="none" fill-rule="evenodd" d="M751.855,268.302 C751.855,272.216 748.682,275.389 744.768,275.389 C740.854,275.389 737.682,272.216 737.682,268.302 C737.682,264.388 740.854,261.216 744.768,261.216 C748.682,261.216 751.855,264.388 751.855,268.302 "/>
</g>

<g fill="#000000" fill-opacity="1" stroke="none" transform="matrix(0.999067,0,0,0.999067,0,0)"
font-family=".SF NS Text" font-size="54.1667" font-weight="400" font-style="normal" 
>
<path vector-effect="non-scaling-stroke" fill-rule="evenodd" d="M747.721,268.302 C747.721,269.933 746.399,271.255 744.768,271.255 C743.137,271.255 741.815,269.933 741.815,268.302 C741.815,266.672 743.137,265.35 744.768,265.35 C746.399,265.35 747.721,266.672 747.721,268.302 "/>
</g>

<g fill="#ffffff" fill-opacity="1" stroke="#000000" stroke-opacity="1" stroke-width="2.3622" stroke-linecap="square" stroke-linejoin="bevel" transform="matrix(0.999067,0,0,0.999067,0,0)"
font-family=".SF NS Text" font-size="54.1667" font-weight="400" font-style="normal" 
>
<path vector-effect="none" fill-rule="evenodd" d="M720.373,107.211 C720.373,111.125 717.2,114.298 713.286,114.298 C709.372,114.298 706.2,111.125 706.2,107.211 C706.2,103.297 709.372,100.124 713.286,100.124 C717.2,100.124 720.373,103.297 720.373,107.211 "/>
</g>

<g fill="#000000" fill-opacity="1" stroke="none" transform="matrix(0.999067,0,0,0.999067,0,0)"
font-family=".SF NS Text" font-size="54.1667" font-weight="400" font-style="normal" 
>
<path vector-effect="non-scaling-stroke" fill-rule="evenodd" d="M716.239,107.211 C716.239,108.842 714.917,110.164 713.286,110.164 C711.656,110.164 710.334,108.842 710.334,107.211 C710.334,105.58 711.656,104.258 713.286,104.258 C714.917,104.258 716.239,105.58 716.239,107.211 "/>
</g>

<g fill="#ffffff" fill-opacity="1" stroke="#000000" stroke-opacity="1" stroke-width="2.3622" stroke-linecap="square" stroke-linejoin="bevel" transform="matrix(0.999067,0,0,0.999067,0,0)"
font-family=".SF NS Text" font-size="54.1667" font-weight="400" font-style="normal" 
>
<path vector-effect="none" fill-rule="evenodd" d="M654.501,367.663 C654.501,371.577 651.328,374.75 647.414,374.75 C643.501,374.75 640.328,371.577 640.328,367.663 C640.328,363.749 643.501,360.577 647.414,360.577 C651.328,360.577 654.501,363.749 654.501,367.663 "/>
</g>

<g fill="#000000" fill-opacity="1" stroke="none" transform="matrix(0.999067,0,0,0.999067,0,0)"
font-family=".SF NS Text" font-size="54.1667" font-weight="400" font-style="normal" 
>
<path vector-effect="non-scaling-stroke" fill-rule="evenodd" d="M650.367,367.663 C650.367,369.294 649.045,370.616 647.414,370.616 C645.784,370.616 644.462,369.294 644.462,367.663 C644.462,366.032 645.784,364.71 647.414,364.71 C649.045,364.71 650.367,366.032 650.367,367.663 "/>
</g>

<g fill="#ffffff" fill-opacity="1" stroke="#000000" stroke-opacity="1" stroke-width="2.3622" stroke-linecap="square" stroke-linejoin="bevel" transform="matrix(0.999067,0,0,0.999067,0,0)"
font-family=".SF NS Text" font-size="54.1667" font-weight="400" font-style="normal" 
>
<path vector-effect="none" fill-rule="evenodd" d="M636.229,37.5876 C636.229,41.5014 633.056,44.6742 629.142,44.6742 C625.228,44.6742 622.055,41.5014 622.055,37.5876 C622.055,33.6737 625.228,30.501 629.142,30.501 C633.056,30.501 636.229,33.6737 636.229,37.5876 "/>
</g>

<g fill="#000000" fill-opacity="1" stroke="none" transform="matrix(0.999067,0,0,0.999067,0,0)"
font-family=".SF NS Text" font-size="54.1667" font-weight="400" font-style="normal" 
>
<path vector-effect="non-scaling-stroke" fill-rule="evenodd" d="M632.095,37.5876 C632.095,39.2183 630.773,40.5403 629.142,40.5403 C627.511,40.5403 626.189,39.2183 626.189,37.5876 C626.189,35.9568 627.511,34.6348 629.142,34.6348 C630.773,34.6348 632.095,35.9568 632.095,37.5876 "/>
</g>

<g fill="#ffffff" fill-opacity="1" stroke="#000000" stroke-opacity="1" stroke-width="2.3622" stroke-linecap="square" stroke-linejoin="bevel" transform="matrix(0.999067,0,0,0.999067,0,0)"
font-family=".SF NS Text" font-size="54.1667" font-weight="400" font-style="normal" 
>
<path vector-effect="none" fill-rule="evenodd" d="M578.188,449.403 C578.188,453.316 575.015,456.489 571.101,456.489 C567.187,456.489 564.014,453.316 564.014,449.403 C564.014,445.489 567.187,442.316 571.101,442.316 C575.015,442.316 578.188,445.489 578.188,449.403 "/>
</g>

<g fill="#000000" fill-opacity="1" stroke="none" transform="matrix(0.999067,0,0,0.999067,0,0)"
font-family=".SF NS Text" font-size="54.1667" font-weight="400" font-style="normal" 
>
<path vector-effect="non-scaling-stroke" fill-rule="evenodd" d="M574.054,449.403 C574.054,451.033 572.732,452.355 571.101,452.355 C569.47,452.355 568.148,451.033 568.148,449.403 C568.148,447.772 569.47,446.45 571.101,446.45 C572.732,446.45 574.054,447.772 574.054,449.403 "/>
</g>

<g fill="#ffffff" fill-opacity="1" stroke="#000000" stroke-opacity="1" stroke-width="2.3622" stroke-linecap="square" stroke-linejoin="bevel" transform="matrix(0.999067,0,0,0.999067,0,0)"
font-family=".SF NS Text" font-size="54.1667" font-weight="400" font-style="normal" 
>
<path vector-effect="none" fill-rule="evenodd" d="M33.4723,344.164 C33.4723,347.099 31.0927,349.479 28.1573,349.479 C25.222,349.479 22.8424,347.099 22.8424,344.164 C22.8424,341.229 25.222,338.849 28.1573,338.849 C31.0927,338.849 33.4723,341.229 33.4723,344.164 "/>
<path vector-effect="none" fill-rule="evenodd" d="M169.596,322.43 C169.596,325.365 167.216,327.745 164.281,327.745 C161.345,327.745 158.966,325.365 158.966,322.43 C158.966,319.494 161.345,317.115 164.281,317.115 C167.216,317.115 169.596,319.494 169.596,322.43 "/>
<path vector-effect="none" fill-rule="evenodd" d="M241.766,310.784 C241.766,313.72 239.386,316.099 236.451,316.099 C233.516,316.099 231.136,313.72 231.136,310.784 C231.136,307.849 233.516,305.469 236.451,305.469 C239.386,305.469 241.766,307.849 241.766,310.784 "/>
<path vector-effect="none" fill-rule="evenodd" d="M375.209,301.126 C375.209,304.062 372.829,306.441 369.894,306.441 C366.959,306.441 364.579,304.062 364.579,301.126 C364.579,298.191 366.959,295.811 369.894,295.811 C372.829,295.811 375.209,298.191 375.209,301.126 "/>
<path vector-effect="none" fill-rule="evenodd" d="M395.338,301.21 C395.338,304.145 392.959,306.525 390.023,306.525 C387.088,306.525 384.709,304.145 384.709,301.21 C384.709,298.274 387.088,295.895 390.023,295.895 C392.959,295.895 395.338,298.274 395.338,301.21 "/>
<path vector-effect="none" fill-rule="evenodd" d="M411.132,300.723 C411.132,303.659 408.752,306.038 405.817,306.038 C402.882,306.038 400.502,303.659 400.502,300.723 C400.502,297.788 402.882,295.408 405.817,295.408 C408.752,295.408 411.132,297.788 411.132,300.723 "/>
<path vector-effect="none" fill-rule="evenodd" d="M503.747,303.1 C503.747,306.035 501.367,308.414 498.432,308.414 C495.496,308.414 493.117,306.035 493.117,303.1 C493.117,300.164 495.496,297.785 498.432,297.785 C501.367,297.785 503.747,300.164 503.747,303.1 "/>
<path vector-effect="none" fill-rule="evenodd" d="M594.259,307.824 C594.259,310.76 591.88,313.139 588.944,313.139 C586.009,313.139 583.629,310.76 583.629,307.824 C583.629,304.889 586.009,302.509 588.944,302.509 C591.88,302.509 594.259,304.889 594.259,307.824 "/>
<path vector-effect="none" fill-rule="evenodd" d="M677.922,321.082 C677.922,324.017 675.542,326.397 672.607,326.397 C669.672,326.397 667.292,324.017 667.292,321.082 C667.292,318.146 669.672,315.767 672.607,315.767 C675.542,315.767 677.922,318.146 677.922,321.082 "/>
<path vector-effect="none" fill-rule="evenodd" d="M753.648,335.812 C753.648,338.748 751.269,341.127 748.333,341.127 C745.398,341.127 743.018,338.748 743.018,335.812 C743.018,332.877 745.398,330.497 748.333,330.497 C751.269,330.497 753.648,332.877 753.648,335.812 "/>
<path vector-effect="none" fill-rule="evenodd" d="M832.379,359.548 C832.379,362.483 830,364.863 827.064,364.863 C824.129,364.863 821.749,362.483 821.749,359.548 C821.749,356.612 824.129,354.233 827.064,354.233 C830,354.233 832.379,356.612 832.379,359.548 "/>
</g>

<g fill="#ffffff" fill-opacity="1" stroke="#000000" stroke-opacity="1" stroke-width="2.3622" stroke-linecap="square" stroke-linejoin="bevel" transform="matrix(0.999067,0,0,0.999067,0,0)"
font-family=".SF NS Text" font-size="54.1667" font-weight="400" font-style="normal" 
>
<path vector-effect="none" fill-rule="evenodd" d="M814.03,182.17 C814.03,186.084 810.857,189.257 806.943,189.257 C803.03,189.257 799.857,186.084 799.857,182.17 C799.857,178.257 803.03,175.084 806.943,175.084 C810.857,175.084 814.03,178.257 814.03,182.17 "/>
</g>

<g fill="#000000" fill-opacity="1" stroke="none" transform="matrix(0.999067,0,0,0.999067,0,0)"
font-family=".SF NS Text" font-size="54.1667" font-weight="400" font-style="normal" 
>
<path vector-effect="non-scaling-stroke" fill-rule="evenodd" d="M809.896,182.17 C809.896,183.801 808.574,185.123 806.943,185.123 C805.313,185.123 803.991,183.801 803.991,182.17 C803.991,180.54 805.313,179.218 806.943,179.218 C808.574,179.218 809.896,180.54 809.896,182.17 "/>
</g>

<g fill="#ffffff" fill-opacity="1" stroke="#000000" stroke-opacity="1" stroke-width="2.3622" stroke-linecap="square" stroke-linejoin="bevel" transform="matrix(0.999067,0,0,0.999067,0,0)"
font-family=".SF NS Text" font-size="54.1667" font-weight="400" font-style="normal" 
>
<path vector-effect="none" fill-rule="evenodd" d="M636.229,37.5876 C636.229,41.5014 633.056,44.6742 629.142,44.6742 C625.228,44.6742 622.055,41.5014 622.055,37.5876 C622.055,33.6737 625.228,30.501 629.142,30.501 C633.056,30.501 636.229,33.6737 636.229,37.5876 "/>
</g>

<g fill="#000000" fill-opacity="1" stroke="none" transform="matrix(0.999067,0,0,0.999067,0,0)"
font-family=".SF NS Text" font-size="54.1667" font-weight="400" font-style="normal" 
>
<path vector-effect="non-scaling-stroke" fill-rule="evenodd" d="M632.095,37.5876 C632.095,39.2183 630.773,40.5403 629.142,40.5403 C627.511,40.5403 626.189,39.2183 626.189,37.5876 C626.189,35.9568 627.511,34.6348 629.142,34.6348 C630.773,34.6348 632.095,35.9568 632.095,37.5876 "/>
</g>

<g fill="#ffffff" fill-opacity="1" stroke="#000000" stroke-opacity="1" stroke-width="2.3622" stroke-linecap="square" stroke-linejoin="bevel" transform="matrix(0.999067,0,0,0.999067,0,0)"
font-family=".SF NS Text" font-size="54.1667" font-weight="400" font-style="normal" 
>
<path vector-effect="none" fill-rule="evenodd" d="M720.373,107.211 C720.373,111.125 717.2,114.298 713.286,114.298 C709.372,114.298 706.2,111.125 706.2,107.211 C706.2,103.297 709.372,100.124 713.286,100.124 C717.2,100.124 720.373,103.297 720.373,107.211 "/>
</g>

<g fill="#000000" fill-opacity="1" stroke="none" transform="matrix(0.999067,0,0,0.999067,0,0)"
font-family=".SF NS Text" font-size="54.1667" font-weight="400" font-style="normal" 
>
<path vector-effect="non-scaling-stroke" fill-rule="evenodd" d="M716.239,107.211 C716.239,108.842 714.917,110.164 713.286,110.164 C711.656,110.164 710.334,108.842 710.334,107.211 C710.334,105.58 711.656,104.258 713.286,104.258 C714.917,104.258 716.239,105.58 716.239,107.211 "/>
</g>

<g fill="#ffffff" fill-opacity="1" stroke="#000000" stroke-opacity="1" stroke-width="2.3622" stroke-linecap="square" stroke-linejoin="bevel" transform="matrix(0.999067,0,0,0.999067,0,0)"
font-family=".SF NS Text" font-size="54.1667" font-weight="400" font-style="normal" 
>
<path vector-effect="none" fill-rule="evenodd" d="M804.167,174.194 C804.167,178.107 800.994,181.28 797.08,181.28 C793.166,181.28 789.994,178.107 789.994,174.194 C789.994,170.28 793.166,167.107 797.08,167.107 C800.994,167.107 804.167,170.28 804.167,174.194 "/>
</g>

<g fill="#000000" fill-opacity="1" stroke="none" transform="matrix(0.999067,0,0,0.999067,0,0)"
font-family=".SF NS Text" font-size="54.1667" font-weight="400" font-style="normal" 
>
<path vector-effect="non-scaling-stroke" fill-rule="evenodd" d="M800.033,174.194 C800.033,175.824 798.711,177.146 797.08,177.146 C795.449,177.146 794.127,175.824 794.127,174.194 C794.127,172.563 795.449,171.241 797.08,171.241 C798.711,171.241 800.033,172.563 800.033,174.194 "/>
</g>

<g fill="#ffffff" fill-opacity="1" stroke="#000000" stroke-opacity="1" stroke-width="2.3622" stroke-linecap="square" stroke-linejoin="bevel" transform="matrix(0.999067,0,0,0.999067,0,0)"
font-family=".SF NS Text" font-size="54.1667" font-weight="400" font-style="normal" 
>
<path vector-effect="none" fill-rule="evenodd" d="M814.03,182.17 C814.03,186.084 810.857,189.257 806.943,189.257 C803.03,189.257 799.857,186.084 799.857,182.17 C799.857,178.257 803.03,175.084 806.943,175.084 C810.857,175.084 814.03,178.257 814.03,182.17 "/>
</g>

<g fill="#000000" fill-opacity="1" stroke="none" transform="matrix(0.999067,0,0,0.999067,0,0)"
font-family=".SF NS Text" font-size="54.1667" font-weight="400" font-style="normal" 
>
<path vector-effect="non-scaling-stroke" fill-rule="evenodd" d="M809.896,182.17 C809.896,183.801 808.574,185.123 806.943,185.123 C805.313,185.123 803.991,183.801 803.991,182.17 C803.991,180.54 805.313,179.218 806.943,179.218 C808.574,179.218 809.896,180.54 809.896,182.17 "/>
</g>

<g fill="#ffffff" fill-opacity="1" stroke="#000000" stroke-opacity="1" stroke-width="2.3622" stroke-linecap="square" stroke-linejoin="bevel" transform="matrix(0.999067,0,0,0.999067,0,0)"
font-family=".SF NS Text" font-size="54.1667" font-weight="400" font-style="normal" 
>
<path vector-effect="none" fill-rule="evenodd" d="M578.188,449.403 C578.188,453.316 575.015,456.489 571.101,456.489 C567.187,456.489 564.014,453.316 564.014,449.403 C564.014,445.489 567.187,442.316 571.101,442.316 C575.015,442.316 578.188,445.489 578.188,449.403 "/>
</g>

<g fill="#000000" fill-opacity="1" stroke="none" transform="matrix(0.999067,0,0,0.999067,0,0)"
font-family=".SF NS Text" font-size="54.1667" font-weight="400" font-style="normal" 
>
<path vector-effect="non-scaling-stroke" fill-rule="evenodd" d="M574.054,449.403 C574.054,451.033 572.732,452.355 571.101,452.355 C569.47,452.355 568.148,451.033 568.148,449.403 C568.148,447.772 569.47,446.45 571.101,446.45 C572.732,446.45 574.054,447.772 574.054,449.403 "/>
</g>

<g fill="#ffffff" fill-opacity="1" stroke="#000000" stroke-opacity="1" stroke-width="2.3622" stroke-linecap="square" stroke-linejoin="bevel" transform="matrix(0.999067,0,0,0.999067,0,0)"
font-family=".SF NS Text" font-size="54.1667" font-weight="400" font-style="normal" 
>
<path vector-effect="none" fill-rule="evenodd" d="M654.501,367.663 C654.501,371.577 651.328,374.75 647.414,374.75 C643.501,374.75 640.328,371.577 640.328,367.663 C640.328,363.749 643.501,360.577 647.414,360.577 C651.328,360.577 654.501,363.749 654.501,367.663 "/>
</g>

<g fill="#000000" fill-opacity="1" stroke="none" transform="matrix(0.999067,0,0,0.999067,0,0)"
font-family=".SF NS Text" font-size="54.1667" font-weight="400" font-style="normal" 
>
<path vector-effect="non-scaling-stroke" fill-rule="evenodd" d="M650.367,367.663 C650.367,369.294 649.045,370.616 647.414,370.616 C645.784,370.616 644.462,369.294 644.462,367.663 C644.462,366.032 645.784,364.71 647.414,364.71 C649.045,364.71 650.367,366.032 650.367,367.663 "/>
</g>

<g fill="#ffffff" fill-opacity="1" stroke="#000000" stroke-opacity="1" stroke-width="2.3622" stroke-linecap="square" stroke-linejoin="bevel" transform="matrix(0.999067,0,0,0.999067,0,0)"
font-family=".SF NS Text" font-size="54.1667" font-weight="400" font-style="normal" 
>
<path vector-effect="none" fill-rule="evenodd" d="M751.855,268.302 C751.855,272.216 748.682,275.389 744.768,275.389 C740.854,275.389 737.682,272.216 737.682,268.302 C737.682,264.388 740.854,261.216 744.768,261.216 C748.682,261.216 751.855,264.388 751.855,268.302 "/>
</g>

<g fill="#000000" fill-opacity="1" stroke="none" transform="matrix(0.999067,0,0,0.999067,0,0)"
font-family=".SF NS Text" font-size="54.1667" font-weight="400" font-style="normal" 
>
<path vector-effect="non-scaling-stroke" fill-rule="evenodd" d="M747.721,268.302 C747.721,269.933 746.399,271.255 744.768,271.255 C743.137,271.255 741.815,269.933 741.815,268.302 C741.815,266.672 743.137,265.35 744.768,265.35 C746.399,265.35 747.721,266.672 747.721,268.302 "/>
</g>

<g fill="#ffffff" fill-opacity="1" stroke="#000000" stroke-opacity="1" stroke-width="2.3622" stroke-linecap="square" stroke-linejoin="bevel" transform="matrix(0.999067,0,0,0.999067,0,0)"
font-family=".SF NS Text" font-size="54.1667" font-weight="400" font-style="normal" 
>
<path vector-effect="none" fill-rule="evenodd" d="M814.03,182.17 C814.03,186.084 810.857,189.257 806.943,189.257 C803.03,189.257 799.857,186.084 799.857,182.17 C799.857,178.257 803.03,175.084 806.943,175.084 C810.857,175.084 814.03,178.257 814.03,182.17 "/>
</g>

<g fill="#000000" fill-opacity="1" stroke="none" transform="matrix(0.999067,0,0,0.999067,0,0)"
font-family=".SF NS Text" font-size="54.1667" font-weight="400" font-style="normal" 
>
<path vector-effect="non-scaling-stroke" fill-rule="evenodd" d="M809.896,182.17 C809.896,183.801 808.574,185.123 806.943,185.123 C805.313,185.123 803.991,183.801 803.991,182.17 C803.991,180.54 805.313,179.218 806.943,179.218 C808.574,179.218 809.896,180.54 809.896,182.17 "/>
</g>

</g>
</svg>
