<?xml version="1.0" encoding="UTF-8" standalone="no"?>
<svg width="69.9347mm" height="39.9627mm"
 viewBox="0 0 826 472"
 xmlns="http://www.w3.org/2000/svg" xmlns:xlink="http://www.w3.org/1999/xlink"  version="1.2" baseProfile="tiny">
<desc>Generated with Qt</desc>
<defs>
</defs>
<g fill="none" stroke="black" stroke-width="1" fill-rule="evenodd" stroke-linecap="square" stroke-linejoin="bevel" >

<g fill="#ffffff" fill-opacity="1" stroke="none" transform="matrix(0.999067,0,0,0.999067,0,0)"
font-family=".SF NS Text" font-size="54.1667" font-weight="400" font-style="normal" 
>
<path vector-effect="none" fill-rule="evenodd" d="M-1,-1 L827.772,-1 L827.772,473.441 L-1,473.441 L-1,-1"/>
</g>

<g fill="#ffffff" fill-opacity="1" stroke="none" transform="matrix(11.8,0,0,11.8,0,0)"
font-family=".SF NS Text" font-size="54.1667" font-weight="400" font-style="normal" 
>
<path vector-effect="non-scaling-stroke" fill-rule="evenodd" d="M0,0 L70,0 L70,40 L0,40 L0,0"/>
</g>

<g fill="#000000" fill-opacity="0" stroke="none" transform="matrix(0.999067,0,0,0.999067,0,0)"
font-family=".SF NS Text" font-size="54.1667" font-weight="400" font-style="normal" 
>
<path vector-effect="non-scaling-stroke" fill-rule="evenodd" d="M0,0 L827,0 L827,472 L0,472 L0,0"/>
</g>

<g fill="none" stroke="#bbbbbb" stroke-opacity="1" stroke-width="3.54331" stroke-linecap="round" stroke-linejoin="round" transform="matrix(0.999067,0,0,0.999067,0,0)"
font-family=".SF NS Text" font-size="54.1667" font-weight="400" font-style="normal" 
>
<path vector-effect="none" fill-rule="evenodd" d="M499.615,135.434 L439.43,145.124"/>
<path vector-effect="none" fill-rule="evenodd" d="M439.43,145.124 L415.922,148.878"/>
<path vector-effect="none" fill-rule="evenodd" d="M415.922,148.878 L385.716,155.117"/>
<path vector-effect="none" fill-rule="evenodd" d="M385.716,155.117 L360.058,161.311"/>
<path vector-effect="none" fill-rule="evenodd" d="M360.058,161.311 L329.363,177.71"/>
<path vector-effect="none" fill-rule="evenodd" d="M329.363,177.71 L309.759,196.12"/>
<path vector-effect="none" fill-rule="evenodd" d="M309.759,196.12 L290.883,223.178"/>
<path vector-effect="none" fill-rule="evenodd" d="M290.883,223.178 L209.132,340.081"/>
<path vector-effect="none" fill-rule="evenodd" d="M209.132,340.081 L189.647,362.801"/>
<path vector-effect="none" fill-rule="evenodd" d="M189.647,362.801 L153.781,393.043"/>
<path vector-effect="none" fill-rule="evenodd" d="M153.781,393.043 L115.593,420.334"/>
<path vector-effect="none" fill-rule="evenodd" d="M115.593,420.334 L34.383,479.806"/>
<path vector-effect="none" fill-rule="evenodd" d="M34.383,479.806 L-77.8747,550.773"/>
<path vector-effect="none" fill-rule="evenodd" d="M932.813,-47.2752 L737.503,84.5639"/>
<path vector-effect="none" fill-rule="evenodd" d="M737.503,84.5639 L611.561,124.445"/>
<path vector-effect="none" fill-rule="evenodd" d="M611.561,124.445 L561.293,133.358"/>
<path vector-effect="none" fill-rule="evenodd" d="M561.293,133.358 L499.615,135.434"/>
<path vector-effect="none" fill-rule="evenodd" d="M381.926,193.67 L450.239,204.595"/>
<path vector-effect="none" fill-rule="evenodd" d="M450.239,204.595 L523.501,205.488"/>
<path vector-effect="none" fill-rule="evenodd" d="M523.501,205.488 L580.206,194.799"/>
<path vector-effect="none" fill-rule="evenodd" d="M580.206,194.799 L642.493,168.255"/>
<path vector-effect="none" fill-rule="evenodd" d="M642.493,168.255 L698.292,131.478"/>
<path vector-effect="none" fill-rule="evenodd" d="M698.292,131.478 L737.503,84.5639"/>
<path vector-effect="none" fill-rule="evenodd" d="M-47.6424,584.875 L55.9919,520.563"/>
<path vector-effect="none" fill-rule="evenodd" d="M55.9919,520.563 L142.449,456.786"/>
<path vector-effect="none" fill-rule="evenodd" d="M142.449,456.786 L226.936,385.844"/>
<path vector-effect="none" fill-rule="evenodd" d="M226.936,385.844 L301.212,299.954"/>
<path vector-effect="none" fill-rule="evenodd" d="M301.212,299.954 L325.495,271.837"/>
<path vector-effect="none" fill-rule="evenodd" d="M325.495,271.837 L340.215,254.831"/>
<path vector-effect="none" fill-rule="evenodd" d="M340.215,254.831 L353.398,239.606"/>
<path vector-effect="none" fill-rule="evenodd" d="M353.398,239.606 L381.926,193.67"/>
</g>

<g fill="none" stroke="#ffffff" stroke-opacity="1" stroke-dasharray="0.011811,9.44882" stroke-dashoffset="0" stroke-width="2.95276" stroke-linecap="round" stroke-linejoin="round" transform="matrix(0.999067,0,0,0.999067,0,0)"
font-family=".SF NS Text" font-size="54.1667" font-weight="400" font-style="normal" 
>
<path vector-effect="none" fill-rule="evenodd" d="M329.363,177.71 L381.926,193.67"/>
</g>

<g fill="none" stroke="#ff7f00" stroke-opacity="1" stroke-width="5.90551" stroke-linecap="square" stroke-linejoin="bevel" transform="matrix(0.999067,0,0,0.999067,0,0)"
font-family=".SF NS Text" font-size="54.1667" font-weight="400" font-style="normal" 
>
<path vector-effect="none" fill-rule="evenodd" d="M329.363,177.71 L381.926,193.67"/>
</g>

<g fill="none" stroke="#ffffff" stroke-opacity="1" stroke-dasharray="0.011811,9.44882" stroke-dashoffset="0" stroke-width="2.95276" stroke-linecap="round" stroke-linejoin="round" transform="matrix(0.999067,0,0,0.999067,0,0)"
font-family=".SF NS Text" font-size="54.1667" font-weight="400" font-style="normal" 
>
<path vector-effect="none" fill-rule="evenodd" d="M309.759,196.12 L353.398,239.606"/>
</g>

<g fill="none" stroke="#ff7f00" stroke-opacity="1" stroke-width="5.90551" stroke-linecap="square" stroke-linejoin="bevel" transform="matrix(0.999067,0,0,0.999067,0,0)"
font-family=".SF NS Text" font-size="54.1667" font-weight="400" font-style="normal" 
>
<path vector-effect="none" fill-rule="evenodd" d="M309.759,196.12 L353.398,239.606"/>
</g>

<g fill="none" stroke="#ffffff" stroke-opacity="1" stroke-dasharray="0.011811,9.44882" stroke-dashoffset="0" stroke-width="2.95276" stroke-linecap="round" stroke-linejoin="round" transform="matrix(0.999067,0,0,0.999067,0,0)"
font-family=".SF NS Text" font-size="54.1667" font-weight="400" font-style="normal" 
>
<path vector-effect="none" fill-rule="evenodd" d="M360.058,161.311 L381.926,193.67"/>
</g>

<g fill="none" stroke="#ff7f00" stroke-opacity="1" stroke-width="5.90551" stroke-linecap="square" stroke-linejoin="bevel" transform="matrix(0.999067,0,0,0.999067,0,0)"
font-family=".SF NS Text" font-size="54.1667" font-weight="400" font-style="normal" 
>
<path vector-effect="none" fill-rule="evenodd" d="M360.058,161.311 L381.926,193.67"/>
</g>

<g fill="none" stroke="#ffffff" stroke-opacity="1" stroke-dasharray="0.011811,9.44882" stroke-dashoffset="0" stroke-width="2.95276" stroke-linecap="round" stroke-linejoin="round" transform="matrix(0.999067,0,0,0.999067,0,0)"
font-family=".SF NS Text" font-size="54.1667" font-weight="400" font-style="normal" 
>
<path vector-effect="none" fill-rule="evenodd" d="M301.212,299.954 L290.883,223.178"/>
</g>

<g fill="none" stroke="#ff7f00" stroke-opacity="1" stroke-width="5.90551" stroke-linecap="square" stroke-linejoin="bevel" transform="matrix(0.999067,0,0,0.999067,0,0)"
font-family=".SF NS Text" font-size="54.1667" font-weight="400" font-style="normal" 
>
<path vector-effect="none" fill-rule="evenodd" d="M301.212,299.954 L290.883,223.178"/>
</g>

<g fill="none" stroke="#ffffff" stroke-opacity="1" stroke-dasharray="0.011811,9.44882" stroke-dashoffset="0" stroke-width="2.95276" stroke-linecap="round" stroke-linejoin="round" transform="matrix(0.999067,0,0,0.999067,0,0)"
font-family=".SF NS Text" font-size="54.1667" font-weight="400" font-style="normal" 
>
<path vector-effect="none" fill-rule="evenodd" d="M325.495,271.837 L290.883,223.178"/>
</g>

<g fill="none" stroke="#ff7f00" stroke-opacity="1" stroke-width="5.90551" stroke-linecap="square" stroke-linejoin="bevel" transform="matrix(0.999067,0,0,0.999067,0,0)"
font-family=".SF NS Text" font-size="54.1667" font-weight="400" font-style="normal" 
>
<path vector-effect="none" fill-rule="evenodd" d="M325.495,271.837 L290.883,223.178"/>
</g>

<g fill="none" stroke="#ffffff" stroke-opacity="1" stroke-dasharray="0.011811,9.44882" stroke-dashoffset="0" stroke-width="2.95276" stroke-linecap="round" stroke-linejoin="round" transform="matrix(0.999067,0,0,0.999067,0,0)"
font-family=".SF NS Text" font-size="54.1667" font-weight="400" font-style="normal" 
>
<path vector-effect="none" fill-rule="evenodd" d="M290.883,223.178 L340.215,254.831"/>
</g>

<g fill="none" stroke="#ff7f00" stroke-opacity="1" stroke-width="5.90551" stroke-linecap="square" stroke-linejoin="bevel" transform="matrix(0.999067,0,0,0.999067,0,0)"
font-family=".SF NS Text" font-size="54.1667" font-weight="400" font-style="normal" 
>
<path vector-effect="none" fill-rule="evenodd" d="M290.883,223.178 L340.215,254.831"/>
</g>

<g fill="none" stroke="#ffffff" stroke-opacity="1" stroke-dasharray="0.011811,9.44882" stroke-dashoffset="0" stroke-width="2.95276" stroke-linecap="round" stroke-linejoin="round" transform="matrix(0.999067,0,0,0.999067,0,0)"
font-family=".SF NS Text" font-size="54.1667" font-weight="400" font-style="normal" 
>
<path vector-effect="none" fill-rule="evenodd" d="M385.716,155.117 L381.926,193.67"/>
</g>

<g fill="none" stroke="#ff7f00" stroke-opacity="1" stroke-width="5.90551" stroke-linecap="square" stroke-linejoin="bevel" transform="matrix(0.999067,0,0,0.999067,0,0)"
font-family=".SF NS Text" font-size="54.1667" font-weight="400" font-style="normal" 
>
<path vector-effect="none" fill-rule="evenodd" d="M385.716,155.117 L381.926,193.67"/>
</g>

<g fill="none" stroke="#ffffff" stroke-opacity="1" stroke-dasharray="0.011811,9.44882" stroke-dashoffset="0" stroke-width="2.95276" stroke-linecap="round" stroke-linejoin="round" transform="matrix(0.999067,0,0,0.999067,0,0)"
font-family=".SF NS Text" font-size="54.1667" font-weight="400" font-style="normal" 
>
<path vector-effect="none" fill-rule="evenodd" d="M34.383,479.806 L55.9919,520.563"/>
</g>

<g fill="none" stroke="#ff7f00" stroke-opacity="1" stroke-width="5.90551" stroke-linecap="square" stroke-linejoin="bevel" transform="matrix(0.999067,0,0,0.999067,0,0)"
font-family=".SF NS Text" font-size="54.1667" font-weight="400" font-style="normal" 
>
<path vector-effect="none" fill-rule="evenodd" d="M34.383,479.806 L55.9919,520.563"/>
</g>

<g fill="none" stroke="#ffffff" stroke-opacity="1" stroke-dasharray="0.011811,9.44882" stroke-dashoffset="0" stroke-width="2.95276" stroke-linecap="round" stroke-linejoin="round" transform="matrix(0.999067,0,0,0.999067,0,0)"
font-family=".SF NS Text" font-size="54.1667" font-weight="400" font-style="normal" 
>
<path vector-effect="none" fill-rule="evenodd" d="M415.922,148.878 L381.926,193.67"/>
</g>

<g fill="none" stroke="#ff7f00" stroke-opacity="1" stroke-width="5.90551" stroke-linecap="square" stroke-linejoin="bevel" transform="matrix(0.999067,0,0,0.999067,0,0)"
font-family=".SF NS Text" font-size="54.1667" font-weight="400" font-style="normal" 
>
<path vector-effect="none" fill-rule="evenodd" d="M415.922,148.878 L381.926,193.67"/>
</g>

<g fill="none" stroke="#ffffff" stroke-opacity="1" stroke-dasharray="0.011811,9.44882" stroke-dashoffset="0" stroke-width="2.95276" stroke-linecap="round" stroke-linejoin="round" transform="matrix(0.999067,0,0,0.999067,0,0)"
font-family=".SF NS Text" font-size="54.1667" font-weight="400" font-style="normal" 
>
<path vector-effect="none" fill-rule="evenodd" d="M115.593,420.334 L142.449,456.786"/>
</g>

<g fill="none" stroke="#ff7f00" stroke-opacity="1" stroke-width="5.90551" stroke-linecap="square" stroke-linejoin="bevel" transform="matrix(0.999067,0,0,0.999067,0,0)"
font-family=".SF NS Text" font-size="54.1667" font-weight="400" font-style="normal" 
>
<path vector-effect="none" fill-rule="evenodd" d="M115.593,420.334 L142.449,456.786"/>
</g>

<g fill="none" stroke="#ffffff" stroke-opacity="1" stroke-dasharray="0.011811,9.44882" stroke-dashoffset="0" stroke-width="2.95276" stroke-linecap="round" stroke-linejoin="round" transform="matrix(0.999067,0,0,0.999067,0,0)"
font-family=".SF NS Text" font-size="54.1667" font-weight="400" font-style="normal" 
>
<path vector-effect="none" fill-rule="evenodd" d="M209.132,340.081 L226.936,385.844"/>
</g>

<g fill="none" stroke="#ff7f00" stroke-opacity="1" stroke-width="5.90551" stroke-linecap="square" stroke-linejoin="bevel" transform="matrix(0.999067,0,0,0.999067,0,0)"
font-family=".SF NS Text" font-size="54.1667" font-weight="400" font-style="normal" 
>
<path vector-effect="none" fill-rule="evenodd" d="M209.132,340.081 L226.936,385.844"/>
</g>

<g fill="none" stroke="#ffffff" stroke-opacity="1" stroke-dasharray="0.011811,9.44882" stroke-dashoffset="0" stroke-width="2.95276" stroke-linecap="round" stroke-linejoin="round" transform="matrix(0.999067,0,0,0.999067,0,0)"
font-family=".SF NS Text" font-size="54.1667" font-weight="400" font-style="normal" 
>
<path vector-effect="none" fill-rule="evenodd" d="M153.781,393.043 L142.449,456.786"/>
</g>

<g fill="none" stroke="#ff7f00" stroke-opacity="1" stroke-width="5.90551" stroke-linecap="square" stroke-linejoin="bevel" transform="matrix(0.999067,0,0,0.999067,0,0)"
font-family=".SF NS Text" font-size="54.1667" font-weight="400" font-style="normal" 
>
<path vector-effect="none" fill-rule="evenodd" d="M153.781,393.043 L142.449,456.786"/>
</g>

<g fill="none" stroke="#ffffff" stroke-opacity="1" stroke-dasharray="0.011811,9.44882" stroke-dashoffset="0" stroke-width="2.95276" stroke-linecap="round" stroke-linejoin="round" transform="matrix(0.999067,0,0,0.999067,0,0)"
font-family=".SF NS Text" font-size="54.1667" font-weight="400" font-style="normal" 
>
<path vector-effect="none" fill-rule="evenodd" d="M189.647,362.801 L226.936,385.844"/>
</g>

<g fill="none" stroke="#ff7f00" stroke-opacity="1" stroke-width="5.90551" stroke-linecap="square" stroke-linejoin="bevel" transform="matrix(0.999067,0,0,0.999067,0,0)"
font-family=".SF NS Text" font-size="54.1667" font-weight="400" font-style="normal" 
>
<path vector-effect="none" fill-rule="evenodd" d="M189.647,362.801 L226.936,385.844"/>
</g>

<g fill="none" stroke="#ffffff" stroke-opacity="1" stroke-dasharray="0.011811,9.44882" stroke-dashoffset="0" stroke-width="2.95276" stroke-linecap="round" stroke-linejoin="round" transform="matrix(0.999067,0,0,0.999067,0,0)"
font-family=".SF NS Text" font-size="54.1667" font-weight="400" font-style="normal" 
>
<path vector-effect="none" fill-rule="evenodd" d="M439.43,145.124 L450.239,204.595"/>
</g>

<g fill="none" stroke="#ff7f00" stroke-opacity="1" stroke-width="5.90551" stroke-linecap="square" stroke-linejoin="bevel" transform="matrix(0.999067,0,0,0.999067,0,0)"
font-family=".SF NS Text" font-size="54.1667" font-weight="400" font-style="normal" 
>
<path vector-effect="none" fill-rule="evenodd" d="M439.43,145.124 L450.239,204.595"/>
</g>

<g fill="none" stroke="#ffffff" stroke-opacity="1" stroke-dasharray="0.011811,9.44882" stroke-dashoffset="0" stroke-width="2.95276" stroke-linecap="round" stroke-linejoin="round" transform="matrix(0.999067,0,0,0.999067,0,0)"
font-family=".SF NS Text" font-size="54.1667" font-weight="400" font-style="normal" 
>
<path vector-effect="none" fill-rule="evenodd" d="M499.615,135.434 L523.501,205.488"/>
</g>

<g fill="none" stroke="#ff7f00" stroke-opacity="1" stroke-width="5.90551" stroke-linecap="square" stroke-linejoin="bevel" transform="matrix(0.999067,0,0,0.999067,0,0)"
font-family=".SF NS Text" font-size="54.1667" font-weight="400" font-style="normal" 
>
<path vector-effect="none" fill-rule="evenodd" d="M499.615,135.434 L523.501,205.488"/>
</g>

<g fill="none" stroke="#ffffff" stroke-opacity="1" stroke-dasharray="0.011811,9.44882" stroke-dashoffset="0" stroke-width="2.95276" stroke-linecap="round" stroke-linejoin="round" transform="matrix(0.999067,0,0,0.999067,0,0)"
font-family=".SF NS Text" font-size="54.1667" font-weight="400" font-style="normal" 
>
<path vector-effect="none" fill-rule="evenodd" d="M561.293,133.358 L580.206,194.799"/>
</g>

<g fill="none" stroke="#ff7f00" stroke-opacity="1" stroke-width="5.90551" stroke-linecap="square" stroke-linejoin="bevel" transform="matrix(0.999067,0,0,0.999067,0,0)"
font-family=".SF NS Text" font-size="54.1667" font-weight="400" font-style="normal" 
>
<path vector-effect="none" fill-rule="evenodd" d="M561.293,133.358 L580.206,194.799"/>
</g>

<g fill="none" stroke="#ffffff" stroke-opacity="1" stroke-dasharray="0.011811,9.44882" stroke-dashoffset="0" stroke-width="2.95276" stroke-linecap="round" stroke-linejoin="round" transform="matrix(0.999067,0,0,0.999067,0,0)"
font-family=".SF NS Text" font-size="54.1667" font-weight="400" font-style="normal" 
>
<path vector-effect="none" fill-rule="evenodd" d="M611.561,124.445 L642.493,168.255"/>
</g>

<g fill="none" stroke="#ff7f00" stroke-opacity="1" stroke-width="5.90551" stroke-linecap="square" stroke-linejoin="bevel" transform="matrix(0.999067,0,0,0.999067,0,0)"
font-family=".SF NS Text" font-size="54.1667" font-weight="400" font-style="normal" 
>
<path vector-effect="none" fill-rule="evenodd" d="M611.561,124.445 L642.493,168.255"/>
</g>

<g fill="none" stroke="#ffffff" stroke-opacity="1" stroke-dasharray="0.011811,9.44882" stroke-dashoffset="0" stroke-width="2.95276" stroke-linecap="round" stroke-linejoin="round" transform="matrix(0.999067,0,0,0.999067,0,0)"
font-family=".SF NS Text" font-size="54.1667" font-weight="400" font-style="normal" 
>
<path vector-effect="none" fill-rule="evenodd" d="M737.503,84.5639 L698.292,131.478"/>
</g>

<g fill="none" stroke="#ff7f00" stroke-opacity="1" stroke-width="5.90551" stroke-linecap="square" stroke-linejoin="bevel" transform="matrix(0.999067,0,0,0.999067,0,0)"
font-family=".SF NS Text" font-size="54.1667" font-weight="400" font-style="normal" 
>
<path vector-effect="none" fill-rule="evenodd" d="M737.503,84.5639 L698.292,131.478"/>
</g>

<g fill="#ffffff" fill-opacity="1" stroke="#bbbbbb" stroke-opacity="1" stroke-width="2.3622" stroke-linecap="square" stroke-linejoin="bevel" transform="matrix(0.999067,0,0,0.999067,0,0)"
font-family=".SF NS Text" font-size="54.1667" font-weight="400" font-style="normal" 
>
<path vector-effect="none" fill-rule="evenodd" d="M705.379,131.478 C705.379,135.391 702.206,138.564 698.292,138.564 C694.378,138.564 691.205,135.391 691.205,131.478 C691.205,127.564 694.378,124.391 698.292,124.391 C702.206,124.391 705.379,127.564 705.379,131.478 "/>
</g>

<g fill="#bbbbbb" fill-opacity="1" stroke="none" transform="matrix(0.999067,0,0,0.999067,0,0)"
font-family=".SF NS Text" font-size="54.1667" font-weight="400" font-style="normal" 
>
<path vector-effect="non-scaling-stroke" fill-rule="evenodd" d="M701.245,131.478 C701.245,133.108 699.923,134.43 698.292,134.43 C696.661,134.43 695.339,133.108 695.339,131.478 C695.339,129.847 696.661,128.525 698.292,128.525 C699.923,128.525 701.245,129.847 701.245,131.478 "/>
</g>

<g fill="#ffffff" fill-opacity="1" stroke="#bbbbbb" stroke-opacity="1" stroke-width="2.3622" stroke-linecap="square" stroke-linejoin="bevel" transform="matrix(0.999067,0,0,0.999067,0,0)"
font-family=".SF NS Text" font-size="54.1667" font-weight="400" font-style="normal" 
>
<path vector-effect="none" fill-rule="evenodd" d="M744.59,84.5639 C744.59,88.4777 741.417,91.6505 737.503,91.6505 C733.589,91.6505 730.416,88.4777 730.416,84.5639 C730.416,80.65 733.589,77.4772 737.503,77.4772 C741.417,77.4772 744.59,80.65 744.59,84.5639 "/>
</g>

<g fill="#bbbbbb" fill-opacity="1" stroke="none" transform="matrix(0.999067,0,0,0.999067,0,0)"
font-family=".SF NS Text" font-size="54.1667" font-weight="400" font-style="normal" 
>
<path vector-effect="non-scaling-stroke" fill-rule="evenodd" d="M740.456,84.5639 C740.456,86.1946 739.134,87.5166 737.503,87.5166 C735.872,87.5166 734.55,86.1946 734.55,84.5639 C734.55,82.9331 735.872,81.6111 737.503,81.6111 C739.134,81.6111 740.456,82.9331 740.456,84.5639 "/>
</g>

<g fill="#ffffff" fill-opacity="1" stroke="#bbbbbb" stroke-opacity="1" stroke-width="2.3622" stroke-linecap="square" stroke-linejoin="bevel" transform="matrix(0.999067,0,0,0.999067,0,0)"
font-family=".SF NS Text" font-size="54.1667" font-weight="400" font-style="normal" 
>
<path vector-effect="none" fill-rule="evenodd" d="M649.58,168.255 C649.58,172.169 646.407,175.342 642.493,175.342 C638.579,175.342 635.406,172.169 635.406,168.255 C635.406,164.341 638.579,161.168 642.493,161.168 C646.407,161.168 649.58,164.341 649.58,168.255 "/>
</g>

<g fill="#bbbbbb" fill-opacity="1" stroke="none" transform="matrix(0.999067,0,0,0.999067,0,0)"
font-family=".SF NS Text" font-size="54.1667" font-weight="400" font-style="normal" 
>
<path vector-effect="non-scaling-stroke" fill-rule="evenodd" d="M645.446,168.255 C645.446,169.886 644.124,171.208 642.493,171.208 C640.862,171.208 639.54,169.886 639.54,168.255 C639.54,166.624 640.862,165.302 642.493,165.302 C644.124,165.302 645.446,166.624 645.446,168.255 "/>
</g>

<g fill="#ffffff" fill-opacity="1" stroke="#bbbbbb" stroke-opacity="1" stroke-width="2.3622" stroke-linecap="square" stroke-linejoin="bevel" transform="matrix(0.999067,0,0,0.999067,0,0)"
font-family=".SF NS Text" font-size="54.1667" font-weight="400" font-style="normal" 
>
<path vector-effect="none" fill-rule="evenodd" d="M693.738,100.105 C693.738,103.041 691.358,105.42 688.423,105.42 C685.488,105.42 683.108,103.041 683.108,100.105 C683.108,97.1701 685.488,94.7905 688.423,94.7905 C691.358,94.7905 693.738,97.1701 693.738,100.105 "/>
</g>

<g fill="#ffffff" fill-opacity="1" stroke="#bbbbbb" stroke-opacity="1" stroke-width="2.3622" stroke-linecap="square" stroke-linejoin="bevel" transform="matrix(0.999067,0,0,0.999067,0,0)"
font-family=".SF NS Text" font-size="54.1667" font-weight="400" font-style="normal" 
>
<path vector-effect="none" fill-rule="evenodd" d="M587.292,194.799 C587.292,198.713 584.12,201.886 580.206,201.886 C576.292,201.886 573.119,198.713 573.119,194.799 C573.119,190.885 576.292,187.712 580.206,187.712 C584.12,187.712 587.292,190.885 587.292,194.799 "/>
</g>

<g fill="#bbbbbb" fill-opacity="1" stroke="none" transform="matrix(0.999067,0,0,0.999067,0,0)"
font-family=".SF NS Text" font-size="54.1667" font-weight="400" font-style="normal" 
>
<path vector-effect="non-scaling-stroke" fill-rule="evenodd" d="M583.159,194.799 C583.159,196.43 581.837,197.752 580.206,197.752 C578.575,197.752 577.253,196.43 577.253,194.799 C577.253,193.168 578.575,191.846 580.206,191.846 C581.837,191.846 583.159,193.168 583.159,194.799 "/>
</g>

<g fill="#ffffff" fill-opacity="1" stroke="#bbbbbb" stroke-opacity="1" stroke-width="2.3622" stroke-linecap="square" stroke-linejoin="bevel" transform="matrix(0.999067,0,0,0.999067,0,0)"
font-family=".SF NS Text" font-size="54.1667" font-weight="400" font-style="normal" 
>
<path vector-effect="none" fill-rule="evenodd" d="M530.588,205.488 C530.588,209.402 527.415,212.575 523.501,212.575 C519.587,212.575 516.415,209.402 516.415,205.488 C516.415,201.575 519.587,198.402 523.501,198.402 C527.415,198.402 530.588,201.575 530.588,205.488 "/>
</g>

<g fill="#bbbbbb" fill-opacity="1" stroke="none" transform="matrix(0.999067,0,0,0.999067,0,0)"
font-family=".SF NS Text" font-size="54.1667" font-weight="400" font-style="normal" 
>
<path vector-effect="non-scaling-stroke" fill-rule="evenodd" d="M526.454,205.488 C526.454,207.119 525.132,208.441 523.501,208.441 C521.87,208.441 520.548,207.119 520.548,205.488 C520.548,203.858 521.87,202.536 523.501,202.536 C525.132,202.536 526.454,203.858 526.454,205.488 "/>
</g>

<g fill="#ffffff" fill-opacity="1" stroke="#bbbbbb" stroke-opacity="1" stroke-width="2.3622" stroke-linecap="square" stroke-linejoin="bevel" transform="matrix(0.999067,0,0,0.999067,0,0)"
font-family=".SF NS Text" font-size="54.1667" font-weight="400" font-style="normal" 
>
<path vector-effect="none" fill-rule="evenodd" d="M618.647,124.445 C618.647,128.359 615.475,131.531 611.561,131.531 C607.647,131.531 604.474,128.359 604.474,124.445 C604.474,120.531 607.647,117.358 611.561,117.358 C615.475,117.358 618.647,120.531 618.647,124.445 "/>
</g>

<g fill="#bbbbbb" fill-opacity="1" stroke="none" transform="matrix(0.999067,0,0,0.999067,0,0)"
font-family=".SF NS Text" font-size="54.1667" font-weight="400" font-style="normal" 
>
<path vector-effect="non-scaling-stroke" fill-rule="evenodd" d="M614.514,124.445 C614.514,126.075 613.192,127.397 611.561,127.397 C609.93,127.397 608.608,126.075 608.608,124.445 C608.608,122.814 609.93,121.492 611.561,121.492 C613.192,121.492 614.514,122.814 614.514,124.445 "/>
</g>

<g fill="#ffffff" fill-opacity="1" stroke="#bbbbbb" stroke-opacity="1" stroke-width="2.3622" stroke-linecap="square" stroke-linejoin="bevel" transform="matrix(0.999067,0,0,0.999067,0,0)"
font-family=".SF NS Text" font-size="54.1667" font-weight="400" font-style="normal" 
>
<path vector-effect="none" fill-rule="evenodd" d="M503.895,205.185 C503.895,208.12 501.516,210.5 498.58,210.5 C495.645,210.5 493.265,208.12 493.265,205.185 C493.265,202.249 495.645,199.87 498.58,199.87 C501.516,199.87 503.895,202.249 503.895,205.185 "/>
</g>

<g fill="#ffffff" fill-opacity="1" stroke="#bbbbbb" stroke-opacity="1" stroke-width="2.3622" stroke-linecap="square" stroke-linejoin="bevel" transform="matrix(0.999067,0,0,0.999067,0,0)"
font-family=".SF NS Text" font-size="54.1667" font-weight="400" font-style="normal" 
>
<path vector-effect="none" fill-rule="evenodd" d="M568.38,133.358 C568.38,137.272 565.207,140.445 561.293,140.445 C557.38,140.445 554.207,137.272 554.207,133.358 C554.207,129.444 557.38,126.271 561.293,126.271 C565.207,126.271 568.38,129.444 568.38,133.358 "/>
</g>

<g fill="#bbbbbb" fill-opacity="1" stroke="none" transform="matrix(0.999067,0,0,0.999067,0,0)"
font-family=".SF NS Text" font-size="54.1667" font-weight="400" font-style="normal" 
>
<path vector-effect="non-scaling-stroke" fill-rule="evenodd" d="M564.246,133.358 C564.246,134.989 562.924,136.311 561.293,136.311 C559.663,136.311 558.341,134.989 558.341,133.358 C558.341,131.727 559.663,130.405 561.293,130.405 C562.924,130.405 564.246,131.727 564.246,133.358 "/>
</g>

<g fill="#ffffff" fill-opacity="1" stroke="#bbbbbb" stroke-opacity="1" stroke-width="2.3622" stroke-linecap="square" stroke-linejoin="bevel" transform="matrix(0.999067,0,0,0.999067,0,0)"
font-family=".SF NS Text" font-size="54.1667" font-weight="400" font-style="normal" 
>
<path vector-effect="none" fill-rule="evenodd" d="M457.325,204.595 C457.325,208.509 454.152,211.682 450.239,211.682 C446.325,211.682 443.152,208.509 443.152,204.595 C443.152,200.682 446.325,197.509 450.239,197.509 C454.152,197.509 457.325,200.682 457.325,204.595 "/>
</g>

<g fill="#bbbbbb" fill-opacity="1" stroke="none" transform="matrix(0.999067,0,0,0.999067,0,0)"
font-family=".SF NS Text" font-size="54.1667" font-weight="400" font-style="normal" 
>
<path vector-effect="non-scaling-stroke" fill-rule="evenodd" d="M453.191,204.595 C453.191,206.226 451.869,207.548 450.239,207.548 C448.608,207.548 447.286,206.226 447.286,204.595 C447.286,202.965 448.608,201.643 450.239,201.643 C451.869,201.643 453.191,202.965 453.191,204.595 "/>
</g>

<g fill="#ffffff" fill-opacity="1" stroke="#bbbbbb" stroke-opacity="1" stroke-width="2.3622" stroke-linecap="square" stroke-linejoin="bevel" transform="matrix(0.999067,0,0,0.999067,0,0)"
font-family=".SF NS Text" font-size="54.1667" font-weight="400" font-style="normal" 
>
<path vector-effect="none" fill-rule="evenodd" d="M526.618,134.704 C526.618,137.639 524.238,140.019 521.303,140.019 C518.368,140.019 515.988,137.639 515.988,134.704 C515.988,131.769 518.368,129.389 521.303,129.389 C524.238,129.389 526.618,131.769 526.618,134.704 "/>
</g>

<g fill="#ffffff" fill-opacity="1" stroke="#bbbbbb" stroke-opacity="1" stroke-width="2.3622" stroke-linecap="square" stroke-linejoin="bevel" transform="matrix(0.999067,0,0,0.999067,0,0)"
font-family=".SF NS Text" font-size="54.1667" font-weight="400" font-style="normal" 
>
<path vector-effect="none" fill-rule="evenodd" d="M234.023,385.844 C234.023,389.758 230.85,392.931 226.936,392.931 C223.022,392.931 219.85,389.758 219.85,385.844 C219.85,381.93 223.022,378.758 226.936,378.758 C230.85,378.758 234.023,381.93 234.023,385.844 "/>
</g>

<g fill="#bbbbbb" fill-opacity="1" stroke="none" transform="matrix(0.999067,0,0,0.999067,0,0)"
font-family=".SF NS Text" font-size="54.1667" font-weight="400" font-style="normal" 
>
<path vector-effect="non-scaling-stroke" fill-rule="evenodd" d="M229.889,385.844 C229.889,387.475 228.567,388.797 226.936,388.797 C225.305,388.797 223.983,387.475 223.983,385.844 C223.983,384.213 225.305,382.891 226.936,382.891 C228.567,382.891 229.889,384.213 229.889,385.844 "/>
</g>

<g fill="#ffffff" fill-opacity="1" stroke="#bbbbbb" stroke-opacity="1" stroke-width="2.3622" stroke-linecap="square" stroke-linejoin="bevel" transform="matrix(0.999067,0,0,0.999067,0,0)"
font-family=".SF NS Text" font-size="54.1667" font-weight="400" font-style="normal" 
>
<path vector-effect="none" fill-rule="evenodd" d="M185.801,424.847 C185.801,427.783 183.421,430.162 180.486,430.162 C177.551,430.162 175.171,427.783 175.171,424.847 C175.171,421.912 177.551,419.532 180.486,419.532 C183.421,419.532 185.801,421.912 185.801,424.847 "/>
</g>

<g fill="#ffffff" fill-opacity="1" stroke="#bbbbbb" stroke-opacity="1" stroke-width="2.3622" stroke-linecap="square" stroke-linejoin="bevel" transform="matrix(0.999067,0,0,0.999067,0,0)"
font-family=".SF NS Text" font-size="54.1667" font-weight="400" font-style="normal" 
>
<path vector-effect="none" fill-rule="evenodd" d="M149.536,456.786 C149.536,460.7 146.363,463.873 142.449,463.873 C138.535,463.873 135.363,460.7 135.363,456.786 C135.363,452.872 138.535,449.7 142.449,449.7 C146.363,449.7 149.536,452.872 149.536,456.786 "/>
</g>

<g fill="#bbbbbb" fill-opacity="1" stroke="none" transform="matrix(0.999067,0,0,0.999067,0,0)"
font-family=".SF NS Text" font-size="54.1667" font-weight="400" font-style="normal" 
>
<path vector-effect="non-scaling-stroke" fill-rule="evenodd" d="M145.402,456.786 C145.402,458.417 144.08,459.739 142.449,459.739 C140.818,459.739 139.496,458.417 139.496,456.786 C139.496,455.155 140.818,453.833 142.449,453.833 C144.08,453.833 145.402,455.155 145.402,456.786 "/>
</g>

<g fill="#ffffff" fill-opacity="1" stroke="#bbbbbb" stroke-opacity="1" stroke-width="2.3622" stroke-linecap="square" stroke-linejoin="bevel" transform="matrix(0.999067,0,0,0.999067,0,0)"
font-family=".SF NS Text" font-size="54.1667" font-weight="400" font-style="normal" 
>
<path vector-effect="none" fill-rule="evenodd" d="M247.299,368.443 C247.299,371.378 244.92,373.758 241.985,373.758 C239.049,373.758 236.67,371.378 236.67,368.443 C236.67,365.507 239.049,363.128 241.985,363.128 C244.92,363.128 247.299,365.507 247.299,368.443 "/>
</g>

<g fill="#ffffff" fill-opacity="1" stroke="#bbbbbb" stroke-opacity="1" stroke-width="2.3622" stroke-linecap="square" stroke-linejoin="bevel" transform="matrix(0.999067,0,0,0.999067,0,0)"
font-family=".SF NS Text" font-size="54.1667" font-weight="400" font-style="normal" 
>
<path vector-effect="none" fill-rule="evenodd" d="M506.702,135.434 C506.702,139.348 503.529,142.52 499.615,142.52 C495.701,142.52 492.528,139.348 492.528,135.434 C492.528,131.52 495.701,128.347 499.615,128.347 C503.529,128.347 506.702,131.52 506.702,135.434 "/>
</g>

<g fill="#bbbbbb" fill-opacity="1" stroke="none" transform="matrix(0.999067,0,0,0.999067,0,0)"
font-family=".SF NS Text" font-size="54.1667" font-weight="400" font-style="normal" 
>
<path vector-effect="non-scaling-stroke" fill-rule="evenodd" d="M502.568,135.434 C502.568,137.065 501.246,138.387 499.615,138.387 C497.984,138.387 496.662,137.065 496.662,135.434 C496.662,133.803 497.984,132.481 499.615,132.481 C501.246,132.481 502.568,133.803 502.568,135.434 "/>
</g>

<g fill="#ffffff" fill-opacity="1" stroke="#bbbbbb" stroke-opacity="1" stroke-width="2.3622" stroke-linecap="square" stroke-linejoin="bevel" transform="matrix(0.999067,0,0,0.999067,0,0)"
font-family=".SF NS Text" font-size="54.1667" font-weight="400" font-style="normal" 
>
<path vector-effect="none" fill-rule="evenodd" d="M63.0785,520.563 C63.0785,524.477 59.9057,527.649 55.9919,527.649 C52.078,527.649 48.9052,524.477 48.9052,520.563 C48.9052,516.649 52.078,513.476 55.9919,513.476 C59.9057,513.476 63.0785,516.649 63.0785,520.563 "/>
</g>

<g fill="#bbbbbb" fill-opacity="1" stroke="none" transform="matrix(0.999067,0,0,0.999067,0,0)"
font-family=".SF NS Text" font-size="54.1667" font-weight="400" font-style="normal" 
>
<path vector-effect="non-scaling-stroke" fill-rule="evenodd" d="M58.9446,520.563 C58.9446,522.194 57.6226,523.516 55.9919,523.516 C54.3611,523.516 53.0391,522.194 53.0391,520.563 C53.0391,518.932 54.3611,517.61 55.9919,517.61 C57.6226,517.61 58.9446,518.932 58.9446,520.563 "/>
</g>

<g fill="#ffffff" fill-opacity="1" stroke="#bbbbbb" stroke-opacity="1" stroke-width="2.3622" stroke-linecap="square" stroke-linejoin="bevel" transform="matrix(0.999067,0,0,0.999067,0,0)"
font-family=".SF NS Text" font-size="54.1667" font-weight="400" font-style="normal" 
>
<path vector-effect="none" fill-rule="evenodd" d="M308.299,299.954 C308.299,303.868 305.126,307.04 301.212,307.04 C297.298,307.04 294.126,303.868 294.126,299.954 C294.126,296.04 297.298,292.867 301.212,292.867 C305.126,292.867 308.299,296.04 308.299,299.954 "/>
</g>

<g fill="#bbbbbb" fill-opacity="1" stroke="none" transform="matrix(0.999067,0,0,0.999067,0,0)"
font-family=".SF NS Text" font-size="54.1667" font-weight="400" font-style="normal" 
>
<path vector-effect="non-scaling-stroke" fill-rule="evenodd" d="M304.165,299.954 C304.165,301.585 302.843,302.907 301.212,302.907 C299.581,302.907 298.259,301.585 298.259,299.954 C298.259,298.323 299.581,297.001 301.212,297.001 C302.843,297.001 304.165,298.323 304.165,299.954 "/>
</g>

<g fill="#ffffff" fill-opacity="1" stroke="#bbbbbb" stroke-opacity="1" stroke-width="2.3622" stroke-linecap="square" stroke-linejoin="bevel" transform="matrix(0.999067,0,0,0.999067,0,0)"
font-family=".SF NS Text" font-size="54.1667" font-weight="400" font-style="normal" 
>
<path vector-effect="none" fill-rule="evenodd" d="M332.582,271.837 C332.582,275.751 329.409,278.924 325.495,278.924 C321.581,278.924 318.408,275.751 318.408,271.837 C318.408,267.923 321.581,264.751 325.495,264.751 C329.409,264.751 332.582,267.923 332.582,271.837 "/>
</g>

<g fill="#bbbbbb" fill-opacity="1" stroke="none" transform="matrix(0.999067,0,0,0.999067,0,0)"
font-family=".SF NS Text" font-size="54.1667" font-weight="400" font-style="normal" 
>
<path vector-effect="non-scaling-stroke" fill-rule="evenodd" d="M328.448,271.837 C328.448,273.468 327.126,274.79 325.495,274.79 C323.864,274.79 322.542,273.468 322.542,271.837 C322.542,270.206 323.864,268.884 325.495,268.884 C327.126,268.884 328.448,270.206 328.448,271.837 "/>
</g>

<g fill="#ffffff" fill-opacity="1" stroke="#bbbbbb" stroke-opacity="1" stroke-width="2.3622" stroke-linecap="square" stroke-linejoin="bevel" transform="matrix(0.999067,0,0,0.999067,0,0)"
font-family=".SF NS Text" font-size="54.1667" font-weight="400" font-style="normal" 
>
<path vector-effect="none" fill-rule="evenodd" d="M413.274,197.834 C413.274,200.769 410.895,203.148 407.959,203.148 C405.024,203.148 402.644,200.769 402.644,197.834 C402.644,194.898 405.024,192.519 407.959,192.519 C410.895,192.519 413.274,194.898 413.274,197.834 "/>
</g>

<g fill="#ffffff" fill-opacity="1" stroke="#bbbbbb" stroke-opacity="1" stroke-width="2.3622" stroke-linecap="square" stroke-linejoin="bevel" transform="matrix(0.999067,0,0,0.999067,0,0)"
font-family=".SF NS Text" font-size="54.1667" font-weight="400" font-style="normal" 
>
<path vector-effect="none" fill-rule="evenodd" d="M347.302,254.831 C347.302,258.745 344.129,261.918 340.215,261.918 C336.301,261.918 333.128,258.745 333.128,254.831 C333.128,250.918 336.301,247.745 340.215,247.745 C344.129,247.745 347.302,250.918 347.302,254.831 "/>
</g>

<g fill="#bbbbbb" fill-opacity="1" stroke="none" transform="matrix(0.999067,0,0,0.999067,0,0)"
font-family=".SF NS Text" font-size="54.1667" font-weight="400" font-style="normal" 
>
<path vector-effect="non-scaling-stroke" fill-rule="evenodd" d="M343.168,254.831 C343.168,256.462 341.846,257.784 340.215,257.784 C338.584,257.784 337.262,256.462 337.262,254.831 C337.262,253.201 338.584,251.879 340.215,251.879 C341.846,251.879 343.168,253.201 343.168,254.831 "/>
</g>

<g fill="#ffffff" fill-opacity="1" stroke="#bbbbbb" stroke-opacity="1" stroke-width="2.3622" stroke-linecap="square" stroke-linejoin="bevel" transform="matrix(0.999067,0,0,0.999067,0,0)"
font-family=".SF NS Text" font-size="54.1667" font-weight="400" font-style="normal" 
>
<path vector-effect="none" fill-rule="evenodd" d="M360.484,239.606 C360.484,243.519 357.311,246.692 353.398,246.692 C349.484,246.692 346.311,243.519 346.311,239.606 C346.311,235.692 349.484,232.519 353.398,232.519 C357.311,232.519 360.484,235.692 360.484,239.606 "/>
</g>

<g fill="#bbbbbb" fill-opacity="1" stroke="none" transform="matrix(0.999067,0,0,0.999067,0,0)"
font-family=".SF NS Text" font-size="54.1667" font-weight="400" font-style="normal" 
>
<path vector-effect="non-scaling-stroke" fill-rule="evenodd" d="M356.35,239.606 C356.35,241.236 355.028,242.558 353.398,242.558 C351.767,242.558 350.445,241.236 350.445,239.606 C350.445,237.975 351.767,236.653 353.398,236.653 C355.028,236.653 356.35,237.975 356.35,239.606 "/>
</g>

<g fill="#ffffff" fill-opacity="1" stroke="#bbbbbb" stroke-opacity="1" stroke-width="2.3622" stroke-linecap="square" stroke-linejoin="bevel" transform="matrix(0.999067,0,0,0.999067,0,0)"
font-family=".SF NS Text" font-size="54.1667" font-weight="400" font-style="normal" 
>
<path vector-effect="none" fill-rule="evenodd" d="M446.516,145.124 C446.516,149.038 443.344,152.211 439.43,152.211 C435.516,152.211 432.343,149.038 432.343,145.124 C432.343,141.21 435.516,138.038 439.43,138.038 C443.344,138.038 446.516,141.21 446.516,145.124 "/>
</g>

<g fill="#bbbbbb" fill-opacity="1" stroke="none" transform="matrix(0.999067,0,0,0.999067,0,0)"
font-family=".SF NS Text" font-size="54.1667" font-weight="400" font-style="normal" 
>
<path vector-effect="non-scaling-stroke" fill-rule="evenodd" d="M442.383,145.124 C442.383,146.755 441.061,148.077 439.43,148.077 C437.799,148.077 436.477,146.755 436.477,145.124 C436.477,143.494 437.799,142.172 439.43,142.172 C441.061,142.172 442.383,143.494 442.383,145.124 "/>
</g>

<g fill="#ffffff" fill-opacity="1" stroke="#bbbbbb" stroke-opacity="1" stroke-width="2.3622" stroke-linecap="square" stroke-linejoin="bevel" transform="matrix(0.999067,0,0,0.999067,0,0)"
font-family=".SF NS Text" font-size="54.1667" font-weight="400" font-style="normal" 
>
<path vector-effect="none" fill-rule="evenodd" d="M389.012,193.67 C389.012,197.584 385.839,200.757 381.926,200.757 C378.012,200.757 374.839,197.584 374.839,193.67 C374.839,189.756 378.012,186.583 381.926,186.583 C385.839,186.583 389.012,189.756 389.012,193.67 "/>
</g>

<g fill="#bbbbbb" fill-opacity="1" stroke="none" transform="matrix(0.999067,0,0,0.999067,0,0)"
font-family=".SF NS Text" font-size="54.1667" font-weight="400" font-style="normal" 
>
<path vector-effect="non-scaling-stroke" fill-rule="evenodd" d="M384.878,193.67 C384.878,195.301 383.556,196.623 381.926,196.623 C380.295,196.623 378.973,195.301 378.973,193.67 C378.973,192.039 380.295,190.717 381.926,190.717 C383.556,190.717 384.878,192.039 384.878,193.67 "/>
</g>

<g fill="#ffffff" fill-opacity="1" stroke="#bbbbbb" stroke-opacity="1" stroke-width="2.3622" stroke-linecap="square" stroke-linejoin="bevel" transform="matrix(0.999067,0,0,0.999067,0,0)"
font-family=".SF NS Text" font-size="54.1667" font-weight="400" font-style="normal" 
>
<path vector-effect="none" fill-rule="evenodd" d="M196.734,362.801 C196.734,366.714 193.561,369.887 189.647,369.887 C185.733,369.887 182.56,366.714 182.56,362.801 C182.56,358.887 185.733,355.714 189.647,355.714 C193.561,355.714 196.734,358.887 196.734,362.801 "/>
</g>

<g fill="#bbbbbb" fill-opacity="1" stroke="none" transform="matrix(0.999067,0,0,0.999067,0,0)"
font-family=".SF NS Text" font-size="54.1667" font-weight="400" font-style="normal" 
>
<path vector-effect="non-scaling-stroke" fill-rule="evenodd" d="M192.6,362.801 C192.6,364.431 191.278,365.753 189.647,365.753 C188.016,365.753 186.694,364.431 186.694,362.801 C186.694,361.17 188.016,359.848 189.647,359.848 C191.278,359.848 192.6,361.17 192.6,362.801 "/>
</g>

<g fill="#ffffff" fill-opacity="1" stroke="#bbbbbb" stroke-opacity="1" stroke-width="2.3622" stroke-linecap="square" stroke-linejoin="bevel" transform="matrix(0.999067,0,0,0.999067,0,0)"
font-family=".SF NS Text" font-size="54.1667" font-weight="400" font-style="normal" 
>
<path vector-effect="none" fill-rule="evenodd" d="M160.867,393.043 C160.867,396.957 157.694,400.13 153.781,400.13 C149.867,400.13 146.694,396.957 146.694,393.043 C146.694,389.129 149.867,385.957 153.781,385.957 C157.694,385.957 160.867,389.129 160.867,393.043 "/>
</g>

<g fill="#bbbbbb" fill-opacity="1" stroke="none" transform="matrix(0.999067,0,0,0.999067,0,0)"
font-family=".SF NS Text" font-size="54.1667" font-weight="400" font-style="normal" 
>
<path vector-effect="non-scaling-stroke" fill-rule="evenodd" d="M156.733,393.043 C156.733,394.674 155.411,395.996 153.781,395.996 C152.15,395.996 150.828,394.674 150.828,393.043 C150.828,391.412 152.15,390.09 153.781,390.09 C155.411,390.09 156.733,391.412 156.733,393.043 "/>
</g>

<g fill="#ffffff" fill-opacity="1" stroke="#bbbbbb" stroke-opacity="1" stroke-width="2.3622" stroke-linecap="square" stroke-linejoin="bevel" transform="matrix(0.999067,0,0,0.999067,0,0)"
font-family=".SF NS Text" font-size="54.1667" font-weight="400" font-style="normal" 
>
<path vector-effect="none" fill-rule="evenodd" d="M216.219,340.081 C216.219,343.995 213.046,347.168 209.132,347.168 C205.219,347.168 202.046,343.995 202.046,340.081 C202.046,336.168 205.219,332.995 209.132,332.995 C213.046,332.995 216.219,336.168 216.219,340.081 "/>
</g>

<g fill="#bbbbbb" fill-opacity="1" stroke="none" transform="matrix(0.999067,0,0,0.999067,0,0)"
font-family=".SF NS Text" font-size="54.1667" font-weight="400" font-style="normal" 
>
<path vector-effect="non-scaling-stroke" fill-rule="evenodd" d="M212.085,340.081 C212.085,341.712 210.763,343.034 209.132,343.034 C207.502,343.034 206.18,341.712 206.18,340.081 C206.18,338.451 207.502,337.129 209.132,337.129 C210.763,337.129 212.085,338.451 212.085,340.081 "/>
</g>

<g fill="#ffffff" fill-opacity="1" stroke="#bbbbbb" stroke-opacity="1" stroke-width="2.3622" stroke-linecap="square" stroke-linejoin="bevel" transform="matrix(0.999067,0,0,0.999067,0,0)"
font-family=".SF NS Text" font-size="54.1667" font-weight="400" font-style="normal" 
>
<path vector-effect="none" fill-rule="evenodd" d="M122.68,420.334 C122.68,424.248 119.507,427.421 115.593,427.421 C111.679,427.421 108.506,424.248 108.506,420.334 C108.506,416.42 111.679,413.248 115.593,413.248 C119.507,413.248 122.68,416.42 122.68,420.334 "/>
</g>

<g fill="#bbbbbb" fill-opacity="1" stroke="none" transform="matrix(0.999067,0,0,0.999067,0,0)"
font-family=".SF NS Text" font-size="54.1667" font-weight="400" font-style="normal" 
>
<path vector-effect="non-scaling-stroke" fill-rule="evenodd" d="M118.546,420.334 C118.546,421.965 117.224,423.287 115.593,423.287 C113.962,423.287 112.64,421.965 112.64,420.334 C112.64,418.703 113.962,417.381 115.593,417.381 C117.224,417.381 118.546,418.703 118.546,420.334 "/>
</g>

<g fill="#ffffff" fill-opacity="1" stroke="#bbbbbb" stroke-opacity="1" stroke-width="2.3622" stroke-linecap="square" stroke-linejoin="bevel" transform="matrix(0.999067,0,0,0.999067,0,0)"
font-family=".SF NS Text" font-size="54.1667" font-weight="400" font-style="normal" 
>
<path vector-effect="none" fill-rule="evenodd" d="M423.008,148.878 C423.008,152.792 419.835,155.965 415.922,155.965 C412.008,155.965 408.835,152.792 408.835,148.878 C408.835,144.965 412.008,141.792 415.922,141.792 C419.835,141.792 423.008,144.965 423.008,148.878 "/>
</g>

<g fill="#bbbbbb" fill-opacity="1" stroke="none" transform="matrix(0.999067,0,0,0.999067,0,0)"
font-family=".SF NS Text" font-size="54.1667" font-weight="400" font-style="normal" 
>
<path vector-effect="non-scaling-stroke" fill-rule="evenodd" d="M418.874,148.878 C418.874,150.509 417.552,151.831 415.922,151.831 C414.291,151.831 412.969,150.509 412.969,148.878 C412.969,147.248 414.291,145.926 415.922,145.926 C417.552,145.926 418.874,147.248 418.874,148.878 "/>
</g>

<g fill="#ffffff" fill-opacity="1" stroke="#bbbbbb" stroke-opacity="1" stroke-width="2.3622" stroke-linecap="square" stroke-linejoin="bevel" transform="matrix(0.999067,0,0,0.999067,0,0)"
font-family=".SF NS Text" font-size="54.1667" font-weight="400" font-style="normal" 
>
<path vector-effect="none" fill-rule="evenodd" d="M41.4696,479.806 C41.4696,483.719 38.2968,486.892 34.383,486.892 C30.4692,486.892 27.2964,483.719 27.2964,479.806 C27.2964,475.892 30.4692,472.719 34.383,472.719 C38.2968,472.719 41.4696,475.892 41.4696,479.806 "/>
</g>

<g fill="#bbbbbb" fill-opacity="1" stroke="none" transform="matrix(0.999067,0,0,0.999067,0,0)"
font-family=".SF NS Text" font-size="54.1667" font-weight="400" font-style="normal" 
>
<path vector-effect="non-scaling-stroke" fill-rule="evenodd" d="M37.3357,479.806 C37.3357,481.436 36.0138,482.758 34.383,482.758 C32.7522,482.758 31.4302,481.436 31.4302,479.806 C31.4302,478.175 32.7522,476.853 34.383,476.853 C36.0138,476.853 37.3357,478.175 37.3357,479.806 "/>
</g>

<g fill="#ffffff" fill-opacity="1" stroke="#bbbbbb" stroke-opacity="1" stroke-width="2.3622" stroke-linecap="square" stroke-linejoin="bevel" transform="matrix(0.999067,0,0,0.999067,0,0)"
font-family=".SF NS Text" font-size="54.1667" font-weight="400" font-style="normal" 
>
<path vector-effect="none" fill-rule="evenodd" d="M263.493,269.946 C263.493,272.881 261.113,275.261 258.178,275.261 C255.243,275.261 252.863,272.881 252.863,269.946 C252.863,267.011 255.243,264.631 258.178,264.631 C261.113,264.631 263.493,267.011 263.493,269.946 "/>
</g>

<g fill="#ffffff" fill-opacity="1" stroke="#bbbbbb" stroke-opacity="1" stroke-width="2.3622" stroke-linecap="square" stroke-linejoin="bevel" transform="matrix(0.999067,0,0,0.999067,0,0)"
font-family=".SF NS Text" font-size="54.1667" font-weight="400" font-style="normal" 
>
<path vector-effect="none" fill-rule="evenodd" d="M392.802,155.117 C392.802,159.031 389.63,162.203 385.716,162.203 C381.802,162.203 378.629,159.031 378.629,155.117 C378.629,151.203 381.802,148.03 385.716,148.03 C389.63,148.03 392.802,151.203 392.802,155.117 "/>
</g>

<g fill="#bbbbbb" fill-opacity="1" stroke="none" transform="matrix(0.999067,0,0,0.999067,0,0)"
font-family=".SF NS Text" font-size="54.1667" font-weight="400" font-style="normal" 
>
<path vector-effect="non-scaling-stroke" fill-rule="evenodd" d="M388.669,155.117 C388.669,156.748 387.347,158.07 385.716,158.07 C384.085,158.07 382.763,156.748 382.763,155.117 C382.763,153.486 384.085,152.164 385.716,152.164 C387.347,152.164 388.669,153.486 388.669,155.117 "/>
</g>

<g fill="#ffffff" fill-opacity="1" stroke="#bbbbbb" stroke-opacity="1" stroke-width="2.3622" stroke-linecap="square" stroke-linejoin="bevel" transform="matrix(0.999067,0,0,0.999067,0,0)"
font-family=".SF NS Text" font-size="54.1667" font-weight="400" font-style="normal" 
>
<path vector-effect="none" fill-rule="evenodd" d="M297.969,223.178 C297.969,227.092 294.797,230.265 290.883,230.265 C286.969,230.265 283.796,227.092 283.796,223.178 C283.796,219.264 286.969,216.091 290.883,216.091 C294.797,216.091 297.969,219.264 297.969,223.178 "/>
</g>

<g fill="#bbbbbb" fill-opacity="1" stroke="none" transform="matrix(0.999067,0,0,0.999067,0,0)"
font-family=".SF NS Text" font-size="54.1667" font-weight="400" font-style="normal" 
>
<path vector-effect="non-scaling-stroke" fill-rule="evenodd" d="M293.835,223.178 C293.835,224.809 292.513,226.131 290.883,226.131 C289.252,226.131 287.93,224.809 287.93,223.178 C287.93,221.547 289.252,220.225 290.883,220.225 C292.513,220.225 293.835,221.547 293.835,223.178 "/>
</g>

<g fill="#ffffff" fill-opacity="1" stroke="#bbbbbb" stroke-opacity="1" stroke-width="2.3622" stroke-linecap="square" stroke-linejoin="bevel" transform="matrix(0.999067,0,0,0.999067,0,0)"
font-family=".SF NS Text" font-size="54.1667" font-weight="400" font-style="normal" 
>
<path vector-effect="none" fill-rule="evenodd" d="M367.145,161.311 C367.145,165.225 363.972,168.398 360.058,168.398 C356.145,168.398 352.972,165.225 352.972,161.311 C352.972,157.397 356.145,154.225 360.058,154.225 C363.972,154.225 367.145,157.397 367.145,161.311 "/>
</g>

<g fill="#bbbbbb" fill-opacity="1" stroke="none" transform="matrix(0.999067,0,0,0.999067,0,0)"
font-family=".SF NS Text" font-size="54.1667" font-weight="400" font-style="normal" 
>
<path vector-effect="non-scaling-stroke" fill-rule="evenodd" d="M363.011,161.311 C363.011,162.942 361.689,164.264 360.058,164.264 C358.428,164.264 357.106,162.942 357.106,161.311 C357.106,159.68 358.428,158.358 360.058,158.358 C361.689,158.358 363.011,159.68 363.011,161.311 "/>
</g>

<g fill="#ffffff" fill-opacity="1" stroke="#bbbbbb" stroke-opacity="1" stroke-width="2.3622" stroke-linecap="square" stroke-linejoin="bevel" transform="matrix(0.999067,0,0,0.999067,0,0)"
font-family=".SF NS Text" font-size="54.1667" font-weight="400" font-style="normal" 
>
<path vector-effect="none" fill-rule="evenodd" d="M316.845,196.12 C316.845,200.034 313.672,203.207 309.759,203.207 C305.845,203.207 302.672,200.034 302.672,196.12 C302.672,192.206 305.845,189.033 309.759,189.033 C313.672,189.033 316.845,192.206 316.845,196.12 "/>
</g>

<g fill="#bbbbbb" fill-opacity="1" stroke="none" transform="matrix(0.999067,0,0,0.999067,0,0)"
font-family=".SF NS Text" font-size="54.1667" font-weight="400" font-style="normal" 
>
<path vector-effect="non-scaling-stroke" fill-rule="evenodd" d="M312.711,196.12 C312.711,197.751 311.389,199.073 309.759,199.073 C308.128,199.073 306.806,197.751 306.806,196.12 C306.806,194.489 308.128,193.167 309.759,193.167 C311.389,193.167 312.711,194.489 312.711,196.12 "/>
</g>

<g fill="#ffffff" fill-opacity="1" stroke="#bbbbbb" stroke-opacity="1" stroke-width="2.3622" stroke-linecap="square" stroke-linejoin="bevel" transform="matrix(0.999067,0,0,0.999067,0,0)"
font-family=".SF NS Text" font-size="54.1667" font-weight="400" font-style="normal" 
>
<path vector-effect="none" fill-rule="evenodd" d="M336.45,177.71 C336.45,181.624 333.277,184.797 329.363,184.797 C325.449,184.797 322.276,181.624 322.276,177.71 C322.276,173.796 325.449,170.624 329.363,170.624 C333.277,170.624 336.45,173.796 336.45,177.71 "/>
</g>

<g fill="#bbbbbb" fill-opacity="1" stroke="none" transform="matrix(0.999067,0,0,0.999067,0,0)"
font-family=".SF NS Text" font-size="54.1667" font-weight="400" font-style="normal" 
>
<path vector-effect="non-scaling-stroke" fill-rule="evenodd" d="M332.316,177.71 C332.316,179.341 330.994,180.663 329.363,180.663 C327.732,180.663 326.41,179.341 326.41,177.71 C326.41,176.08 327.732,174.758 329.363,174.758 C330.994,174.758 332.316,176.08 332.316,177.71 "/>
</g>

<g fill="none" stroke="#2277cc" stroke-opacity="1" stroke-width="3.54331" stroke-linecap="round" stroke-linejoin="round" transform="matrix(0.999067,0,0,0.999067,0,0)"
font-family=".SF NS Text" font-size="54.1667" font-weight="400" font-style="normal" 
>
<path vector-effect="none" fill-rule="evenodd" d="M-62.7655,567.816 L45.1874,500.184 L129.021,438.56 L148.115,424.915 L208.292,374.322 L218.034,362.963 L296.047,261.566 L308.189,247.508 L315.549,239.005 L331.578,217.863 L355.644,185.69 L370.992,177.491 L383.821,174.393 L398.924,171.274 L444.834,174.86 L511.558,170.461 L570.75,164.079 L627.027,146.35 L717.898,108.021"/>
<path vector-effect="none" fill-rule="evenodd" d="M934.811,-45.0217 L717.898,108.021"/>
<path vector-effect="none" fill-rule="evenodd" d="M717.898,108.021 L717.898,108.021"/>
</g>

<g fill="#ffffff" fill-opacity="1" stroke="#000000" stroke-opacity="1" stroke-width="2.3622" stroke-linecap="square" stroke-linejoin="bevel" transform="matrix(0.999067,0,0,0.999067,0,0)"
font-family=".SF NS Text" font-size="54.1667" font-weight="400" font-style="normal" 
>
<path vector-effect="none" fill-rule="evenodd" d="M50.5024,500.184 C50.5024,503.12 48.1228,505.499 45.1874,505.499 C42.2521,505.499 39.8725,503.12 39.8725,500.184 C39.8725,497.249 42.2521,494.869 45.1874,494.869 C48.1228,494.869 50.5024,497.249 50.5024,500.184 "/>
<path vector-effect="none" fill-rule="evenodd" d="M134.336,438.56 C134.336,441.496 131.956,443.875 129.021,443.875 C126.086,443.875 123.706,441.496 123.706,438.56 C123.706,435.625 126.086,433.245 129.021,433.245 C131.956,433.245 134.336,435.625 134.336,438.56 "/>
<path vector-effect="none" fill-rule="evenodd" d="M153.43,424.915 C153.43,427.85 151.05,430.23 148.115,430.23 C145.18,430.23 142.8,427.85 142.8,424.915 C142.8,421.979 145.18,419.6 148.115,419.6 C151.05,419.6 153.43,421.979 153.43,424.915 "/>
<path vector-effect="none" fill-rule="evenodd" d="M213.607,374.322 C213.607,377.258 211.227,379.637 208.292,379.637 C205.356,379.637 202.977,377.258 202.977,374.322 C202.977,371.387 205.356,369.007 208.292,369.007 C211.227,369.007 213.607,371.387 213.607,374.322 "/>
<path vector-effect="none" fill-rule="evenodd" d="M223.349,362.963 C223.349,365.898 220.97,368.278 218.034,368.278 C215.099,368.278 212.719,365.898 212.719,362.963 C212.719,360.027 215.099,357.648 218.034,357.648 C220.97,357.648 223.349,360.027 223.349,362.963 "/>
<path vector-effect="none" fill-rule="evenodd" d="M301.362,261.566 C301.362,264.501 298.983,266.881 296.047,266.881 C293.112,266.881 290.732,264.501 290.732,261.566 C290.732,258.631 293.112,256.251 296.047,256.251 C298.983,256.251 301.362,258.631 301.362,261.566 "/>
<path vector-effect="none" fill-rule="evenodd" d="M313.504,247.508 C313.504,250.443 311.124,252.823 308.189,252.823 C305.254,252.823 302.874,250.443 302.874,247.508 C302.874,244.572 305.254,242.193 308.189,242.193 C311.124,242.193 313.504,244.572 313.504,247.508 "/>
<path vector-effect="none" fill-rule="evenodd" d="M320.864,239.005 C320.864,241.94 318.484,244.32 315.549,244.32 C312.614,244.32 310.234,241.94 310.234,239.005 C310.234,236.069 312.614,233.69 315.549,233.69 C318.484,233.69 320.864,236.069 320.864,239.005 "/>
<path vector-effect="none" fill-rule="evenodd" d="M336.893,217.863 C336.893,220.798 334.513,223.178 331.578,223.178 C328.643,223.178 326.263,220.798 326.263,217.863 C326.263,214.927 328.643,212.548 331.578,212.548 C334.513,212.548 336.893,214.927 336.893,217.863 "/>
<path vector-effect="none" fill-rule="evenodd" d="M360.959,185.69 C360.959,188.625 358.58,191.005 355.644,191.005 C352.709,191.005 350.329,188.625 350.329,185.69 C350.329,182.755 352.709,180.375 355.644,180.375 C358.58,180.375 360.959,182.755 360.959,185.69 "/>
<path vector-effect="none" fill-rule="evenodd" d="M376.307,177.491 C376.307,180.426 373.927,182.806 370.992,182.806 C368.057,182.806 365.677,180.426 365.677,177.491 C365.677,174.555 368.057,172.176 370.992,172.176 C373.927,172.176 376.307,174.555 376.307,177.491 "/>
<path vector-effect="none" fill-rule="evenodd" d="M389.136,174.393 C389.136,177.329 386.756,179.708 383.821,179.708 C380.885,179.708 378.506,177.329 378.506,174.393 C378.506,171.458 380.885,169.078 383.821,169.078 C386.756,169.078 389.136,171.458 389.136,174.393 "/>
<path vector-effect="none" fill-rule="evenodd" d="M404.239,171.274 C404.239,174.21 401.859,176.589 398.924,176.589 C395.988,176.589 393.609,174.21 393.609,171.274 C393.609,168.339 395.988,165.959 398.924,165.959 C401.859,165.959 404.239,168.339 404.239,171.274 "/>
<path vector-effect="none" fill-rule="evenodd" d="M450.149,174.86 C450.149,177.795 447.77,180.175 444.834,180.175 C441.899,180.175 439.519,177.795 439.519,174.86 C439.519,171.924 441.899,169.545 444.834,169.545 C447.77,169.545 450.149,171.924 450.149,174.86 "/>
<path vector-effect="none" fill-rule="evenodd" d="M516.873,170.461 C516.873,173.397 514.493,175.776 511.558,175.776 C508.623,175.776 506.243,173.397 506.243,170.461 C506.243,167.526 508.623,165.146 511.558,165.146 C514.493,165.146 516.873,167.526 516.873,170.461 "/>
<path vector-effect="none" fill-rule="evenodd" d="M576.065,164.079 C576.065,167.014 573.685,169.394 570.75,169.394 C567.814,169.394 565.435,167.014 565.435,164.079 C565.435,161.143 567.814,158.764 570.75,158.764 C573.685,158.764 576.065,161.143 576.065,164.079 "/>
<path vector-effect="none" fill-rule="evenodd" d="M632.342,146.35 C632.342,149.285 629.962,151.665 627.027,151.665 C624.092,151.665 621.712,149.285 621.712,146.35 C621.712,143.414 624.092,141.035 627.027,141.035 C629.962,141.035 632.342,143.414 632.342,146.35 "/>
<path vector-effect="none" fill-rule="evenodd" d="M723.212,108.021 C723.212,110.956 720.833,113.336 717.898,113.336 C714.962,113.336 712.583,110.956 712.583,108.021 C712.583,105.085 714.962,102.706 717.898,102.706 C720.833,102.706 723.212,105.085 723.212,108.021 "/>
<path vector-effect="none" fill-rule="evenodd" d="M723.212,108.021 C723.212,110.956 720.833,113.336 717.898,113.336 C714.962,113.336 712.583,110.956 712.583,108.021 C712.583,105.085 714.962,102.706 717.898,102.706 C720.833,102.706 723.212,105.085 723.212,108.021 "/>
<path vector-effect="none" fill-rule="evenodd" d="M723.212,108.021 C723.212,110.956 720.833,113.336 717.898,113.336 C714.962,113.336 712.583,110.956 712.583,108.021 C712.583,105.085 714.962,102.706 717.898,102.706 C720.833,102.706 723.212,105.085 723.212,108.021 "/>
<path vector-effect="none" fill-rule="evenodd" d="M723.212,108.021 C723.212,110.956 720.833,113.336 717.898,113.336 C714.962,113.336 712.583,110.956 712.583,108.021 C712.583,105.085 714.962,102.706 717.898,102.706 C720.833,102.706 723.212,105.085 723.212,108.021 "/>
</g>

</g>
</svg>
